<svg width="380" height="679" viewBox="0 0 380 679" fill="none" xmlns="http://www.w3.org/2000/svg">
<path opacity="0.03" d="M734.354 555.619C714.985 595.078 687.293 627.326 649.53 650.441C606.089 677.026 559.361 684.882 509.634 674.713C479.228 668.49 451.013 656.855 424.798 639.95C407.036 628.506 389.88 616.429 374.177 602.291C372.57 601.611 371.285 600.562 370.439 599C369.677 598.249 368.915 597.498 368.153 596.747C356.272 587.401 346.32 576.016 335.438 565.621C315.271 546.344 292.985 530.465 266.032 522.155C246.483 516.123 226.4 514.895 206.054 516.135C185.113 517.411 164.291 520.784 143.207 519.592C120.218 518.293 99.5388 509.984 80.4073 497.919C33.6083 468.378 8.0481 425.402 1.59554 370.671C-3.20222 329.947 3.29797 290.488 14.703 251.54C26.8582 210.042 45.7158 172.132 75.4905 140.386C104.86 109.068 141.004 89.6722 183.029 81.0769C213.102 74.9255 243.221 75.295 273.496 79.3006C294.497 82.0783 314.426 77.3574 333.795 69.5012C357.034 60.0834 378.166 46.6837 399.964 34.5478C422.488 22.0065 445.156 9.91826 470.442 3.52841C537.551 -13.4118 609.72 32.6404 623.363 98.9708C627.292 118.093 629.328 137.322 630.97 156.67C631.494 162.774 631.661 168.913 631.994 175.041C632.137 177.008 632.292 178.975 632.435 180.942C633.566 182.42 633.351 184.089 633.101 185.758C633.244 187.344 633.375 188.929 633.518 190.515C634.578 191.528 634.518 192.792 634.28 194.091C634.471 196.058 634.661 198.014 634.851 199.981C635.637 200.648 635.697 201.506 635.471 202.424C638.685 219.067 642.447 235.47 650.233 250.813C657.721 265.596 668.352 277.529 681.305 287.364C726.342 321.578 751.248 367.201 758.26 422.886C764.129 469.558 754.903 513.715 734.354 555.595V555.619Z" fill="#BE2D87"/>
</svg>
