<svg width="402" height="353" viewBox="0 0 402 353" fill="none" xmlns="http://www.w3.org/2000/svg">
<path opacity="0.05" d="M382.429 120.815C369.099 138.075 354.109 153.925 340.439 170.885C323.929 191.375 312.309 214.805 299.419 237.505C284.459 263.855 269.199 290.025 247.309 311.525C222.279 336.105 192.069 349.155 157.259 351.775C133.849 353.535 110.769 351.635 88.1693 344.955C60.9893 336.915 36.9093 323.215 15.3093 305.065C8.20927 299.095 0.799278 293.395 -4.92072 285.945C-15.1607 276.355 -23.7407 265.345 -31.8407 253.985C-57.9407 217.435 -76.7307 177.545 -86.5307 133.565C-92.9507 104.805 -90.8407 77.0752 -77.0007 50.7252C-66.6407 30.9952 -49.5007 21.6752 -27.9207 19.4252C-7.95072 17.3452 11.5693 20.9352 31.0393 24.5052C58.5193 29.5452 85.8393 35.4852 113.739 37.9252C130.069 38.6852 146.269 37.7352 162.459 35.2752C167.859 34.4552 172.999 32.7852 177.869 30.9452C189.279 26.6452 201.029 23.0152 212.649 19.9852C223.679 17.1052 234.509 13.2952 245.739 10.8252C260.769 7.50521 275.829 4.25521 290.999 2.18521C312.799 -0.784793 334.749 -1.55479 356.259 5.24521C379.089 12.4652 392.419 28.1052 398.709 50.8552C406.009 77.2952 398.559 99.9352 382.439 120.815H382.429Z" fill="url(#paint0_linear_276_212)"/>
<defs>
<linearGradient id="paint0_linear_276_212" x1="402" y1="-5.5221e-06" x2="-73.5" y2="294" gradientUnits="userSpaceOnUse">
<stop/>
<stop offset="1" stop-opacity="0"/>
</linearGradient>
</defs>
</svg>
