<svg width="120" height="120" viewBox="0 0 120 120" fill="none" xmlns="http://www.w3.org/2000/svg">
<circle cx="60" cy="60.0007" r="60" fill="url(#paint0_linear_276_1634)"/>
<mask id="path-2-inside-1_276_1634" fill="white">
<path d="M38.6354 64.1694C41.477 63.6165 44.1803 62.7717 46.6993 61.4047C47.6209 60.8978 48.4657 60.2681 49.3258 59.6537C50.3396 58.9318 51.3226 58.133 52.5974 57.9334C53.3501 57.8258 54.1334 57.7951 54.8861 57.8105C56.591 57.8412 58.2806 57.749 59.878 57.1654C60.861 56.7967 61.7826 56.2131 62.6888 55.6601C63.0267 55.4451 63.2878 55.399 63.6258 55.5526C64.7009 56.0595 65.0849 56.6892 64.8392 57.8412C64.6702 58.6092 64.3323 59.3465 64.0712 60.1145C64.7777 59.9455 65.5611 59.7919 66.3444 59.5769C69.6007 58.7167 72.7495 59.2543 75.8214 60.4216C79.4156 61.7887 82.9944 63.2325 86.5732 64.6456C86.6961 64.6917 86.8651 64.7224 86.9265 64.8145C87.034 64.9374 87.1569 65.1525 87.1108 65.2753C87.0648 65.4136 86.8344 65.5518 86.6808 65.5518C86.5118 65.5672 86.3121 65.4597 86.1432 65.3675C82.38 63.6626 78.5094 62.2648 74.608 60.9285C71.3517 59.8073 68.1415 59.7919 64.8853 60.7596C63.7486 61.0975 62.612 61.3893 61.5675 62.0037C60.9378 62.3723 60.2005 62.6335 59.4786 62.8024C57.7737 63.2018 56.3299 64.0619 54.9628 65.1217C52.4131 67.1031 49.8634 69.0692 47.329 71.0352C47.2062 71.1274 47.0986 71.2196 46.9451 71.3578C47.7591 71.9108 48.6346 71.9415 49.4641 71.6957C50.0631 71.5114 50.6621 71.1735 51.1536 70.7741C53.089 69.1921 54.9168 67.4871 56.8982 65.9819C57.9887 65.1525 59.325 64.6149 60.5538 63.9698C60.7074 63.893 60.9839 64.0158 61.1989 64.0466C61.0607 64.2155 60.9532 64.4459 60.7842 64.5381C59.0178 65.3675 57.4204 66.458 55.9152 67.6868C53.1965 69.8986 50.7389 72.433 47.713 74.353C48.481 75.1209 49.4026 75.2131 50.2935 74.952C50.9386 74.7677 51.5683 74.4144 52.0752 73.9843C54.1181 72.2794 56.1148 70.513 58.1116 68.7466C58.2652 68.6084 58.4034 68.3934 58.4802 68.1937C58.7721 67.4103 59.3404 67.0263 60.1544 66.9035C60.5692 66.842 60.9839 66.7192 61.3986 66.5809C61.8747 66.4273 62.3202 66.2123 62.7963 66.074C62.9192 66.0433 63.0882 66.1508 63.2418 66.1969C63.165 66.3352 63.1189 66.5195 62.996 66.5809C62.5506 66.842 62.0898 67.0724 61.6904 67.2875C62.1051 67.8711 62.4891 68.4241 62.9192 69.0078C63.2725 68.8388 63.7026 68.6084 64.148 68.4394C64.2862 68.3934 64.4705 68.4855 64.6395 68.5162C64.5934 68.6852 64.5934 68.9002 64.4705 69.0078C64.2709 69.2074 63.9944 69.3303 63.7486 69.4839C61.3218 71.0506 58.9871 72.7248 56.9596 74.783C56.8214 74.9213 56.6985 75.0595 56.5295 75.2438C57.3436 75.5664 58.1116 75.4742 58.8489 75.1824C59.9394 74.7369 60.8303 74.0458 61.4447 73.0167C62.0744 71.9876 62.8731 71.1735 64.2094 71.0967C64.3323 71.0967 64.4552 70.8663 64.532 70.7127C64.8699 70.0061 65.131 69.2535 65.5304 68.593C66.0065 67.779 66.7591 67.2414 67.6961 66.9803C67.8958 66.9188 68.0801 66.7192 68.203 66.5348C68.8942 65.4443 69.8772 64.876 71.1674 64.8606C71.9661 64.8453 72.3962 65.3214 72.2579 66.1201C72.1043 67.011 71.8893 67.8865 71.7204 68.762C71.6589 69.0538 71.6589 69.361 71.6128 69.7604C71.8279 69.6375 71.9661 69.53 72.1197 69.4686C73.0567 69.0999 73.9782 68.6852 74.9459 68.3934C75.3145 68.2705 75.7907 68.3626 76.19 68.4548C77.0963 68.6545 77.3881 69.0846 77.4495 70.0983C81.0898 71.9261 84.3 74.3683 87.6177 76.6416C87.7252 76.7184 87.8635 76.7952 87.9249 76.9027C87.9863 77.0409 88.0324 77.256 87.971 77.3635C87.8942 77.471 87.6791 77.5631 87.5409 77.5324C87.372 77.5017 87.203 77.3635 87.0494 77.256C84.4843 75.5357 81.9346 73.7846 79.3542 72.0951C78.709 71.665 77.9718 71.3578 77.2499 71.066C77.0656 70.9892 76.6969 71.0506 76.5433 71.1888C75.7293 71.9415 74.8998 72.6941 74.1933 73.5542C73.3178 74.6141 72.3347 75.2592 70.9216 75.0134C70.5223 74.952 70.2151 75.0902 69.8925 75.3821C69.2321 75.9964 68.418 76.2576 67.5118 76.1347C67.3735 76.1193 67.2046 76.1347 67.0817 76.1961C66.1908 76.6876 65.3307 77.2099 64.4398 77.686C64.0251 77.9011 63.7794 78.1468 63.7026 78.6076C63.5182 79.7289 62.7195 80.4508 61.8901 81.0959C61.6443 81.2956 61.245 81.3417 60.9224 81.357C58.1423 81.5106 55.4697 80.9423 52.7971 80.2818C50.5085 79.7135 48.2199 79.1298 45.9006 78.6998C44.0113 78.3465 42.1067 78.5154 40.2943 79.222C40.0024 79.3295 39.8488 79.4678 39.8028 79.821C39.772 80.0821 39.557 80.4047 39.3266 80.5276C37.2377 81.7717 35.118 82.9698 33.0137 84.1832C32.9523 84.2139 32.8755 84.26 32.8141 84.2907C32.1997 84.5672 32.0154 84.4597 32.0154 83.7839C32.0154 80.3893 32.0154 76.9948 32.0154 73.6003C32.0154 70.8663 32.0307 68.1169 32 65.3829C32 64.8913 32.1382 64.6302 32.6144 64.5227C34.3654 64.1387 36.1318 63.724 37.8828 63.34C38.6047 63.125 38.4818 63.7701 38.6354 64.1694ZM42.3218 77.5171C42.8747 77.471 43.3355 77.4249 43.7963 77.4095C45.9313 77.3481 47.9895 77.8243 50.0016 78.5001C53.3654 79.6367 56.7907 80.374 60.3541 80.4661C61.3525 80.4969 61.9669 80.0975 62.4431 79.3602C62.6581 79.053 62.8117 78.6844 62.9192 78.3158C63.1342 77.5785 63.3032 76.8412 63.4568 76.0886C63.7486 74.7062 64.0098 73.3239 64.3016 71.8954C63.0574 72.1411 62.2741 72.8323 61.8901 73.9075C61.5983 74.7216 61.46 75.5817 61.1682 76.3804C60.9839 76.8873 60.6767 77.3635 60.3695 77.8089C60.2773 77.9318 59.9855 77.9164 59.7858 77.9625C59.8165 77.7782 59.8012 77.5785 59.8626 77.4095C60.0316 76.9641 60.2466 76.5187 60.4463 76.0425C60.308 76.0272 60.262 75.9964 60.2312 76.0118C59.1253 76.6723 57.9426 76.8105 56.6831 76.6108C56.4527 76.5801 56.1455 76.6723 55.9459 76.8259C55.1932 77.3788 54.3331 77.6399 53.4115 77.6707C52.2902 77.7014 51.2458 77.4863 50.401 76.6416C50.2013 76.4572 49.9095 76.2883 49.6484 76.2576C48.5578 76.15 47.713 75.5817 46.9604 74.8445C46.515 74.4144 46.5764 74.184 47.0986 73.8461C47.6209 73.5082 48.1278 73.1549 48.7729 72.7248C48.3582 72.6941 48.1124 72.6787 47.8666 72.648C47.2215 72.5559 46.6532 72.2947 46.2385 71.7725C45.8084 71.2349 45.8545 71.0045 46.3921 70.6052C48.051 69.361 49.7098 68.1323 51.3687 66.8881C51.5223 66.7652 51.6759 66.6424 51.9063 66.458C51.7219 66.458 51.6605 66.458 51.5837 66.458C51.169 66.458 50.57 66.7192 50.4624 66.1355C50.3549 65.5211 51.0461 65.5825 51.4301 65.5057C52.5821 65.2293 53.7187 64.8453 54.6096 64.0773C56.038 62.8639 57.6508 62.1727 59.4633 61.7887C60.7381 61.5122 61.9208 60.9132 62.8424 59.9148C63.5029 59.1929 63.8869 58.3481 63.9483 57.3958C63.9637 57.1193 63.7026 56.7967 63.4875 56.5663C63.4107 56.4895 63.0728 56.6431 62.8731 56.7353C61.9362 57.1654 61.0453 57.703 60.0777 58.0409C58.2191 58.686 56.2684 58.7014 54.3331 58.6706C52.8125 58.6399 51.4608 59.0546 50.232 60.0377C49.0647 60.9592 47.7898 61.7733 46.4996 62.5259C44.7332 63.5704 42.8133 64.2155 40.6783 64.5381C41.2312 68.8695 41.7688 73.1549 42.3218 77.5171ZM51.4762 75.7968C52.8278 76.5955 53.9798 76.4112 55.1932 75.3513C56.975 73.8 58.7567 72.264 60.5231 70.6973C60.646 70.5898 60.7381 70.3748 60.7074 70.2212C60.5384 69.3303 59.3404 68.8388 58.6338 69.3918C57.7583 70.0522 56.8828 70.7127 56.0841 71.45C54.5481 72.8477 53.0582 74.3069 51.4762 75.7968ZM39.7413 78.4387C40.11 78.2851 40.3864 78.1468 40.6936 78.07C41.3234 77.9164 41.4309 77.5785 41.3387 76.9488C41.0008 74.6755 40.7243 72.4023 40.4479 70.1137C40.2328 68.3473 40.0485 66.5809 39.8488 64.7992C39.6952 64.8145 39.5877 64.8299 39.4648 64.8453C38.6661 64.9989 38.6508 64.9989 38.7122 65.8129C38.9119 68.6238 39.1116 71.4192 39.3266 74.2301C39.4341 75.6125 39.6031 76.9795 39.7413 78.4387ZM67.8804 75.2285C68.6023 75.2745 69.2781 74.9673 69.6929 74.2915C70.0001 73.8 70.2305 73.2317 70.3841 72.6787C70.553 72.049 70.5684 71.3885 70.6759 70.7588C70.9063 69.2689 71.1674 67.779 71.3978 66.2891C71.4439 66.028 71.5514 65.7361 71.1367 65.6593C70.1537 65.4904 68.8788 66.5656 68.7713 67.5793C68.5102 70.0983 68.1876 72.6173 67.8804 75.2285ZM67.9879 67.8097C67.5732 68.0401 67.266 68.1323 67.0817 68.3473C66.7131 68.7313 66.3137 69.146 66.114 69.6221C65.6072 70.897 65.131 72.1872 64.7624 73.5082C64.4552 74.5834 64.3323 75.7046 64.1019 76.918C64.5473 76.7184 64.8545 76.5648 65.1771 76.4572C66.5134 75.9657 67.1431 74.952 67.2967 73.585C67.4196 72.5405 67.5425 71.496 67.6654 70.4516C67.7729 69.6221 67.8651 68.8081 67.9879 67.8097ZM70.9524 74.2454C71.8279 74.399 72.5805 74.0918 73.2256 73.416C74.2547 72.3408 75.3145 71.281 76.359 70.2365C76.743 69.8525 76.6816 69.4378 76.1747 69.2689C75.8675 69.1767 75.5296 69.1614 75.207 69.1767C73.84 69.2842 72.7955 70.1137 71.6743 70.7588C71.5668 70.8202 71.5207 71.0045 71.49 71.1581C71.3056 72.1565 71.1367 73.1703 70.9524 74.2454ZM59.3557 68.2705C60.1084 68.4702 60.7842 68.762 61.245 69.4071C61.3372 69.53 61.5675 69.5453 61.7365 69.6221C61.7979 69.4225 61.9515 69.2074 61.9055 69.0385C61.7211 68.3934 61.2604 67.9479 60.6306 67.7483C60.093 67.5793 59.6476 67.7175 59.3557 68.2705Z"/>
</mask>
<path d="M38.6354 64.1694C41.477 63.6165 44.1803 62.7717 46.6993 61.4047C47.6209 60.8978 48.4657 60.2681 49.3258 59.6537C50.3396 58.9318 51.3226 58.133 52.5974 57.9334C53.3501 57.8258 54.1334 57.7951 54.8861 57.8105C56.591 57.8412 58.2806 57.749 59.878 57.1654C60.861 56.7967 61.7826 56.2131 62.6888 55.6601C63.0267 55.4451 63.2878 55.399 63.6258 55.5526C64.7009 56.0595 65.0849 56.6892 64.8392 57.8412C64.6702 58.6092 64.3323 59.3465 64.0712 60.1145C64.7777 59.9455 65.5611 59.7919 66.3444 59.5769C69.6007 58.7167 72.7495 59.2543 75.8214 60.4216C79.4156 61.7887 82.9944 63.2325 86.5732 64.6456C86.6961 64.6917 86.8651 64.7224 86.9265 64.8145C87.034 64.9374 87.1569 65.1525 87.1108 65.2753C87.0648 65.4136 86.8344 65.5518 86.6808 65.5518C86.5118 65.5672 86.3121 65.4597 86.1432 65.3675C82.38 63.6626 78.5094 62.2648 74.608 60.9285C71.3517 59.8073 68.1415 59.7919 64.8853 60.7596C63.7486 61.0975 62.612 61.3893 61.5675 62.0037C60.9378 62.3723 60.2005 62.6335 59.4786 62.8024C57.7737 63.2018 56.3299 64.0619 54.9628 65.1217C52.4131 67.1031 49.8634 69.0692 47.329 71.0352C47.2062 71.1274 47.0986 71.2196 46.9451 71.3578C47.7591 71.9108 48.6346 71.9415 49.4641 71.6957C50.0631 71.5114 50.6621 71.1735 51.1536 70.7741C53.089 69.1921 54.9168 67.4871 56.8982 65.9819C57.9887 65.1525 59.325 64.6149 60.5538 63.9698C60.7074 63.893 60.9839 64.0158 61.1989 64.0466C61.0607 64.2155 60.9532 64.4459 60.7842 64.5381C59.0178 65.3675 57.4204 66.458 55.9152 67.6868C53.1965 69.8986 50.7389 72.433 47.713 74.353C48.481 75.1209 49.4026 75.2131 50.2935 74.952C50.9386 74.7677 51.5683 74.4144 52.0752 73.9843C54.1181 72.2794 56.1148 70.513 58.1116 68.7466C58.2652 68.6084 58.4034 68.3934 58.4802 68.1937C58.7721 67.4103 59.3404 67.0263 60.1544 66.9035C60.5692 66.842 60.9839 66.7192 61.3986 66.5809C61.8747 66.4273 62.3202 66.2123 62.7963 66.074C62.9192 66.0433 63.0882 66.1508 63.2418 66.1969C63.165 66.3352 63.1189 66.5195 62.996 66.5809C62.5506 66.842 62.0898 67.0724 61.6904 67.2875C62.1051 67.8711 62.4891 68.4241 62.9192 69.0078C63.2725 68.8388 63.7026 68.6084 64.148 68.4394C64.2862 68.3934 64.4705 68.4855 64.6395 68.5162C64.5934 68.6852 64.5934 68.9002 64.4705 69.0078C64.2709 69.2074 63.9944 69.3303 63.7486 69.4839C61.3218 71.0506 58.9871 72.7248 56.9596 74.783C56.8214 74.9213 56.6985 75.0595 56.5295 75.2438C57.3436 75.5664 58.1116 75.4742 58.8489 75.1824C59.9394 74.7369 60.8303 74.0458 61.4447 73.0167C62.0744 71.9876 62.8731 71.1735 64.2094 71.0967C64.3323 71.0967 64.4552 70.8663 64.532 70.7127C64.8699 70.0061 65.131 69.2535 65.5304 68.593C66.0065 67.779 66.7591 67.2414 67.6961 66.9803C67.8958 66.9188 68.0801 66.7192 68.203 66.5348C68.8942 65.4443 69.8772 64.876 71.1674 64.8606C71.9661 64.8453 72.3962 65.3214 72.2579 66.1201C72.1043 67.011 71.8893 67.8865 71.7204 68.762C71.6589 69.0538 71.6589 69.361 71.6128 69.7604C71.8279 69.6375 71.9661 69.53 72.1197 69.4686C73.0567 69.0999 73.9782 68.6852 74.9459 68.3934C75.3145 68.2705 75.7907 68.3626 76.19 68.4548C77.0963 68.6545 77.3881 69.0846 77.4495 70.0983C81.0898 71.9261 84.3 74.3683 87.6177 76.6416C87.7252 76.7184 87.8635 76.7952 87.9249 76.9027C87.9863 77.0409 88.0324 77.256 87.971 77.3635C87.8942 77.471 87.6791 77.5631 87.5409 77.5324C87.372 77.5017 87.203 77.3635 87.0494 77.256C84.4843 75.5357 81.9346 73.7846 79.3542 72.0951C78.709 71.665 77.9718 71.3578 77.2499 71.066C77.0656 70.9892 76.6969 71.0506 76.5433 71.1888C75.7293 71.9415 74.8998 72.6941 74.1933 73.5542C73.3178 74.6141 72.3347 75.2592 70.9216 75.0134C70.5223 74.952 70.2151 75.0902 69.8925 75.3821C69.2321 75.9964 68.418 76.2576 67.5118 76.1347C67.3735 76.1193 67.2046 76.1347 67.0817 76.1961C66.1908 76.6876 65.3307 77.2099 64.4398 77.686C64.0251 77.9011 63.7794 78.1468 63.7026 78.6076C63.5182 79.7289 62.7195 80.4508 61.8901 81.0959C61.6443 81.2956 61.245 81.3417 60.9224 81.357C58.1423 81.5106 55.4697 80.9423 52.7971 80.2818C50.5085 79.7135 48.2199 79.1298 45.9006 78.6998C44.0113 78.3465 42.1067 78.5154 40.2943 79.222C40.0024 79.3295 39.8488 79.4678 39.8028 79.821C39.772 80.0821 39.557 80.4047 39.3266 80.5276C37.2377 81.7717 35.118 82.9698 33.0137 84.1832C32.9523 84.2139 32.8755 84.26 32.8141 84.2907C32.1997 84.5672 32.0154 84.4597 32.0154 83.7839C32.0154 80.3893 32.0154 76.9948 32.0154 73.6003C32.0154 70.8663 32.0307 68.1169 32 65.3829C32 64.8913 32.1382 64.6302 32.6144 64.5227C34.3654 64.1387 36.1318 63.724 37.8828 63.34C38.6047 63.125 38.4818 63.7701 38.6354 64.1694ZM42.3218 77.5171C42.8747 77.471 43.3355 77.4249 43.7963 77.4095C45.9313 77.3481 47.9895 77.8243 50.0016 78.5001C53.3654 79.6367 56.7907 80.374 60.3541 80.4661C61.3525 80.4969 61.9669 80.0975 62.4431 79.3602C62.6581 79.053 62.8117 78.6844 62.9192 78.3158C63.1342 77.5785 63.3032 76.8412 63.4568 76.0886C63.7486 74.7062 64.0098 73.3239 64.3016 71.8954C63.0574 72.1411 62.2741 72.8323 61.8901 73.9075C61.5983 74.7216 61.46 75.5817 61.1682 76.3804C60.9839 76.8873 60.6767 77.3635 60.3695 77.8089C60.2773 77.9318 59.9855 77.9164 59.7858 77.9625C59.8165 77.7782 59.8012 77.5785 59.8626 77.4095C60.0316 76.9641 60.2466 76.5187 60.4463 76.0425C60.308 76.0272 60.262 75.9964 60.2312 76.0118C59.1253 76.6723 57.9426 76.8105 56.6831 76.6108C56.4527 76.5801 56.1455 76.6723 55.9459 76.8259C55.1932 77.3788 54.3331 77.6399 53.4115 77.6707C52.2902 77.7014 51.2458 77.4863 50.401 76.6416C50.2013 76.4572 49.9095 76.2883 49.6484 76.2576C48.5578 76.15 47.713 75.5817 46.9604 74.8445C46.515 74.4144 46.5764 74.184 47.0986 73.8461C47.6209 73.5082 48.1278 73.1549 48.7729 72.7248C48.3582 72.6941 48.1124 72.6787 47.8666 72.648C47.2215 72.5559 46.6532 72.2947 46.2385 71.7725C45.8084 71.2349 45.8545 71.0045 46.3921 70.6052C48.051 69.361 49.7098 68.1323 51.3687 66.8881C51.5223 66.7652 51.6759 66.6424 51.9063 66.458C51.7219 66.458 51.6605 66.458 51.5837 66.458C51.169 66.458 50.57 66.7192 50.4624 66.1355C50.3549 65.5211 51.0461 65.5825 51.4301 65.5057C52.5821 65.2293 53.7187 64.8453 54.6096 64.0773C56.038 62.8639 57.6508 62.1727 59.4633 61.7887C60.7381 61.5122 61.9208 60.9132 62.8424 59.9148C63.5029 59.1929 63.8869 58.3481 63.9483 57.3958C63.9637 57.1193 63.7026 56.7967 63.4875 56.5663C63.4107 56.4895 63.0728 56.6431 62.8731 56.7353C61.9362 57.1654 61.0453 57.703 60.0777 58.0409C58.2191 58.686 56.2684 58.7014 54.3331 58.6706C52.8125 58.6399 51.4608 59.0546 50.232 60.0377C49.0647 60.9592 47.7898 61.7733 46.4996 62.5259C44.7332 63.5704 42.8133 64.2155 40.6783 64.5381C41.2312 68.8695 41.7688 73.1549 42.3218 77.5171ZM51.4762 75.7968C52.8278 76.5955 53.9798 76.4112 55.1932 75.3513C56.975 73.8 58.7567 72.264 60.5231 70.6973C60.646 70.5898 60.7381 70.3748 60.7074 70.2212C60.5384 69.3303 59.3404 68.8388 58.6338 69.3918C57.7583 70.0522 56.8828 70.7127 56.0841 71.45C54.5481 72.8477 53.0582 74.3069 51.4762 75.7968ZM39.7413 78.4387C40.11 78.2851 40.3864 78.1468 40.6936 78.07C41.3234 77.9164 41.4309 77.5785 41.3387 76.9488C41.0008 74.6755 40.7243 72.4023 40.4479 70.1137C40.2328 68.3473 40.0485 66.5809 39.8488 64.7992C39.6952 64.8145 39.5877 64.8299 39.4648 64.8453C38.6661 64.9989 38.6508 64.9989 38.7122 65.8129C38.9119 68.6238 39.1116 71.4192 39.3266 74.2301C39.4341 75.6125 39.6031 76.9795 39.7413 78.4387ZM67.8804 75.2285C68.6023 75.2745 69.2781 74.9673 69.6929 74.2915C70.0001 73.8 70.2305 73.2317 70.3841 72.6787C70.553 72.049 70.5684 71.3885 70.6759 70.7588C70.9063 69.2689 71.1674 67.779 71.3978 66.2891C71.4439 66.028 71.5514 65.7361 71.1367 65.6593C70.1537 65.4904 68.8788 66.5656 68.7713 67.5793C68.5102 70.0983 68.1876 72.6173 67.8804 75.2285ZM67.9879 67.8097C67.5732 68.0401 67.266 68.1323 67.0817 68.3473C66.7131 68.7313 66.3137 69.146 66.114 69.6221C65.6072 70.897 65.131 72.1872 64.7624 73.5082C64.4552 74.5834 64.3323 75.7046 64.1019 76.918C64.5473 76.7184 64.8545 76.5648 65.1771 76.4572C66.5134 75.9657 67.1431 74.952 67.2967 73.585C67.4196 72.5405 67.5425 71.496 67.6654 70.4516C67.7729 69.6221 67.8651 68.8081 67.9879 67.8097ZM70.9524 74.2454C71.8279 74.399 72.5805 74.0918 73.2256 73.416C74.2547 72.3408 75.3145 71.281 76.359 70.2365C76.743 69.8525 76.6816 69.4378 76.1747 69.2689C75.8675 69.1767 75.5296 69.1614 75.207 69.1767C73.84 69.2842 72.7955 70.1137 71.6743 70.7588C71.5668 70.8202 71.5207 71.0045 71.49 71.1581C71.3056 72.1565 71.1367 73.1703 70.9524 74.2454ZM59.3557 68.2705C60.1084 68.4702 60.7842 68.762 61.245 69.4071C61.3372 69.53 61.5675 69.5453 61.7365 69.6221C61.7979 69.4225 61.9515 69.2074 61.9055 69.0385C61.7211 68.3934 61.2604 67.9479 60.6306 67.7483C60.093 67.5793 59.6476 67.7175 59.3557 68.2705Z" fill="white" stroke="white" stroke-width="2" mask="url(#path-2-inside-1_276_1634)"/>
<path d="M52.2022 35.8543L52.201 35.8547C50.061 36.638 48.7452 38.5249 48.7202 40.8424C48.7374 40.9954 48.7496 41.1357 48.7612 41.2692C48.7831 41.5198 48.8028 41.7463 48.8492 41.9876L48.8506 41.9949L48.8506 41.9949C49.1301 43.5743 50.0825 44.8037 51.2733 45.9797C53.2906 47.9445 55.701 49.3677 58.1656 50.8229C58.5446 51.0466 58.9249 51.2712 59.3052 51.4985L59.3086 51.5006C59.3711 51.5386 59.5198 51.5803 59.7326 51.5756C59.9389 51.5711 60.1239 51.5244 60.231 51.4687L60.2371 51.4655L60.2371 51.4656C63.0567 50.0482 65.7249 48.4164 67.9772 46.2242L67.9774 46.2239C69.0414 45.1899 69.938 44.0666 70.4548 42.7173L70.4552 42.7162C71.9043 38.9599 69.0155 35.1518 65.0268 35.5448L52.2022 35.8543ZM52.2022 35.8543C54.4577 35.0226 56.926 35.6803 58.5293 37.5675L58.5354 37.5747M52.2022 35.8543L58.5354 37.5747M58.5354 37.5747L58.5418 37.5816M58.5354 37.5747L58.5418 37.5816M58.5418 37.5816C58.6365 37.6849 58.7073 37.7831 58.7935 37.9024M58.5418 37.5816L58.7935 37.9024M58.7935 37.9024C58.8448 37.9736 58.9017 38.0524 58.9722 38.1442M58.7935 37.9024L58.9722 38.1442M58.9722 38.1442C59.0651 38.2692 59.1672 38.3942 59.2798 38.4905C59.3938 38.5878 59.5719 38.7015 59.807 38.6979C60.0425 38.6943 60.2173 38.5748 60.3285 38.4731C60.4384 38.3726 60.5366 38.2434 60.6257 38.114C61.7108 36.5879 63.1626 35.7299 65.0267 35.5449L58.9722 38.1442Z" fill="white" stroke="white"/>
<defs>
<linearGradient id="paint0_linear_276_1634" x1="60" y1="0.000732422" x2="60" y2="120.001" gradientUnits="userSpaceOnUse">
<stop stop-color="#BE2D87"/>
<stop offset="1" stop-color="#F74989"/>
</linearGradient>
</defs>
</svg>
