<svg width="16" height="15" viewBox="0 0 16 15" fill="none" xmlns="http://www.w3.org/2000/svg">
<path d="M0.190914 4.67994H3.41741V14.3895H0.190914V4.67994ZM1.82576 -0.000488281C0.721464 -0.000488281 0 0.724489 0 1.67605C0 2.60803 0.700351 3.35409 1.78353 3.35409H1.80411C2.92952 3.35409 3.63037 2.608 3.63037 1.67605C3.60926 0.724489 2.92955 -0.000488281 1.82576 -0.000488281ZM11.3394 4.45186C9.62669 4.45186 8.85942 5.39388 8.43139 6.05451V4.67994H5.20392C5.24665 5.59082 5.20392 14.3895 5.20392 14.3895H8.43139V8.96701C8.43139 8.67658 8.4525 8.38724 8.53742 8.17919C8.7711 7.59942 9.30211 6.99905 10.1928 6.99905C11.3615 6.99905 11.8282 7.88985 11.8282 9.19452V14.3895H15.0552V8.82183C15.0552 5.83951 13.4635 4.45186 11.3394 4.45186Z" fill="#0A142F"/>
</svg>
