<svg width="120" height="120" viewBox="0 0 120 120" fill="none" xmlns="http://www.w3.org/2000/svg">
<circle cx="60" cy="60.0007" r="60" fill="url(#paint0_linear_302_136)"/>
<mask id="path-2-inside-1_302_136" fill="white">
<path d="M43.7511 32.0146C43.9844 32.277 44.2468 32.5394 44.4655 32.8165C45.7631 34.5368 47.0461 36.2572 48.3437 37.9776C48.4603 38.138 48.5769 38.2984 48.7081 38.5025C48.2416 38.8524 47.7896 39.1877 47.3231 39.5376C45.9526 37.7298 44.6259 35.9802 43.3283 34.2015C43.0804 33.8662 42.8326 33.7495 42.4244 33.7495C39.7417 33.7787 37.0591 33.7641 34.3765 33.7641C34.2015 33.7641 34.0266 33.7641 33.7933 33.7641C33.7933 33.9828 33.7933 34.1724 33.7933 34.3473C33.7933 39.1586 33.7933 43.9698 33.8079 48.781C33.8079 49.0726 33.8953 49.3934 34.0411 49.6412C35.2075 51.5366 36.3884 53.4173 37.584 55.3273C42.5993 52.4259 47.5855 49.5392 52.6009 46.6233C52.1198 45.9818 51.697 45.3986 51.245 44.7863C51.7261 44.4218 52.1635 44.101 52.63 43.7365C53.3007 44.6405 53.9568 45.4861 54.5837 46.3608C54.919 46.8274 54.8024 47.2939 54.3213 47.6293C54.1901 47.7167 54.0443 47.8042 53.913 47.8917C54.9336 49.7433 54.9336 49.7433 53.7235 50.6764C56.5665 53.811 59.9927 56.2749 63.171 59.1179C63.7105 58.6368 64.2062 58.1703 64.6436 57.7766C64.2791 56.7269 63.8271 55.7792 63.5939 54.7878C63.171 52.9945 64.3811 51.7844 66.189 52.2072C67.1075 52.4259 67.9969 52.8487 68.8716 53.2424C69.2361 53.4173 69.4403 53.4173 69.761 53.1403C72.2833 51.0117 74.2223 48.3874 76.1906 45.7922C79.5147 41.4038 82.8534 37.0445 86.1921 32.6707C86.3817 32.4228 86.6004 32.2187 86.8045 32C87.2127 32 87.6063 32 88.0146 32C88.0146 39.698 88.0146 47.3814 88.0146 55.0794C87.8542 55.2544 87.7084 55.4293 87.5335 55.5897C86.1921 56.8581 84.8654 58.1119 83.5241 59.3804C82.139 60.6925 80.754 62.0047 79.3543 63.3168C79.6022 63.7688 79.8792 64.1479 80.0687 64.5853C80.4041 65.4017 80.7831 66.2328 80.9581 67.0929C81.2934 68.755 80.1416 69.8776 78.465 69.5715C77.8672 69.4548 77.2549 69.2799 76.7009 69.032C75.9573 68.7113 75.2575 68.2885 74.5139 67.8948C74.1203 68.2593 73.7558 68.6675 73.3184 69.0029C72.7935 69.3965 72.6332 69.7902 72.9248 70.4462C73.435 71.6563 72.9977 72.8227 72.6186 74.0036C72.2833 75.0388 71.7876 75.8552 70.6795 76.1468C71.2918 78.3338 70.0526 79.8355 68.1572 80.0687C69.5569 83.0867 68.6238 84.9966 65.6058 85.3028C65.4163 86.7316 64.5561 87.5918 63.2002 88C62.5879 88 61.9609 88 61.334 88C59.8178 87.5918 59.1908 86.1921 58.214 85.0404C57.6308 86.4254 56.7269 87.1544 55.2106 87.1398C53.7818 87.1398 52.6738 86.7462 52.1635 85.3028C50.2827 85.5944 49.0872 84.8362 48.5769 82.4889C46.6524 83.0721 45.4278 82.591 44.378 80.8706C43.372 79.194 42.3806 77.5319 41.3746 75.8552C40.6165 74.5868 40.0479 73.2455 39.9604 71.7584C39.8729 70.2713 39.975 68.7696 39.8584 67.2825C39.6397 64.5998 40.0771 62.0776 41.3309 59.7011C41.5788 59.2346 41.4913 58.8847 41.1559 58.5056C40.981 58.6077 40.806 58.7097 40.6457 58.8118C39.8146 59.3221 39.4939 59.2492 38.9399 58.4181C38.6337 57.9662 38.3421 57.5288 38.0505 57.0914C37.0737 57.5433 36.8258 57.4704 36.2864 56.6103C35.6157 55.546 34.9596 54.4816 34.289 53.4173C33.5309 52.2218 32.7727 51.0263 32 49.8454C32.0437 43.9115 32.0437 37.9776 32.0437 32.0146C35.9365 32.0146 39.8438 32.0146 43.7511 32.0146ZM42.7305 57.5433C42.8618 57.8204 42.9492 58.0391 43.0804 58.2286C43.4595 58.7972 43.4449 59.3512 43.1679 59.9781C42.6868 61.057 42.264 62.1651 41.8412 63.2731C41.7391 63.5355 41.6808 63.8271 41.6808 64.1187C41.6662 66.3056 41.6808 68.4926 41.6808 70.6795C41.6808 72.0791 42.0016 73.3913 42.716 74.5868C43.824 76.4822 44.9758 78.3775 46.113 80.2583C46.2442 80.477 46.4483 80.6373 46.6087 80.8269C46.6524 80.7977 46.6816 80.7686 46.7253 80.7394C46.6524 80.6082 46.565 80.477 46.4921 80.3457C46.113 79.6751 45.9089 78.9461 46.1567 78.2025C46.3463 77.6339 46.1421 77.3861 45.7048 77.0799C44.1885 76.0156 43.8823 74.2952 44.9175 72.779C45.0924 72.5165 45.0924 72.3562 44.9175 72.1083C44.4655 71.4668 44.0427 70.8107 43.5907 70.1255C44.0864 69.7902 44.553 69.484 45.0049 69.1924C45.0778 69.2507 45.107 69.2653 45.1362 69.2945C45.5152 69.8485 45.8943 70.4171 46.2588 70.9711C46.7108 71.6563 47.0607 71.7147 47.7751 71.2481C48.2999 70.8982 48.8539 70.5629 49.3496 70.1692C50.5306 69.1924 52.4405 69.5569 53.1695 71.0003C53.3444 71.3502 53.5631 71.4231 53.9276 71.4376C55.2398 71.496 56.202 72.3562 56.5082 73.6392C56.6977 74.4264 56.479 75.1263 56.1437 75.8261C57.8349 76.4238 58.5056 77.6048 58.2723 79.296C60.051 79.9667 60.503 81.1914 59.5845 82.7951C59.5116 82.9263 59.4095 83.043 59.3804 83.1742C59.3512 83.32 59.3366 83.5095 59.4095 83.6116C59.949 84.3697 60.503 85.1133 61.0862 85.8422C61.5236 86.3817 62.8503 86.4546 63.4189 86.0172C64.0021 85.5798 64.0167 84.982 63.4772 84.1364C61.8881 81.6287 60.2843 79.1356 58.6951 76.628C58.5931 76.453 58.4764 76.2926 58.389 76.1031C58.1994 75.6803 58.3306 75.3012 58.6951 75.0534C59.0742 74.7909 59.4678 74.8347 59.7886 75.1554C59.9344 75.2866 60.0364 75.4762 60.1385 75.6366C61.611 77.9547 63.0836 80.2728 64.5707 82.591C64.7019 82.7951 64.8331 82.9992 64.9935 83.1596C65.4309 83.597 66.087 83.6407 66.5972 83.3054C67.1075 82.9701 67.3116 82.3431 67.0929 81.7745C67.02 81.5704 66.8888 81.3809 66.7722 81.2059C65.1976 78.7274 63.623 76.2635 62.0484 73.785C61.6694 73.1872 61.7277 72.6915 62.1796 72.3999C62.617 72.1083 63.0836 72.2395 63.4918 72.779C64.2499 73.785 64.9935 74.7909 65.7516 75.7969C66.2765 76.4967 66.7868 77.1966 67.3408 77.8818C67.6615 78.2754 68.0844 78.4067 68.5509 78.188C69.0029 77.9693 69.207 77.5902 69.1049 77.1091C69.0612 76.8758 68.9008 76.6425 68.7696 76.4384C67.4574 74.4556 66.1307 72.4728 64.804 70.4754C64.7019 70.3296 64.5998 70.1692 64.5269 70.0089C64.3228 69.586 64.4395 69.207 64.804 68.9445C65.1684 68.6675 65.5621 68.7113 65.8974 69.0174C66.0286 69.1341 66.1307 69.2945 66.2327 69.4403C67.3408 70.9857 68.4197 72.5311 69.5569 74.0474C69.7027 74.2515 70.038 74.4556 70.2567 74.4119C70.4754 74.3827 70.7232 74.0911 70.8399 73.8724C71.0148 73.5225 71.0877 73.1143 71.2335 72.7352C71.6272 71.7001 71.4085 70.7961 70.7378 69.936C69.3673 68.1572 68.0552 66.3494 66.7139 64.5707C66.4806 64.2645 66.2327 63.9729 65.9412 63.7251C61.4652 59.774 56.6394 56.2166 52.4697 51.9156C52.2218 51.6678 52.0614 51.7407 51.8136 51.8865C50.6618 52.6155 49.4954 53.3299 48.3437 54.0588C46.4775 55.196 44.6259 56.3478 42.7305 57.5433ZM74.3973 65.5621C74.4556 65.5184 74.4848 65.5038 74.5139 65.4892C78.3483 61.8735 82.1682 58.2577 85.988 54.642C86.163 54.4816 86.265 54.1755 86.265 53.9422C86.2796 47.9792 86.2796 42.0307 86.2796 36.0677C86.2796 35.9365 86.2796 35.7907 86.2796 35.5282C86.0901 35.7615 85.9734 35.8927 85.8568 36.024C83.2616 39.4501 80.6082 42.8326 78.0713 46.3025C75.3887 49.962 72.4582 53.3736 68.9591 56.2895C68.303 56.829 67.6907 57.4267 67.0638 57.9953C68.0989 59.9052 72.1375 64.075 74.3973 65.5621ZM47.6147 78.8003C47.9063 79.2085 48.0666 79.6751 48.402 79.85C48.8394 80.0833 49.3934 80.2437 49.9037 79.8792C51.8282 78.4941 53.2424 76.6425 54.642 74.7764C54.9773 74.3244 54.8024 73.6829 54.3796 73.3476C53.9276 72.9977 53.4757 73.0851 52.98 73.5517C51.4783 74.9951 50.1953 76.6717 48.3437 77.7652C48.0375 77.9547 47.9063 78.3921 47.6147 78.8003ZM51.3325 83.699C51.6095 83.5824 51.799 83.5095 51.974 83.422C53.8985 82.4889 55.0794 80.7831 56.3332 79.1648C56.654 78.742 56.5811 78.2317 56.2312 77.8672C55.8813 77.4882 55.3273 77.4007 54.8899 77.6777C54.7149 77.7797 54.5691 77.911 54.4379 78.0713C53.359 79.3252 52.2072 80.4915 50.9242 81.5558C50.793 81.6579 50.691 81.7745 50.5889 81.9058C50.2682 82.3286 50.4431 82.7659 50.6618 83.1304C50.8076 83.3491 51.1138 83.5095 51.3325 83.699ZM64.5561 60.2551C64.804 60.4738 64.9935 60.6488 65.1976 60.7946C66.8888 62.063 68.2885 63.5793 69.3819 65.4017C69.9943 66.4077 70.8399 67.2825 71.598 68.2447C72.1229 67.7344 72.604 67.2825 73.0268 66.8743C71.7001 65.6496 70.3588 64.4978 69.1341 63.2294C67.9094 61.9755 66.8014 60.605 65.635 59.2637C65.3142 59.5845 64.9643 59.8907 64.5561 60.2551ZM47.4835 76.2052C47.9646 75.8698 48.4603 75.622 48.8394 75.2429C49.7141 74.3973 50.5306 73.4934 51.4054 72.6332C51.7407 72.2978 51.8136 72.0062 51.4928 71.6418C51.1721 71.2773 50.8076 71.2627 50.4285 71.496C50.1224 71.6855 49.8308 71.9042 49.5246 72.1083C48.7665 72.6186 48.0521 73.2164 47.0461 73.2747C46.5358 73.3038 46.2005 73.7558 46.0838 74.2661C45.9672 74.7764 46.1567 75.1992 46.5504 75.5199C46.8274 75.7678 47.1336 75.9719 47.4835 76.2052ZM52.6446 49.2768C52.4842 48.7227 52.2364 48.8539 51.9302 49.0435C48.7373 50.8951 45.5444 52.7467 42.3515 54.5983C41.4475 55.1231 40.529 55.648 39.5959 56.202C39.8001 56.5082 39.975 56.7706 40.1791 57.0768C44.3489 54.4671 48.4895 51.8719 52.6446 49.2768ZM55.1815 85.3757C55.7938 85.5069 56.2166 85.1861 56.5228 84.5738C57.0039 83.6407 57.5725 82.7368 58.0682 81.8183C58.1703 81.6433 58.0974 81.3809 58.1119 81.1476C57.8349 81.133 57.5579 81.0893 57.2955 81.1476C57.1643 81.1768 57.0622 81.3663 56.9456 81.4829C56.0417 82.4306 55.1377 83.3783 54.263 84.3405C54.1026 84.5155 53.8985 84.8654 53.9568 84.9383C54.1172 85.1424 54.3942 85.259 54.6566 85.3611C54.7878 85.4194 54.9482 85.3757 55.1815 85.3757ZM78.1442 64.4686C77.2986 65.2705 76.5988 65.9266 75.7969 66.6847C76.7883 67.1075 77.6485 67.5303 78.5525 67.8365C79.1648 68.0552 79.4127 67.8073 79.2085 67.195C78.9315 66.3056 78.5379 65.46 78.1442 64.4686ZM68.0844 54.6858C67.2242 54.3942 66.4952 54.1172 65.7662 53.8985C65.3871 53.7818 65.183 54.0005 65.2997 54.365C65.5038 55.0648 65.7516 55.7646 66.0141 56.5519C66.7285 55.925 67.3262 55.371 68.0844 54.6858Z"/>
</mask>
<path d="M43.7511 32.0146C43.9844 32.277 44.2468 32.5394 44.4655 32.8165C45.7631 34.5368 47.0461 36.2572 48.3437 37.9776C48.4603 38.138 48.5769 38.2984 48.7081 38.5025C48.2416 38.8524 47.7896 39.1877 47.3231 39.5376C45.9526 37.7298 44.6259 35.9802 43.3283 34.2015C43.0804 33.8662 42.8326 33.7495 42.4244 33.7495C39.7417 33.7787 37.0591 33.7641 34.3765 33.7641C34.2015 33.7641 34.0266 33.7641 33.7933 33.7641C33.7933 33.9828 33.7933 34.1724 33.7933 34.3473C33.7933 39.1586 33.7933 43.9698 33.8079 48.781C33.8079 49.0726 33.8953 49.3934 34.0411 49.6412C35.2075 51.5366 36.3884 53.4173 37.584 55.3273C42.5993 52.4259 47.5855 49.5392 52.6009 46.6233C52.1198 45.9818 51.697 45.3986 51.245 44.7863C51.7261 44.4218 52.1635 44.101 52.63 43.7365C53.3007 44.6405 53.9568 45.4861 54.5837 46.3608C54.919 46.8274 54.8024 47.2939 54.3213 47.6293C54.1901 47.7167 54.0443 47.8042 53.913 47.8917C54.9336 49.7433 54.9336 49.7433 53.7235 50.6764C56.5665 53.811 59.9927 56.2749 63.171 59.1179C63.7105 58.6368 64.2062 58.1703 64.6436 57.7766C64.2791 56.7269 63.8271 55.7792 63.5939 54.7878C63.171 52.9945 64.3811 51.7844 66.189 52.2072C67.1075 52.4259 67.9969 52.8487 68.8716 53.2424C69.2361 53.4173 69.4403 53.4173 69.761 53.1403C72.2833 51.0117 74.2223 48.3874 76.1906 45.7922C79.5147 41.4038 82.8534 37.0445 86.1921 32.6707C86.3817 32.4228 86.6004 32.2187 86.8045 32C87.2127 32 87.6063 32 88.0146 32C88.0146 39.698 88.0146 47.3814 88.0146 55.0794C87.8542 55.2544 87.7084 55.4293 87.5335 55.5897C86.1921 56.8581 84.8654 58.1119 83.5241 59.3804C82.139 60.6925 80.754 62.0047 79.3543 63.3168C79.6022 63.7688 79.8792 64.1479 80.0687 64.5853C80.4041 65.4017 80.7831 66.2328 80.9581 67.0929C81.2934 68.755 80.1416 69.8776 78.465 69.5715C77.8672 69.4548 77.2549 69.2799 76.7009 69.032C75.9573 68.7113 75.2575 68.2885 74.5139 67.8948C74.1203 68.2593 73.7558 68.6675 73.3184 69.0029C72.7935 69.3965 72.6332 69.7902 72.9248 70.4462C73.435 71.6563 72.9977 72.8227 72.6186 74.0036C72.2833 75.0388 71.7876 75.8552 70.6795 76.1468C71.2918 78.3338 70.0526 79.8355 68.1572 80.0687C69.5569 83.0867 68.6238 84.9966 65.6058 85.3028C65.4163 86.7316 64.5561 87.5918 63.2002 88C62.5879 88 61.9609 88 61.334 88C59.8178 87.5918 59.1908 86.1921 58.214 85.0404C57.6308 86.4254 56.7269 87.1544 55.2106 87.1398C53.7818 87.1398 52.6738 86.7462 52.1635 85.3028C50.2827 85.5944 49.0872 84.8362 48.5769 82.4889C46.6524 83.0721 45.4278 82.591 44.378 80.8706C43.372 79.194 42.3806 77.5319 41.3746 75.8552C40.6165 74.5868 40.0479 73.2455 39.9604 71.7584C39.8729 70.2713 39.975 68.7696 39.8584 67.2825C39.6397 64.5998 40.0771 62.0776 41.3309 59.7011C41.5788 59.2346 41.4913 58.8847 41.1559 58.5056C40.981 58.6077 40.806 58.7097 40.6457 58.8118C39.8146 59.3221 39.4939 59.2492 38.9399 58.4181C38.6337 57.9662 38.3421 57.5288 38.0505 57.0914C37.0737 57.5433 36.8258 57.4704 36.2864 56.6103C35.6157 55.546 34.9596 54.4816 34.289 53.4173C33.5309 52.2218 32.7727 51.0263 32 49.8454C32.0437 43.9115 32.0437 37.9776 32.0437 32.0146C35.9365 32.0146 39.8438 32.0146 43.7511 32.0146ZM42.7305 57.5433C42.8618 57.8204 42.9492 58.0391 43.0804 58.2286C43.4595 58.7972 43.4449 59.3512 43.1679 59.9781C42.6868 61.057 42.264 62.1651 41.8412 63.2731C41.7391 63.5355 41.6808 63.8271 41.6808 64.1187C41.6662 66.3056 41.6808 68.4926 41.6808 70.6795C41.6808 72.0791 42.0016 73.3913 42.716 74.5868C43.824 76.4822 44.9758 78.3775 46.113 80.2583C46.2442 80.477 46.4483 80.6373 46.6087 80.8269C46.6524 80.7977 46.6816 80.7686 46.7253 80.7394C46.6524 80.6082 46.565 80.477 46.4921 80.3457C46.113 79.6751 45.9089 78.9461 46.1567 78.2025C46.3463 77.6339 46.1421 77.3861 45.7048 77.0799C44.1885 76.0156 43.8823 74.2952 44.9175 72.779C45.0924 72.5165 45.0924 72.3562 44.9175 72.1083C44.4655 71.4668 44.0427 70.8107 43.5907 70.1255C44.0864 69.7902 44.553 69.484 45.0049 69.1924C45.0778 69.2507 45.107 69.2653 45.1362 69.2945C45.5152 69.8485 45.8943 70.4171 46.2588 70.9711C46.7108 71.6563 47.0607 71.7147 47.7751 71.2481C48.2999 70.8982 48.8539 70.5629 49.3496 70.1692C50.5306 69.1924 52.4405 69.5569 53.1695 71.0003C53.3444 71.3502 53.5631 71.4231 53.9276 71.4376C55.2398 71.496 56.202 72.3562 56.5082 73.6392C56.6977 74.4264 56.479 75.1263 56.1437 75.8261C57.8349 76.4238 58.5056 77.6048 58.2723 79.296C60.051 79.9667 60.503 81.1914 59.5845 82.7951C59.5116 82.9263 59.4095 83.043 59.3804 83.1742C59.3512 83.32 59.3366 83.5095 59.4095 83.6116C59.949 84.3697 60.503 85.1133 61.0862 85.8422C61.5236 86.3817 62.8503 86.4546 63.4189 86.0172C64.0021 85.5798 64.0167 84.982 63.4772 84.1364C61.8881 81.6287 60.2843 79.1356 58.6951 76.628C58.5931 76.453 58.4764 76.2926 58.389 76.1031C58.1994 75.6803 58.3306 75.3012 58.6951 75.0534C59.0742 74.7909 59.4678 74.8347 59.7886 75.1554C59.9344 75.2866 60.0364 75.4762 60.1385 75.6366C61.611 77.9547 63.0836 80.2728 64.5707 82.591C64.7019 82.7951 64.8331 82.9992 64.9935 83.1596C65.4309 83.597 66.087 83.6407 66.5972 83.3054C67.1075 82.9701 67.3116 82.3431 67.0929 81.7745C67.02 81.5704 66.8888 81.3809 66.7722 81.2059C65.1976 78.7274 63.623 76.2635 62.0484 73.785C61.6694 73.1872 61.7277 72.6915 62.1796 72.3999C62.617 72.1083 63.0836 72.2395 63.4918 72.779C64.2499 73.785 64.9935 74.7909 65.7516 75.7969C66.2765 76.4967 66.7868 77.1966 67.3408 77.8818C67.6615 78.2754 68.0844 78.4067 68.5509 78.188C69.0029 77.9693 69.207 77.5902 69.1049 77.1091C69.0612 76.8758 68.9008 76.6425 68.7696 76.4384C67.4574 74.4556 66.1307 72.4728 64.804 70.4754C64.7019 70.3296 64.5998 70.1692 64.5269 70.0089C64.3228 69.586 64.4395 69.207 64.804 68.9445C65.1684 68.6675 65.5621 68.7113 65.8974 69.0174C66.0286 69.1341 66.1307 69.2945 66.2327 69.4403C67.3408 70.9857 68.4197 72.5311 69.5569 74.0474C69.7027 74.2515 70.038 74.4556 70.2567 74.4119C70.4754 74.3827 70.7232 74.0911 70.8399 73.8724C71.0148 73.5225 71.0877 73.1143 71.2335 72.7352C71.6272 71.7001 71.4085 70.7961 70.7378 69.936C69.3673 68.1572 68.0552 66.3494 66.7139 64.5707C66.4806 64.2645 66.2327 63.9729 65.9412 63.7251C61.4652 59.774 56.6394 56.2166 52.4697 51.9156C52.2218 51.6678 52.0614 51.7407 51.8136 51.8865C50.6618 52.6155 49.4954 53.3299 48.3437 54.0588C46.4775 55.196 44.6259 56.3478 42.7305 57.5433ZM74.3973 65.5621C74.4556 65.5184 74.4848 65.5038 74.5139 65.4892C78.3483 61.8735 82.1682 58.2577 85.988 54.642C86.163 54.4816 86.265 54.1755 86.265 53.9422C86.2796 47.9792 86.2796 42.0307 86.2796 36.0677C86.2796 35.9365 86.2796 35.7907 86.2796 35.5282C86.0901 35.7615 85.9734 35.8927 85.8568 36.024C83.2616 39.4501 80.6082 42.8326 78.0713 46.3025C75.3887 49.962 72.4582 53.3736 68.9591 56.2895C68.303 56.829 67.6907 57.4267 67.0638 57.9953C68.0989 59.9052 72.1375 64.075 74.3973 65.5621ZM47.6147 78.8003C47.9063 79.2085 48.0666 79.6751 48.402 79.85C48.8394 80.0833 49.3934 80.2437 49.9037 79.8792C51.8282 78.4941 53.2424 76.6425 54.642 74.7764C54.9773 74.3244 54.8024 73.6829 54.3796 73.3476C53.9276 72.9977 53.4757 73.0851 52.98 73.5517C51.4783 74.9951 50.1953 76.6717 48.3437 77.7652C48.0375 77.9547 47.9063 78.3921 47.6147 78.8003ZM51.3325 83.699C51.6095 83.5824 51.799 83.5095 51.974 83.422C53.8985 82.4889 55.0794 80.7831 56.3332 79.1648C56.654 78.742 56.5811 78.2317 56.2312 77.8672C55.8813 77.4882 55.3273 77.4007 54.8899 77.6777C54.7149 77.7797 54.5691 77.911 54.4379 78.0713C53.359 79.3252 52.2072 80.4915 50.9242 81.5558C50.793 81.6579 50.691 81.7745 50.5889 81.9058C50.2682 82.3286 50.4431 82.7659 50.6618 83.1304C50.8076 83.3491 51.1138 83.5095 51.3325 83.699ZM64.5561 60.2551C64.804 60.4738 64.9935 60.6488 65.1976 60.7946C66.8888 62.063 68.2885 63.5793 69.3819 65.4017C69.9943 66.4077 70.8399 67.2825 71.598 68.2447C72.1229 67.7344 72.604 67.2825 73.0268 66.8743C71.7001 65.6496 70.3588 64.4978 69.1341 63.2294C67.9094 61.9755 66.8014 60.605 65.635 59.2637C65.3142 59.5845 64.9643 59.8907 64.5561 60.2551ZM47.4835 76.2052C47.9646 75.8698 48.4603 75.622 48.8394 75.2429C49.7141 74.3973 50.5306 73.4934 51.4054 72.6332C51.7407 72.2978 51.8136 72.0062 51.4928 71.6418C51.1721 71.2773 50.8076 71.2627 50.4285 71.496C50.1224 71.6855 49.8308 71.9042 49.5246 72.1083C48.7665 72.6186 48.0521 73.2164 47.0461 73.2747C46.5358 73.3038 46.2005 73.7558 46.0838 74.2661C45.9672 74.7764 46.1567 75.1992 46.5504 75.5199C46.8274 75.7678 47.1336 75.9719 47.4835 76.2052ZM52.6446 49.2768C52.4842 48.7227 52.2364 48.8539 51.9302 49.0435C48.7373 50.8951 45.5444 52.7467 42.3515 54.5983C41.4475 55.1231 40.529 55.648 39.5959 56.202C39.8001 56.5082 39.975 56.7706 40.1791 57.0768C44.3489 54.4671 48.4895 51.8719 52.6446 49.2768ZM55.1815 85.3757C55.7938 85.5069 56.2166 85.1861 56.5228 84.5738C57.0039 83.6407 57.5725 82.7368 58.0682 81.8183C58.1703 81.6433 58.0974 81.3809 58.1119 81.1476C57.8349 81.133 57.5579 81.0893 57.2955 81.1476C57.1643 81.1768 57.0622 81.3663 56.9456 81.4829C56.0417 82.4306 55.1377 83.3783 54.263 84.3405C54.1026 84.5155 53.8985 84.8654 53.9568 84.9383C54.1172 85.1424 54.3942 85.259 54.6566 85.3611C54.7878 85.4194 54.9482 85.3757 55.1815 85.3757ZM78.1442 64.4686C77.2986 65.2705 76.5988 65.9266 75.7969 66.6847C76.7883 67.1075 77.6485 67.5303 78.5525 67.8365C79.1648 68.0552 79.4127 67.8073 79.2085 67.195C78.9315 66.3056 78.5379 65.46 78.1442 64.4686ZM68.0844 54.6858C67.2242 54.3942 66.4952 54.1172 65.7662 53.8985C65.3871 53.7818 65.183 54.0005 65.2997 54.365C65.5038 55.0648 65.7516 55.7646 66.0141 56.5519C66.7285 55.925 67.3262 55.371 68.0844 54.6858Z" fill="black" stroke="white" stroke-width="2" mask="url(#path-2-inside-1_302_136)"/>
<path d="M49.5971 41.7485C49.5067 41.6288 49.4154 41.5078 49.3224 41.3847C49.4217 41.3104 49.5204 41.2368 49.6194 41.1629L49.6201 41.1624C49.7199 41.0879 49.8201 41.0132 49.9214 40.9374C50.1049 41.1806 50.2878 41.4217 50.4727 41.6655C50.5254 41.735 50.5783 41.8048 50.6314 41.8748C50.4481 42.0151 50.2641 42.1581 50.073 42.3066C50.0617 42.3153 50.0504 42.3242 50.039 42.333C49.8922 42.1398 49.746 41.9459 49.5971 41.7485Z" fill="black" stroke="white"/>
<path d="M65.5023 60.4129C65.4373 60.3616 65.3743 60.3076 65.3044 60.2458C65.4012 60.1572 65.4955 60.0715 65.5877 59.9885C65.7941 60.2285 66.0001 60.4703 66.2067 60.7126C66.5223 61.0829 66.839 61.4545 67.1595 61.8233C66.6412 61.3223 66.0886 60.8529 65.5023 60.4129ZM71.4045 66.0822C71.7037 66.3532 72.0028 66.6241 72.2992 66.8966C72.0932 67.0954 71.8767 67.3039 71.6466 67.5236C71.4986 67.3439 71.352 67.1698 71.208 66.9988C70.6907 66.3845 70.2069 65.8099 69.8099 65.1579C69.4419 64.5448 69.0404 63.9654 68.606 63.4176C68.6623 63.4762 68.7187 63.5345 68.7754 63.5925C69.6104 64.4572 70.5082 65.2704 71.4045 66.0822Z" fill="white" stroke="white"/>
<defs>
<linearGradient id="paint0_linear_302_136" x1="60" y1="0.000732422" x2="60" y2="120.001" gradientUnits="userSpaceOnUse">
<stop stop-color="#BE2D87"/>
<stop offset="1" stop-color="#F74989"/>
</linearGradient>
</defs>
</svg>
