<svg width="120" height="120" viewBox="0 0 120 120" fill="none" xmlns="http://www.w3.org/2000/svg">
<circle cx="60" cy="60.0007" r="60" fill="url(#paint0_linear_276_1627)"/>
<path d="M54.4474 87.9892C53.8143 87.9564 53.1812 87.9127 52.5481 87.9018C47.1776 87.8363 41.7962 87.7818 36.4258 87.7163C35.8145 87.7053 35.4215 87.3124 35.4434 86.7229C35.5525 83.9176 36.2839 81.3088 37.8448 78.951C38.849 77.4338 40.0934 76.1348 41.5998 75.0978C41.8945 74.8904 41.9491 74.7049 41.829 74.3774C41.5233 73.4823 41.2614 72.5763 40.9885 71.6703C38.8927 71.8013 37.2117 71.0918 35.9564 69.4326C34.8867 68.0136 34.7993 66.409 35.0177 64.6953C35.4652 61.2678 35.8363 57.8294 36.2184 54.391C36.2402 54.2272 36.1638 53.9762 36.0437 53.8888C34.1553 52.4917 33.1074 50.6142 32.7472 48.311C32.518 47.0229 32.256 45.7349 32.0268 44.4469C31.9613 44.0648 31.994 43.6719 32.3761 43.4972C32.6271 43.388 32.9655 43.399 33.2493 43.4317C33.4021 43.4535 33.5331 43.6391 33.6641 43.7701C34.2099 44.3595 34.7448 44.9599 35.3015 45.5384C37.0698 47.3504 39.1765 48.0163 41.6216 47.1976C44.0776 46.3789 46.4244 46.761 48.6731 47.8198C50.1685 48.5184 51.6203 49.348 52.9738 50.2976C56.3467 52.6772 57.351 57.3709 55.3643 61.1586C54.5675 62.6868 53.6833 64.1822 52.8756 65.7104C52.7337 65.9724 52.6791 66.3435 52.7337 66.6273C53.0502 68.1555 53.4213 69.6837 53.7925 71.201C53.847 71.4302 53.978 71.6813 54.1418 71.8559C57.7657 75.5235 59.545 79.9444 59.5777 85.0856C59.5777 85.6096 59.5559 86.1444 59.5886 86.6684C59.6214 87.2141 59.5013 87.6726 59.0429 88.0001C57.5038 87.9892 55.9756 87.9892 54.4474 87.9892ZM57.8094 86.2427C58.0277 81.6363 56.827 77.5757 53.858 74.1154C52.4717 72.489 53.083 72.9147 50.9872 73.0348C50.9326 73.0348 50.878 73.0566 50.8234 73.0675C48.0945 73.4059 45.6604 74.5521 43.3572 75.982C40.923 77.4884 39.111 79.5732 38.074 82.2585C37.6156 83.4264 37.3099 84.6381 37.2663 85.9698C44.1322 86.068 50.9435 86.1553 57.8094 86.2427ZM51.4456 64.6953C52.3079 63.1125 53.1921 61.6171 53.9453 60.0671C55.3534 57.1526 54.5566 53.5723 52.0132 51.7712C50.5942 50.767 49.0333 49.9374 47.4614 49.217C45.7695 48.442 43.9794 48.2564 42.1455 48.8568C39.3948 49.7737 36.906 49.1842 34.6902 47.3722C34.5919 47.2958 34.4828 47.2194 34.3518 47.1212C34.3409 47.2194 34.33 47.2522 34.33 47.2849C34.3736 47.536 34.4173 47.787 34.45 48.0381C34.7229 49.7846 35.4652 51.2582 36.906 52.3279C37.1899 52.5353 37.5937 52.6772 37.943 52.6881C40.0061 52.7209 42.0582 52.699 44.1213 52.71C44.9945 52.71 45.2565 52.9719 45.2892 53.8452C45.3438 55.4607 45.6385 57.0216 46.2389 58.528C46.359 58.8227 46.479 58.9864 46.8392 59.0192C48.1491 59.1502 49.2952 60.1544 49.5136 61.4643C49.6336 62.1519 49.5136 62.8833 49.5026 63.691C50.0375 63.9749 50.7143 64.3132 51.4456 64.6953ZM38.0194 54.4455C37.9758 54.5547 37.9539 54.5874 37.943 54.6202C37.5064 58.3642 37.037 62.0974 36.6332 65.8523C36.3494 68.5157 39.0783 70.7425 41.3924 69.6837C43.4445 68.745 44.8417 67.2168 44.9727 64.8044C45.0163 63.9094 45.2565 63.702 46.1516 63.691C47.1776 63.6801 47.8653 63.0689 47.8653 62.1956C47.8544 61.3115 47.1995 60.722 46.1843 60.7438C45.5294 60.7548 45.1582 60.4928 44.8963 59.8924C44.2086 58.2878 43.7392 56.6396 43.5864 54.904C43.5755 54.7512 43.379 54.4892 43.2589 54.4783C41.5233 54.4455 39.7768 54.4455 38.0194 54.4455ZM51.9587 71.0591C51.7185 70.0003 51.3801 68.9196 51.2273 67.8171C51.0745 66.6928 50.5287 66.0597 49.5026 65.634C48.7058 65.3066 48.0072 64.8044 47.0903 65.3284C46.8283 65.4812 46.6537 65.5576 46.5991 65.8523C46.2607 67.7407 45.2674 69.2034 43.7174 70.3059C43.3462 70.5679 42.986 70.8298 42.6258 71.0918C42.9205 72.0415 43.2043 72.9475 43.4663 73.7771C44.8853 73.1767 46.2061 72.4999 47.6033 72.0524C48.9896 71.6158 50.4523 71.3975 51.9587 71.0591Z" fill="white"/>
<path d="M63.7474 63.2763C63.9657 63.1671 64.1294 63.0689 64.2604 63.0034C63.9984 62.0646 63.671 61.1914 63.5181 60.2854C62.6012 54.7075 65.8213 49.4462 71.1809 47.6342C73.7461 46.7719 76.3221 46.7828 78.9419 47.3504C79.9679 47.5796 81.0268 47.6997 82.0419 47.9617C86.5828 49.1187 88.8423 54.2382 86.6374 58.3752C86.3208 58.9755 86.1134 59.5759 85.9388 60.2308C85.4476 62.0974 84.8254 63.9203 84.2578 65.765C84.105 66.2671 83.9085 66.7583 83.7775 67.2714C83.4937 68.3193 82.8824 69.127 82.0637 69.8038C81.9328 69.9129 81.7908 70.1094 81.7799 70.2732C81.7035 71.6922 81.6599 73.1112 81.5835 74.5302C81.5616 74.8904 81.7035 75.0869 82.0092 75.2616C83.199 75.9165 84.3778 76.6151 85.5676 77.281C86.9212 78.0341 87.6962 79.1694 87.6744 80.7303C87.6525 82.2694 86.8993 83.3937 85.5349 84.0923C84.2687 84.7472 83.2972 85.7187 82.5877 86.9304C82.2493 87.498 81.8127 87.7054 81.1577 87.6944C77.0535 87.6726 72.9601 87.6835 68.8559 87.6835C67.8626 87.6835 67.6115 87.4325 67.6442 86.461C67.7206 84.4088 67.6661 82.3349 67.9062 80.2937C68.2992 76.9317 69.9474 74.1809 72.5781 72.0524C73.0038 71.714 73.1348 71.3865 72.982 70.9063C72.9601 70.8189 72.9274 70.7316 72.9274 70.6334C72.9492 69.7929 72.589 69.3017 71.7158 69.1925C71.4101 69.1488 71.2246 69.1379 70.9735 69.3781C70.395 69.9129 69.7291 70.3605 69.0633 70.8844C69.3471 71.2883 69.6855 71.7686 70.0238 72.2598C70.395 72.8056 70.3404 73.2968 69.9038 73.6024C69.4562 73.908 68.9869 73.788 68.6048 73.2531C68.4847 73.0894 68.3538 72.9366 68.2664 72.7619C67.6988 71.6922 66.9456 71.1027 65.603 70.9827C63.4745 70.7971 61.9026 69.1379 61.6298 67.2714C61.4769 66.2235 61.8153 65.2956 62.4375 64.4333C61.9463 63.702 61.466 62.9815 60.9857 62.2502C60.6037 61.6717 60.6583 61.1586 61.1276 60.8748C61.5752 60.591 62.0555 60.7329 62.4266 61.2787C62.8523 61.9118 63.278 62.5667 63.7474 63.2763ZM77.5665 58.4297C77.8503 57.7311 78.145 57.0762 78.3852 56.3994C78.6362 55.7336 78.8109 55.0459 79.0729 54.391C79.313 53.7906 79.7824 53.5832 80.35 53.8779C82.0856 54.773 84.1159 55.166 85.3712 56.9016C85.4367 56.8033 85.4694 56.7597 85.4912 56.716C86.5064 53.6815 84.6398 50.3413 81.5289 49.6318C80.4264 49.3807 79.313 49.2279 78.2105 48.9987C75.438 48.4092 72.7855 48.6603 70.2531 49.9592C65.8323 52.2297 63.8784 57.622 65.8759 62.0755C66.0178 62.403 66.1816 62.5231 66.5636 62.5122C67.1203 62.4903 67.6988 62.534 68.2446 62.6541C70.3076 63.0907 71.7922 64.608 72.0214 66.4636C72.0651 66.802 72.0323 67.1404 72.0323 67.5661C72.8291 67.708 73.5932 67.839 74.3682 67.97C74.3901 67.9263 74.4228 67.8717 74.4447 67.8281C73.5059 66.3108 73.2658 64.6844 73.7024 63.0034C73.626 62.9379 73.6042 62.916 73.5714 62.8942C72.207 61.9336 71.7922 60.3727 72.5563 59.0301C73.3203 57.6875 74.8813 57.229 76.3985 57.9058C76.726 58.0477 77.0862 58.2114 77.5665 58.4297ZM69.4126 85.9152C69.5436 85.937 69.5981 85.9479 69.6527 85.9479C73.364 85.9479 77.0862 85.9589 80.7975 85.937C80.994 85.937 81.256 85.7515 81.3761 85.5659C82.2493 84.2888 83.3409 83.2736 84.7053 82.5641C85.4585 82.1712 85.9169 81.5817 85.9279 80.7085C85.9388 79.8352 85.5021 79.2239 84.749 78.8201C81.3324 76.9644 77.9049 75.1088 74.4992 73.2422C74.1827 73.0675 73.9862 73.1221 73.7242 73.3295C72.5999 74.2246 71.7048 75.3052 70.9626 76.5387C69.2161 79.4532 69.4562 82.6842 69.4126 85.9152ZM80.3937 55.7882C80.2954 56.1156 80.1972 56.3776 80.1317 56.6614C79.8588 57.8512 79.3348 58.9209 78.5053 59.8269C77.9922 60.3945 77.763 60.4382 77.0753 60.1217C76.5295 59.8706 75.9947 59.5977 75.438 59.3794C74.8485 59.1502 74.2591 59.3903 74.008 59.9252C73.7461 60.471 73.9535 61.0931 74.5211 61.4097C74.7285 61.5298 74.9468 61.6062 75.1542 61.7262C75.5908 61.9773 75.7982 62.3484 75.5908 62.8287C74.8049 64.6516 75.3288 66.2453 76.4422 67.7189C77.1845 68.7122 78.1996 69.1925 79.444 69.0397C80.6229 68.8978 81.5944 68.3083 81.9873 67.1622C82.7951 64.8044 83.5264 62.4248 84.2469 60.0452C84.5962 58.8991 84.094 57.6547 83.0571 57.0762C82.2056 56.5959 81.3106 56.2248 80.3937 55.7882ZM66.771 69.4217C67.8189 69.4217 68.7795 69.1052 69.4453 68.5048C70.5478 67.5333 70.5478 66.1034 69.4562 65.1319C68.0699 63.9094 65.5484 63.9094 64.1513 65.121C63.0488 66.0925 63.0379 67.5333 64.1403 68.4939C64.8935 69.1488 65.7886 69.4108 66.771 69.4217ZM74.5429 69.6728C74.6302 70.2077 74.7285 70.7207 74.8158 71.2446C76.5404 71.463 78.2215 71.6813 79.957 71.9105C79.957 71.4848 79.957 71.1137 79.957 70.7316C78.6799 70.9499 77.501 70.7534 76.475 70.0548C75.8855 69.651 75.2961 69.5636 74.5429 69.6728Z" fill="white"/>
<path d="M62.4377 43.5081C61.9465 43.1151 61.5863 42.8422 61.2479 42.5475C60.7677 42.1327 60.7349 41.6306 61.1715 41.1721C61.4117 40.9211 61.7064 40.7355 62.012 40.4844C61.4335 40.0042 60.986 39.633 60.5493 39.251C59.949 38.727 59.9599 38.1812 60.593 37.7119C61.1606 37.2862 61.7391 36.8714 62.3395 36.4348C62.0448 36.0309 61.761 35.6488 61.4881 35.2668C61.1824 34.8083 61.2043 34.3826 61.5863 34.0333C63.9113 31.9812 67.7536 31.2389 70.5371 32.9527C74.5213 35.4087 74.8924 41.0302 71.2575 44.1739C69.1945 45.9641 67.1096 47.7324 65.0356 49.5116C64.1951 50.2321 63.3547 50.9634 62.5032 51.6838C61.8265 52.2514 61.1824 52.0659 60.9205 51.2254C60.8986 51.1708 60.8986 51.1162 60.8768 51.0616C60.3856 50.0574 60.4838 49.1187 61.0951 48.1908C61.2698 47.9289 61.2589 47.5468 61.3243 47.2084C61.3462 47.0993 61.3353 46.9901 61.3134 46.881C61.1606 45.6148 61.0733 44.3595 62.4377 43.5081ZM62.6233 49.2606C62.6779 49.2278 62.7434 49.206 62.798 49.1623C65.3304 46.9901 67.8737 44.8398 70.3734 42.6239C72.0871 41.1066 72.5019 38.7161 71.5304 36.5657C70.6572 34.6228 68.7142 33.553 66.4328 33.7713C65.3413 33.8805 64.3043 34.208 63.3765 34.8738C63.6603 35.2559 63.9223 35.6052 64.1733 35.9654C64.5881 36.5548 64.5226 36.9805 63.955 37.4172C63.4638 37.7883 62.9617 38.1376 62.4268 38.5305C62.8744 38.9126 63.3001 39.251 63.7039 39.6112C64.1842 40.0369 64.217 40.5281 63.7694 40.9866C63.5402 41.2267 63.2564 41.4341 62.9726 41.6742C63.2564 41.9035 63.4092 42.0345 63.562 42.1545C63.7149 42.2855 63.8786 42.4056 64.0314 42.5257C64.5226 42.9404 64.5772 43.388 64.1842 43.9119C63.8786 44.3158 63.5293 44.6979 63.2455 45.1236C63.1036 45.331 63.0053 45.6148 63.0163 45.8549C63.0381 47.012 63.3546 48.1799 62.6233 49.2606Z" fill="white"/>
<path d="M56.7178 38.3669C57.1544 38.7817 57.6019 39.1856 58.0167 39.6113C58.5298 40.1352 58.5188 40.5609 58.0058 41.074C57.7875 41.2923 57.5146 41.4451 57.2199 41.6743C57.8093 42.1655 58.246 42.5148 58.6717 42.886C59.1847 43.3226 59.3048 43.6501 58.9336 44.2177C58.497 44.9054 58.5188 45.5166 58.9991 46.1388C59.0428 46.1934 59.0646 46.2698 59.0974 46.3353C59.7851 47.667 59.7741 47.667 58.6062 48.5839C58.4752 48.6931 58.3879 48.9441 58.3988 49.1188C58.4643 49.6755 58.5843 50.2322 58.6826 50.7889C58.759 51.2364 58.7153 51.6403 58.2896 51.8913C57.8639 52.1424 57.4928 51.9896 57.1435 51.6839C54.2072 49.1515 51.2272 46.6628 48.3237 44.0867C44.6124 40.8011 45.3001 34.8739 49.579 32.7126C52.1769 31.4028 56.0301 32.014 58.1368 34.0771C58.497 34.4373 58.5516 34.8193 58.3224 35.2669C57.7875 36.2602 57.2745 37.2863 56.7178 38.3669ZM56.4776 35.0158C54.9713 33.8042 52.5808 33.4112 50.8452 34.0553C47.2758 35.376 46.5117 40.2226 49.4807 42.7986C51.7075 44.7307 53.9561 46.6409 56.1938 48.5621C56.2812 48.6385 56.3794 48.6931 56.5868 48.824C56.2702 47.8307 56.9907 47.5578 57.5474 47.154C57.0998 46.0952 56.041 45.1237 57.209 43.9339C56.6195 43.4427 56.0956 43.017 55.5935 42.5803C55.0586 42.1219 55.0368 41.6307 55.528 41.1286C55.779 40.8775 56.0628 40.6592 56.4012 40.3645C55.9209 39.9278 55.5716 39.5895 55.2005 39.262C54.753 38.8581 54.7093 38.4215 54.9931 37.8975C55.4952 36.9479 55.9755 35.9873 56.4776 35.0158Z" fill="white"/>
<defs>
<linearGradient id="paint0_linear_276_1627" x1="60" y1="0.000732422" x2="60" y2="120.001" gradientUnits="userSpaceOnUse">
<stop stop-color="#BE2D87"/>
<stop offset="1" stop-color="#F74989"/>
</linearGradient>
</defs>
</svg>
