<svg width="120" height="120" viewBox="0 0 120 120" fill="none" xmlns="http://www.w3.org/2000/svg">
<circle cx="60" cy="60.0007" r="60" fill="url(#paint0_linear_302_137)"/>
<path d="M39.924 87.9709C39.7199 87.8689 39.5013 87.7815 39.2972 87.6648C38.3352 87.1255 38 86.2656 38 85.2015C38.0146 79.0797 38 72.9579 38 66.8361C38 64.4457 38 62.0698 38 59.6794C38 59.4608 38 59.2421 38.0437 59.0235C38.1312 58.6445 38.3935 58.4405 38.7871 58.4259C39.1952 58.4113 39.5013 58.6154 39.5888 59.0235C39.6471 59.2713 39.6325 59.5337 39.6325 59.7814C39.6325 68.075 39.6325 76.3541 39.6325 84.6477C39.6325 84.8226 39.6325 85.0121 39.6325 85.187C39.6471 86.0761 39.8948 86.3239 40.7694 86.3239C46.075 86.3239 51.3951 86.3239 56.7007 86.3239C57.0068 86.3239 57.3129 86.3239 57.7064 86.3239C57.7064 86.1052 57.7064 85.9158 57.7064 85.7263C57.7064 82.4467 57.721 79.1672 57.6918 75.8876C57.6918 75.2463 57.7939 74.6779 58.0854 74.1094C58.406 73.4826 58.6684 72.8267 58.9891 72.1417C58.0562 71.5149 57.138 70.9027 56.2197 70.2906C55.418 69.7513 55.3597 69.518 55.8261 68.6726C56.9922 66.5592 58.1728 64.4457 59.3389 62.3176C59.4409 62.1427 59.5138 61.9678 59.6304 61.7637C58.683 61.137 57.7647 60.5248 56.8464 59.898C56.176 59.4462 56.0302 59.1401 56.4529 58.4405C57.5607 56.5748 57.8376 54.5779 57.7501 52.4353C57.6481 49.3015 57.721 46.1677 57.721 43.0339C57.721 42.8444 57.721 42.6404 57.721 42.4363C55.039 42.4655 52.9984 44.302 50.4331 44.7393C51.3951 47.2609 52.328 49.7242 53.2608 52.1729C53.3191 52.1729 53.3628 52.1875 53.392 52.1729C53.9896 51.8522 54.4123 51.9105 54.6892 52.3187C54.9662 52.7559 54.8058 53.2224 54.2374 53.6013C52.809 54.5342 51.2056 54.8694 49.5148 54.884C47.8386 54.9131 46.2207 54.6362 44.7486 53.7762C44.5737 53.6742 44.3988 53.5722 44.253 53.441C43.874 53.1495 43.7574 52.7705 44.0052 52.3332C44.2238 51.9397 44.6757 51.8522 45.1421 52.0709C45.215 52.1 45.2879 52.1583 45.4045 52.2166C46.3228 49.7971 47.2264 47.4358 48.1593 45.0016C47.9261 45.0016 47.7657 45.0016 47.6054 45.0016C47.0953 44.9725 46.76 44.6664 46.7454 44.2C46.7309 43.7481 47.0661 43.4129 47.5763 43.3692C48.3051 43.3109 49.0484 43.3692 49.7481 43.1797C51.0016 42.8299 52.2405 42.4072 53.4357 41.897C54.8058 41.314 56.1905 40.8767 57.7356 40.7601C57.7356 40.4832 57.7356 40.2354 57.7356 39.9876C57.7356 38.7924 57.7356 37.5826 57.7356 36.3874C57.7356 35.5566 58.0125 35.2942 58.8579 35.2942C61.1463 35.2942 63.4347 35.2942 65.7376 35.2942C69.3233 35.2942 72.8943 35.2942 76.48 35.2942C78.1562 35.2942 79.1619 36.2853 79.1619 37.9761C79.1619 50.0157 79.1619 62.0553 79.1619 74.1094C79.1619 74.2843 79.1619 74.4738 79.1036 74.6487C79.0016 75.0277 78.7246 75.2172 78.3311 75.2172C77.9375 75.2172 77.6606 75.0277 77.5732 74.6487C77.5149 74.3863 77.5148 74.1094 77.5148 73.8325C77.5148 62.1136 77.5148 50.4092 77.5148 38.6903C77.5148 38.5154 77.5148 38.3259 77.5148 38.151C77.5148 37.189 77.2816 36.9558 76.3342 36.9558C70.8829 36.9558 65.4316 36.9558 59.9657 36.9558C59.7907 36.9558 59.6013 36.9558 59.3972 36.9558C59.3972 38.2385 59.3972 39.492 59.3972 40.7747C59.9365 40.8475 60.4758 40.8767 61.0005 41.0225C61.9042 41.2848 62.8225 41.5618 63.6679 41.9553C65.519 42.8299 67.4139 43.442 69.4836 43.4129C70.0229 43.3983 70.3873 43.7773 70.3727 44.2437C70.3582 44.7101 70.0083 45.0308 69.4545 45.0454C69.3087 45.0454 69.1629 45.0454 68.9589 45.0454C69.8772 47.4649 70.7809 49.8408 71.6845 52.1875C71.7429 52.2021 71.7866 52.2166 71.8012 52.2021C72.3842 51.8814 72.8215 51.9251 73.0984 52.3332C73.3899 52.7705 73.2442 53.2369 72.6611 53.6159C71.2181 54.5779 69.5856 54.884 67.8949 54.9131C66.2478 54.9277 64.6736 54.6654 63.2306 53.8345C63.1286 53.7762 63.0411 53.7325 62.9537 53.6742C62.3269 53.2661 62.152 52.8434 62.429 52.377C62.6913 51.9251 63.1432 51.8814 63.8428 52.2458C64.7902 49.7825 65.7231 47.3192 66.6996 44.7684C64.1635 44.3457 62.1083 42.5092 59.3972 42.4655C59.3972 42.6841 59.3972 42.9027 59.3972 43.1068C59.3972 47.1005 59.3826 51.0797 59.4118 55.0735C59.4118 55.7148 59.3097 56.2833 59.0182 56.8517C58.7121 57.4639 58.4498 58.1052 58.1291 58.7903C58.683 59.1693 59.2223 59.5191 59.7616 59.8835C60.1406 60.1313 60.5195 60.379 60.8985 60.6414C61.671 61.1661 61.7439 61.4431 61.3066 62.2593C60.1406 64.3728 58.9599 66.4863 57.7939 68.6143C57.6918 68.7893 57.619 68.9642 57.5023 69.1682C58.4206 69.7804 59.3097 70.3634 60.1989 70.961C60.986 71.4712 61.1171 71.7481 60.6653 72.5352C59.5721 74.4155 59.266 76.3978 59.368 78.555C59.4847 80.9309 59.3972 83.3213 59.3972 85.7117C59.3972 85.9158 59.3972 86.1052 59.3972 86.3385C59.6158 86.353 59.7907 86.3676 59.9657 86.3676C65.4316 86.3676 70.912 86.3676 76.3779 86.3676C77.2962 86.3676 77.544 86.1198 77.544 85.2161C77.544 82.8986 77.544 80.5956 77.544 78.2781C77.544 78.1032 77.544 77.9137 77.5586 77.7388C77.6023 77.2286 77.9375 76.8934 78.3894 76.9079C78.8121 76.9225 79.1619 77.2432 79.1765 77.7242C79.2056 78.555 79.1911 79.4004 79.1911 80.2312C79.1911 81.1641 79.1911 82.0823 79.1911 83.0881C79.5117 83.0881 79.7887 83.1172 80.0802 83.0881C80.4883 83.0443 80.7507 82.8111 80.809 82.3884C80.8381 82.1552 80.8381 81.922 80.8381 81.6742C80.8381 71.7773 80.8381 61.8949 80.8381 51.998C80.8381 51.7648 80.8235 51.517 80.8673 51.2838C80.9401 50.8465 81.2171 50.6133 81.6689 50.6133C82.1062 50.6133 82.3831 50.8611 82.456 51.2984C82.4852 51.517 82.4852 51.7356 82.4852 51.9543C82.4852 61.8804 82.4852 71.8064 82.4852 81.7471C82.4852 83.8314 81.6398 84.6914 79.5555 84.7351C79.468 84.7351 79.3805 84.7497 79.2056 84.7497C79.2056 85.0266 79.2202 85.3036 79.2056 85.5659C79.1473 86.7028 78.5935 87.4754 77.5294 87.8835C77.4565 87.9126 77.3837 87.9709 77.2962 88.0001C64.8048 87.9709 52.3571 87.9709 39.924 87.9709ZM51.7887 52.9163C50.9724 50.7736 50.1707 48.6893 49.3399 46.4884C48.4945 48.7039 47.6929 50.7882 46.8912 52.9163C48.5383 53.339 50.1124 53.3535 51.7887 52.9163ZM70.1978 52.9163C69.3816 50.7882 68.5945 48.7185 67.7491 46.5029C66.8891 48.733 66.102 50.8174 65.3004 52.9308C66.962 53.339 68.5362 53.3535 70.1978 52.9163Z" fill="white"/>
<path d="M80.5174 32C80.9255 32.2478 81.3773 32.4664 81.7417 32.7725C82.2519 33.2244 82.4268 33.8657 82.4268 34.5508C82.4268 38.9964 82.4268 43.442 82.4268 47.8876C82.4268 48.5289 82.1207 48.9079 81.6251 48.9224C81.115 48.937 80.7943 48.5435 80.7943 47.873C80.7943 43.5731 80.7943 39.2733 80.7943 34.9735C80.7943 33.822 80.6048 33.6471 79.4679 33.6471C67.7636 33.6471 56.0593 33.6616 44.3549 33.6325C42.8974 33.6325 42.8536 34.2301 42.9848 35.2941C43.1889 35.2941 43.3929 35.2941 43.6116 35.2941C47.3575 35.2941 51.1035 35.2941 54.8495 35.2941C55.0244 35.2941 55.2139 35.2795 55.3888 35.3087C55.8115 35.3816 56.0738 35.6439 56.0884 36.0812C56.103 36.5476 55.8406 36.8246 55.3888 36.912C55.2139 36.9412 55.0244 36.9266 54.8495 36.9266C50.1707 36.9266 45.5064 36.9266 40.8276 36.9266C39.9093 36.9266 39.6761 37.1598 39.6761 38.0927C39.6761 43.8647 39.6761 49.6367 39.6761 55.4086C39.6761 55.6419 39.6761 55.8896 39.6324 56.1229C39.5595 56.531 39.268 56.7496 38.8599 56.7496C38.4517 56.7496 38.1602 56.5456 38.0728 56.1374C38.0291 55.9042 38.0291 55.671 38.0291 55.4378C38.0291 49.7241 38.0291 43.9958 38.0291 38.2821C38.0291 36.1978 38.8744 35.3378 40.9588 35.2941C41.0462 35.2941 41.1337 35.2795 41.3232 35.2795C41.1045 33.6908 41.6876 32.5539 43.2034 32C55.6366 32 68.0697 32 80.5174 32Z" fill="white"/>
<path d="M67.1953 61.2682C66.9913 60.656 66.8164 60.0875 66.6123 59.5191C66.4665 59.0964 66.5977 58.7757 66.9184 58.4988C68.2011 57.4202 70.7955 57.4202 72.0782 58.4842C72.4426 58.7757 72.5155 59.1401 72.3843 59.5628C72.2531 59.9855 72.1365 60.4082 71.9616 60.8017C71.8013 61.1661 71.9033 61.3265 72.2385 61.5305C74.5415 62.9444 75.4015 65.7866 74.2937 68.2062C73.3317 70.3051 71.2474 71.4712 68.8715 71.2526C66.7872 71.0631 64.9069 69.3869 64.3968 67.2588C63.8575 65.0724 64.7758 62.7986 66.6998 61.5743C66.8601 61.4722 67.0058 61.3848 67.1953 61.2682ZM69.5275 69.6492C71.5535 69.6346 73.1568 68.0022 73.1422 65.9907C73.1131 63.9938 71.5098 62.3905 69.5129 62.3905C67.5014 62.3905 65.8835 64.0376 65.8981 66.049C65.9127 68.0459 67.5452 69.6492 69.5275 69.6492ZM68.7695 60.758C70.4166 60.7726 70.4166 60.7726 70.6061 59.5774C69.8627 59.2276 68.9881 59.2421 68.376 59.6357C68.5072 60.0001 68.6383 60.3645 68.7695 60.758Z" fill="white"/>
<path d="M47.6637 71.2817C44.7485 71.2963 42.3873 68.9496 42.3873 66.0199C42.3727 63.1339 44.7194 60.7581 47.5908 60.7435C50.506 60.7289 52.8818 63.0756 52.8964 65.9762C52.9255 68.9059 50.5788 71.2672 47.6637 71.2817ZM47.5762 69.6493C49.5585 69.693 51.2202 68.0897 51.2639 66.1074C51.3076 64.1105 49.7189 62.4343 47.7511 62.3905C45.7251 62.3468 44.0781 63.9064 44.0198 65.9324C43.9615 67.9439 45.5502 69.6055 47.5762 69.6493Z" fill="white"/>
<path d="M67.8949 82.8546C66.2624 82.8546 64.63 82.8692 62.9975 82.8401C62.7205 82.8401 62.3707 82.6214 62.2104 82.3882C62.0938 82.2133 62.1229 81.7906 62.2687 81.6011C62.3999 81.3971 62.7497 81.2367 62.9975 81.2367C66.2624 81.2076 69.5274 81.2222 72.8069 81.2222C73.3754 81.2222 73.7544 81.5865 73.7398 82.0675C73.7252 82.534 73.3608 82.8401 72.8069 82.8546C71.1599 82.8692 69.5274 82.8546 67.8949 82.8546Z" fill="white"/>
<path d="M49.1942 78.482C47.5763 78.482 45.9584 78.4966 44.3405 78.482C43.6409 78.482 43.2036 77.8989 43.5242 77.3742C43.67 77.1264 44.049 76.8786 44.3259 76.8786C47.5909 76.8495 50.8704 76.8495 54.1354 76.8641C54.6893 76.8641 55.0245 77.2139 55.0099 77.7095C54.9954 78.1905 54.6747 78.4966 54.0917 78.4966C52.4738 78.4966 50.8267 78.482 49.1942 78.482Z" fill="white"/>
<path d="M67.8658 78.482C66.3645 78.482 64.8486 78.482 63.3473 78.482C63.1724 78.482 62.9829 78.482 62.808 78.4529C62.4291 78.38 62.1958 78.1322 62.1667 77.7387C62.1375 77.3305 62.3124 77.0244 62.706 76.8933C62.8518 76.8495 63.0267 76.835 63.187 76.835C66.3499 76.835 69.5129 76.835 72.6758 76.835C72.7778 76.835 72.8944 76.835 72.9965 76.8495C73.4483 76.9224 73.7107 77.1994 73.7398 77.6658C73.7544 78.0885 73.4192 78.4383 72.9527 78.4674C72.3697 78.4966 71.7867 78.482 71.2037 78.482C70.0813 78.482 68.9736 78.482 67.8658 78.482Z" fill="white"/>
<path d="M49.2525 82.8547C47.6346 82.8547 46.0167 82.8547 44.3987 82.8547C43.7866 82.8547 43.393 82.5049 43.4222 81.9947C43.4513 81.5137 43.8157 81.2222 44.4279 81.2076C45.6668 81.1931 46.8912 81.2076 48.1301 81.2076C50.0541 81.2076 51.9781 81.2077 53.9021 81.2222C54.1645 81.2222 54.5143 81.266 54.6601 81.4263C54.8496 81.6449 54.9662 82.0093 54.9224 82.2863C54.8641 82.6798 54.5143 82.8547 54.1062 82.8547C52.634 82.8547 51.1619 82.8547 49.6897 82.8547C49.544 82.8547 49.3982 82.8547 49.2525 82.8547Z" fill="white"/>
<defs>
<linearGradient id="paint0_linear_302_137" x1="60" y1="0.000732422" x2="60" y2="120.001" gradientUnits="userSpaceOnUse">
<stop stop-color="#BE2D87"/>
<stop offset="1" stop-color="#F74989"/>
</linearGradient>
</defs>
</svg>
