<svg width="13" height="15" viewBox="0 0 13 15" fill="none" xmlns="http://www.w3.org/2000/svg">
<path d="M12.5908 5.90063C11.3531 5.90359 10.1458 5.5176 9.13941 4.79721V9.82149C9.13906 10.752 8.85464 11.6603 8.32416 12.4248C7.79368 13.1894 7.04244 13.7738 6.17088 14.0998C5.29932 14.4259 4.34899 14.4781 3.44696 14.2494C2.54494 14.0208 1.7342 13.5222 1.12318 12.8204C0.512148 12.1186 0.129949 11.2469 0.0276831 10.322C-0.0745824 9.39709 0.107961 8.463 0.550903 7.64463C0.993846 6.82626 1.67608 6.16262 2.50637 5.74246C3.33666 5.32229 4.27544 5.16562 5.19718 5.29339V7.82043C4.77539 7.68776 4.32246 7.69176 3.90308 7.83185C3.4837 7.97195 3.11931 8.24098 2.86195 8.60052C2.60458 8.96006 2.46741 9.39174 2.47001 9.83389C2.47262 10.276 2.61487 10.7061 2.87645 11.0626C3.13803 11.419 3.50556 11.6838 3.92657 11.8189C4.34757 11.9541 4.80051 11.9527 5.22071 11.8151C5.6409 11.6775 6.00687 11.4106 6.26634 11.0525C6.5258 10.6945 6.66551 10.2637 6.6655 9.82149V-0.000488281H9.13941C9.13769 0.208428 9.15519 0.417059 9.1917 0.622768C9.27766 1.08198 9.4564 1.51883 9.71699 1.90659C9.97758 2.29436 10.3145 2.62489 10.7072 2.87796C11.266 3.24739 11.921 3.44429 12.5908 3.44415V5.90063Z" fill="#0A142F"/>
</svg>
