<svg width="15" height="12" viewBox="0 0 15 12" fill="none" xmlns="http://www.w3.org/2000/svg">
<path d="M14.2857 1.34886C13.75 1.61873 13.2143 1.70868 12.5893 1.79864C13.2143 1.43881 13.6607 0.899075 13.8393 0.179424C13.3036 0.53925 12.6786 0.719162 11.9643 0.899075C11.4286 0.359337 10.625 -0.000488281 9.82143 -0.000488281C8.30357 -0.000488281 6.96429 1.34886 6.96429 2.96807C6.96429 3.23794 6.96429 3.41785 7.05357 3.59776C4.64286 3.50781 2.41071 2.33838 0.982143 0.53925C0.714286 0.989031 0.625 1.43881 0.625 2.06851C0.625 3.05803 1.16071 3.95759 1.96429 4.49733C1.51786 4.49733 1.07143 4.31742 0.625 4.1375C0.625 5.5768 1.60714 6.74624 2.94643 7.01611C2.67857 7.10606 2.41071 7.10606 2.14286 7.10606C1.96429 7.10606 1.78571 7.10606 1.60714 7.01611C1.96429 8.18554 3.03571 9.0851 4.375 9.0851C3.39286 9.89471 2.14286 10.3445 0.714286 10.3445C0.446429 10.3445 0.267857 10.3445 0 10.3445C1.33929 11.1541 2.85714 11.6938 4.46429 11.6938C9.82143 11.6938 12.7679 7.19602 12.7679 3.3279C12.7679 3.23794 12.7679 3.05803 12.7679 2.96807C13.3929 2.51829 13.9286 1.97855 14.2857 1.34886Z" fill="#0A142F"/>
</svg>
