<svg width="15" height="11" viewBox="0 0 15 11" fill="none" xmlns="http://www.w3.org/2000/svg">
<path d="M14.3097 2.38494C14.3097 2.25942 14.1214 1.25523 13.682 0.815902C13.1172 0.188285 12.4896 0.125523 12.1758 0.125523H12.113C10.1674 2.80567e-08 7.28036 0 7.21759 0C7.21759 0 4.2678 2.80567e-08 2.32218 0.125523H2.25942C1.94561 0.125523 1.318 0.188285 0.75314 0.815902C0.313809 1.318 0.125523 2.32218 0.125523 2.44771C0.125523 2.51047 0 3.64018 0 4.83265V5.8996C0 7.09207 0.125523 8.22178 0.125523 8.28454C0.125523 8.41007 0.313809 9.41425 0.75314 9.85359C1.25523 10.4184 1.88285 10.4812 2.25942 10.544C2.32218 10.544 2.38494 10.544 2.44771 10.544C3.57742 10.6695 7.02931 10.6695 7.15483 10.6695C7.15483 10.6695 10.1046 10.6695 12.0502 10.544H12.113C12.4268 10.4812 13.0544 10.4184 13.6193 9.85359C14.0586 9.35149 14.2469 8.3473 14.2469 8.22178C14.2469 8.15902 14.3724 7.02931 14.3724 5.83684V4.76989C14.4352 3.64018 14.3097 2.44771 14.3097 2.38494ZM9.6653 5.46027L5.8996 7.46864C5.83684 7.46864 5.83684 7.5314 5.77408 7.5314C5.71131 7.5314 5.64855 7.5314 5.64855 7.46864C5.58579 7.40588 5.52303 7.34312 5.52303 7.21759V3.13808C5.52303 3.01256 5.58579 2.9498 5.64855 2.88704C5.71131 2.82428 5.83684 2.82428 5.96236 2.88704L9.72806 4.89541C9.85359 4.95817 9.91635 5.02094 9.91635 5.14646C9.91635 5.27198 9.79082 5.39751 9.6653 5.46027Z" fill="black"/>
</svg>
