<?xml version="1.0" encoding="utf-8"?>
<!-- Generator: Adobe Illustrator 24.0.1, SVG Export Plug-In . SVG Version: 6.00 Build 0)  -->
<svg version="1.1" id="Layer_1" xmlns="http://www.w3.org/2000/svg" xmlns:xlink="http://www.w3.org/1999/xlink" x="0px" y="0px"
	 viewBox="0 0 32 32" style="enable-background:new 0 0 32 32;" xml:space="preserve">
<path d="M12.12,14.2c0-0.41-0.34-0.75-0.75-0.75c-0.41,0-0.75,0.34-0.75,0.75H12.12z M10.62,21.06c0,0.41,0.34,0.75,0.75,0.75
	c0.41,0,0.75-0.34,0.75-0.75H10.62z M16.79,10.92c0-0.41-0.34-0.75-0.75-0.75c-0.41,0-0.75,0.34-0.75,0.75H16.79z M15.29,21.06
	c0,0.41,0.34,0.75,0.75,0.75c0.41,0,0.75-0.34,0.75-0.75H15.29z M21.38,17.83c0-0.41-0.34-0.75-0.75-0.75s-0.75,0.34-0.75,0.75
	H21.38z M19.88,21.06c0,0.41,0.34,0.75,0.75,0.75s0.75-0.34,0.75-0.75H19.88z M10.62,14.2v6.86h1.5V14.2H10.62z M15.29,10.92v10.14
	h1.5V10.92H15.29z M19.88,17.83v3.24h1.5v-3.24H19.88z M20.69,5.25h-9.37v1.5h9.37V5.25z M11.31,5.25c-1.82,0-3.35,0.65-4.43,1.8
	C5.81,8.2,5.25,9.79,5.25,11.59h1.5c0-1.48,0.46-2.68,1.23-3.51c0.76-0.82,1.89-1.33,3.33-1.33V5.25z M5.25,11.59v8.83h1.5v-8.83
	H5.25z M5.25,20.41c0,1.79,0.56,3.38,1.63,4.53c1.08,1.16,2.61,1.8,4.43,1.8v-1.5c-1.45,0-2.57-0.51-3.34-1.33
	c-0.77-0.82-1.23-2.03-1.23-3.51H5.25z M11.31,26.75h9.37v-1.5h-9.37V26.75z M20.69,26.75c1.82,0,3.36-0.65,4.43-1.8
	c1.07-1.15,1.63-2.74,1.63-4.53h-1.5c0,1.48-0.46,2.68-1.23,3.51c-0.76,0.82-1.88,1.33-3.34,1.33V26.75z M26.75,20.41v-8.83h-1.5
	v8.83H26.75z M26.75,11.59c0-1.79-0.56-3.38-1.63-4.53c-1.08-1.16-2.61-1.8-4.43-1.8v1.5c1.45,0,2.57,0.51,3.34,1.33
	c0.77,0.82,1.23,2.03,1.23,3.51H26.75z"/>
</svg>
