<svg width="19" height="21" viewBox="0 0 19 21" fill="none" xmlns="http://www.w3.org/2000/svg">
<path fill-rule="evenodd" clip-rule="evenodd" d="M5.40079 1.75527C5.63883 0.864997 6.44497 0.25 7.36233 0.25H11.5953C12.5127 0.25 13.3188 0.864998 13.5569 1.75527C13.561 1.77074 13.5647 1.78633 13.5678 1.80203L13.8107 3.01773C13.8947 3.43652 14.2633 3.739 14.6903 3.739L14.6949 3.73901H17.958C18.3722 3.73901 18.708 4.0748 18.708 4.48901C18.708 4.90323 18.3722 5.23901 17.958 5.23901H1C0.585786 5.23901 0.25 4.90323 0.25 4.48901C0.25 4.0748 0.585786 3.73901 1 3.73901H4.26277L4.26733 3.739C4.69435 3.739 5.06286 3.43683 5.14687 3.01803L5.38987 1.80203C5.39301 1.78633 5.39665 1.77074 5.40079 1.75527ZM6.49027 3.73901H12.4674C12.4125 3.60299 12.3696 3.46035 12.3399 3.31227L12.1026 2.12462C12.0348 1.90265 11.8296 1.75 11.5953 1.75H7.36233C7.12802 1.75 6.92289 1.90265 6.85507 2.12461L6.61779 3.31197C6.58814 3.46005 6.54513 3.60299 6.49027 3.73901ZM16.6351 6.96995C17.0479 7.00324 17.3556 7.36493 17.3224 7.7778L15.8272 7.65726C15.8605 7.24438 16.2222 6.93667 16.6351 6.96995ZM16.4622 17.3723C16.3721 18.1856 16.0658 18.9049 15.5061 19.4248C14.9447 19.9463 14.2024 20.1983 13.3725 20.2134C10.7551 20.2606 8.13305 20.2636 5.51398 20.2084C4.70087 20.1916 3.97536 19.9308 3.42835 19.4094C2.88479 18.8914 2.58379 18.1795 2.49535 17.3791C2.33567 15.9374 2.12067 13.5336 1.94615 11.4978C1.85875 10.4783 1.78128 9.54839 1.72565 8.87337C1.69784 8.53585 1.67548 8.26201 1.66008 8.07251L1.63621 7.77772C1.60302 7.36483 1.91081 7.00313 2.32369 6.96994C2.73657 6.93675 3.09818 7.24455 3.13138 7.65743L3.15515 7.95097C3.17051 8.13999 3.19282 8.41327 3.22058 8.75018C3.27611 9.42404 3.35345 10.3523 3.44067 11.3697C3.6154 13.4079 3.82891 15.7936 3.98623 17.214C4.04482 17.7444 4.22884 18.1002 4.46323 18.3236C4.69412 18.5437 5.03943 18.6983 5.54514 18.7087C8.14201 18.7635 10.7446 18.7605 13.3451 18.7137C13.8861 18.7038 14.2479 18.5462 14.4852 18.3258C14.7243 18.1037 14.9114 17.7486 14.9713 17.207C15.1277 15.7992 15.3414 13.4151 15.5167 11.3755C15.6041 10.3573 15.6818 9.42761 15.7376 8.75245C15.7655 8.41488 15.7879 8.14099 15.8033 7.95153L15.8272 7.65726L17.3224 7.7778" fill="#FB275D"/>
</svg>
