<svg width="160" height="160" viewBox="0 0 160 160" fill="none" xmlns="http://www.w3.org/2000/svg">
<g filter="url(#filter0_d_1803_1870)">
<circle cx="80" cy="76" r="75" fill="#F6F6F6"/>
</g>
<path d="M106.305 63.5416C106.305 63.5416 104.174 89.9765 102.937 101.112C102.348 106.43 99.0633 109.547 93.6821 109.645C83.4418 109.829 73.1896 109.841 62.9532 109.625C57.7762 109.519 54.5459 106.363 53.9689 101.139C52.7247 89.9058 50.6052 63.5416 50.6052 63.5416M111.734 50.8697H45.1738M98.9084 50.8696C95.8273 50.8696 93.174 48.6912 92.5695 45.6729L91.6157 40.9001C91.027 38.6982 89.0331 37.1753 86.7605 37.1753H70.146C67.8734 37.1753 65.8795 38.6982 65.2908 40.9001L64.337 45.6729C63.7325 48.6912 61.0792 50.8696 57.9981 50.8696" stroke="#FB275D" stroke-width="5.8875" stroke-linecap="round" stroke-linejoin="round"/>
<defs>
<filter id="filter0_d_1803_1870" x="0" y="0" width="160" height="160" filterUnits="userSpaceOnUse" color-interpolation-filters="sRGB">
<feFlood flood-opacity="0" result="BackgroundImageFix"/>
<feColorMatrix in="SourceAlpha" type="matrix" values="0 0 0 0 0 0 0 0 0 0 0 0 0 0 0 0 0 0 127 0" result="hardAlpha"/>
<feMorphology radius="1" operator="dilate" in="SourceAlpha" result="effect1_dropShadow_1803_1870"/>
<feOffset dy="4"/>
<feGaussianBlur stdDeviation="2"/>
<feComposite in2="hardAlpha" operator="out"/>
<feColorMatrix type="matrix" values="0 0 0 0 0 0 0 0 0 0 0 0 0 0 0 0 0 0 0.01 0"/>
<feBlend mode="normal" in2="BackgroundImageFix" result="effect1_dropShadow_1803_1870"/>
<feBlend mode="normal" in="SourceGraphic" in2="effect1_dropShadow_1803_1870" result="shape"/>
</filter>
</defs>
</svg>
