<svg width="17" height="17" viewBox="0 0 17 17" fill="none" xmlns="http://www.w3.org/2000/svg">
<path fill-rule="evenodd" clip-rule="evenodd" d="M16.2919 15.033C16.6369 15.033 16.9169 15.313 16.9169 15.658C16.9169 16.003 16.6369 16.283 16.2919 16.283H10.2477C9.90273 16.283 9.62273 16.003 9.62273 15.658C9.62273 15.313 9.90273 15.033 10.2477 15.033H16.2919ZM12.4301 1.0447C12.4717 1.0772 13.8659 2.16054 13.8659 2.16054C14.3726 2.4622 14.7684 3.00137 14.9184 3.6397C15.0676 4.27137 14.9592 4.92304 14.6117 5.47387C14.6094 5.47754 14.6071 5.48117 14.5991 5.49197L14.5928 5.50032C14.5364 5.57465 14.2912 5.8847 13.0536 7.43519C13.0421 7.45551 13.0291 7.47454 13.0149 7.49304C12.994 7.5203 12.9713 7.54535 12.9471 7.56817C12.8627 7.67445 12.7735 7.78612 12.6798 7.90353L12.4898 8.14142C12.0979 8.63223 11.6331 9.21424 11.0816 9.90455L10.7985 10.2588C9.73379 11.5914 8.3702 13.2977 6.6234 15.483C6.2409 15.9597 5.66757 16.2372 5.05173 16.2447L2.01923 16.283H2.0109C1.72173 16.283 1.47007 16.0847 1.40257 15.8022L0.720066 12.9097C0.579232 12.3105 0.719232 11.6922 1.1034 11.2122L8.9534 1.39387C8.95673 1.39054 8.95923 1.38637 8.96257 1.38304C9.8234 0.353869 11.3801 0.202202 12.4301 1.0447ZM8.07817 4.48917L2.07923 11.993C1.93673 12.1714 1.88423 12.4014 1.93673 12.6222L2.50423 15.0264L5.03673 14.9947C5.27757 14.9922 5.50007 14.8847 5.64757 14.7014C6.40714 13.751 7.36178 12.5566 8.34328 11.3284L8.69053 10.8938L9.03837 10.4585C9.95885 9.30657 10.8682 8.16839 11.6291 7.21572L8.07817 4.48917ZM9.92507 2.18054L8.859 3.5125L12.4096 6.23827C13.0931 5.38225 13.5427 4.81845 13.5842 4.7647C13.7209 4.54304 13.7742 4.2297 13.7026 3.92804C13.6292 3.61887 13.4367 3.35637 13.1592 3.18887C13.1001 3.14804 11.6959 2.05804 11.6526 2.02387C11.1242 1.60054 10.3534 1.67387 9.92507 2.18054Z" fill="white"/>
</svg>
