<svg width="160" height="160" viewBox="0 0 160 160" fill="none" xmlns="http://www.w3.org/2000/svg">
<circle opacity="0.1" cx="80" cy="80" r="80" fill="#00CFF4"/>
<path d="M120 95.7624C120 106.922 111.04 115.962 99.88 116.002H99.84H60.2C49.08 116.002 40 107.002 40 95.8424V95.8024C40 95.8024 40.024 78.0984 40.056 69.1944C40.06 67.5224 41.98 66.5864 43.288 67.6264C52.792 75.1664 69.788 88.9144 70 89.0944C72.84 91.3704 76.44 92.6544 80.12 92.6544C83.8 92.6544 87.4 91.3704 90.24 89.0504C90.452 88.9104 107.068 75.5744 116.716 67.9104C118.028 66.8664 119.956 67.8024 119.96 69.4704C120 78.3064 120 95.7624 120 95.7624Z" fill="#3A3A3A"/>
<path d="M117.904 54.696C114.44 48.168 107.624 44 100.12 44H60.1995C52.6955 44 45.8795 48.168 42.4155 54.696C41.6395 56.156 42.0075 57.976 43.2995 59.008L72.9995 82.764C75.0795 84.444 77.5995 85.28 80.1195 85.28C80.1355 85.28 80.1475 85.28 80.1595 85.28C80.1715 85.28 80.1875 85.28 80.1995 85.28C82.7195 85.28 85.2395 84.444 87.3195 82.764L117.02 59.008C118.312 57.976 118.68 56.156 117.904 54.696Z" fill="#00CFF4"/>
</svg>
