<svg width="18" height="22" viewBox="0 0 18 22" fill="none" xmlns="http://www.w3.org/2000/svg">
<path fill-rule="evenodd" clip-rule="evenodd" d="M1.88354 2.05377C2.96018 0.898836 4.49524 0.25 6.31429 0.25H11.6857C13.509 0.25 15.0445 0.898535 16.1204 2.05412C17.1906 3.20365 17.75 4.79384 17.75 6.58516V15.4148C17.75 17.2062 17.1906 18.7964 16.1204 19.9459C15.0445 21.1015 13.509 21.75 11.6857 21.75H6.31429C4.49096 21.75 2.9555 21.1015 1.87964 19.9459C0.809425 18.7964 0.25 17.2062 0.25 15.4148V6.58516C0.25 4.79292 0.812353 3.20285 1.88354 2.05377ZM2.98074 3.07659C2.21146 3.90181 1.75 5.10432 1.75 6.58516V15.4148C1.75 16.8966 2.20962 18.099 2.9775 18.9238C3.73974 19.7425 4.86142 20.25 6.31429 20.25H11.6857C13.1386 20.25 14.2603 19.7425 15.0225 18.9238C15.7904 18.099 16.25 16.8966 16.25 15.4148V6.58516C16.25 5.1034 15.7904 3.90101 15.0225 3.07623C14.2603 2.25751 13.1386 1.75 11.6857 1.75H6.31429C4.86666 1.75 3.74458 2.25721 2.98074 3.07659ZM6.58984 9.5199C6.58984 8.18572 7.66557 7.10986 8.99982 7.10986C10.3341 7.10986 11.4098 8.18572 11.4098 9.5199C11.4098 10.5728 10.7176 11.1285 10.2645 11.4381C10.0701 11.5724 9.94477 11.6781 9.8636 11.7869C9.79617 11.8774 9.74982 11.982 9.74982 12.1499V12.3599C9.74982 12.7741 9.41403 13.1099 8.99982 13.1099C8.5856 13.1099 8.24982 12.7741 8.24982 12.3599V12.1499C8.24982 11.073 8.9585 10.517 9.4137 10.2027L9.41687 10.2005L9.41687 10.2005C9.60205 10.0741 9.7232 9.97084 9.80095 9.8659C9.86605 9.77804 9.90979 9.67763 9.90979 9.5199C9.90979 9.01408 9.50557 8.60986 8.99982 8.60986C8.49407 8.60986 8.08984 9.01408 8.08984 9.5199C8.08984 9.93411 7.75406 10.2699 7.33984 10.2699C6.92563 10.2699 6.58984 9.93411 6.58984 9.5199ZM8.2455 14.75C8.2455 14.3358 8.58129 14 8.9955 14H9.0045C9.41871 14 9.7545 14.3358 9.7545 14.75C9.7545 15.1642 9.41871 15.5 9.0045 15.5H8.9955C8.58129 15.5 8.2455 15.1642 8.2455 14.75Z" fill="#3A3A3A"/>
</svg>
