<svg width="22" height="20" viewBox="0 0 22 20" fill="none" xmlns="http://www.w3.org/2000/svg">
<path d="M10.1841 19.6426C9.8923 19.5325 9.57234 19.4614 9.31474 19.3036C8.79902 18.9877 8.57362 18.5041 8.55266 17.9382C8.54909 17.8379 8.55164 17.7376 8.55164 17.6369C8.55062 17.2677 8.59355 16.9103 8.25468 16.5972C7.98124 16.3449 7.93779 15.9715 7.93779 15.6104C7.93779 14.7977 7.64339 14.1051 7.02341 13.5066C4.21534 10.7974 5.40624 6.34699 9.26465 5.17177C11.5437 4.47728 14.0063 5.19767 15.4231 6.98122C16.8087 8.72569 16.8746 10.9669 15.603 12.7858C15.4057 13.0683 15.1588 13.3254 14.9109 13.5735C14.3334 14.1512 14.062 14.8325 14.0625 15.6104C14.0625 15.9781 13.972 16.3176 13.7456 16.6231C13.7343 16.6387 13.7292 16.6608 13.7139 16.6707C13.4123 16.8684 13.4517 17.1599 13.4445 17.448C13.4364 17.772 13.4476 18.1091 13.3566 18.4166C13.1563 19.0941 12.6411 19.4877 11.8908 19.6149C11.8652 19.6191 11.8412 19.6328 11.8166 19.6422C11.2723 19.6426 10.7285 19.6426 10.1841 19.6426ZM10.9973 16.2526C11.3919 16.2526 11.786 16.2554 12.1806 16.2516C12.5813 16.2479 12.8348 16.0205 12.8353 15.6527C12.8363 14.5147 13.257 13.5424 14.108 12.7095C15.0898 11.7485 15.443 10.5978 15.2094 9.29117C14.9089 7.61121 13.3101 6.22881 11.4716 6.07438C9.96692 5.94819 8.69475 6.38513 7.71086 7.45253C6.86292 8.37209 6.58998 9.45314 6.78063 10.635C6.91352 11.4599 7.31372 12.1708 7.94546 12.765C8.79238 13.5617 9.15885 14.5274 9.16447 15.6278C9.16651 16.0299 9.41287 16.2498 9.85447 16.2516C10.2358 16.254 10.6165 16.2526 10.9973 16.2526ZM9.77832 17.3897C9.77832 17.5973 9.77014 17.7847 9.78036 17.9716C9.79723 18.2739 10.0426 18.5018 10.3722 18.5089C10.7929 18.5183 11.2135 18.5178 11.6342 18.5089C11.9235 18.5027 12.1698 18.3186 12.2051 18.0597C12.2352 17.8407 12.2112 17.6157 12.2112 17.3897C11.398 17.3897 10.5992 17.3897 9.77832 17.3897Z" fill="#3A3A3A"/>
<path d="M11.1635 0.356934C11.5161 0.507132 11.6276 0.765154 11.6178 1.11499C11.5989 1.81042 11.6173 2.50633 11.6097 3.20176C11.6051 3.62081 11.1859 3.89155 10.7817 3.74323C10.5384 3.65377 10.3947 3.48003 10.3922 3.23943C10.384 2.46254 10.3866 1.68518 10.3901 0.907819C10.3917 0.627668 10.5936 0.475586 10.8363 0.356934C10.9462 0.356934 11.0551 0.356934 11.1635 0.356934Z" fill="#3A3A3A"/>
<path d="M0.553223 9.84912C0.715757 9.52377 0.995337 9.42065 1.37458 9.4296C2.12797 9.44702 2.88186 9.43007 3.63576 9.43713C4.08963 9.44137 4.38301 9.8284 4.22252 10.2013C4.12592 10.4259 3.93732 10.5587 3.67665 10.5606C2.83484 10.5681 1.99252 10.5657 1.15072 10.5624C0.846603 10.561 0.682024 10.3746 0.553223 10.1505C0.553223 10.0502 0.553223 9.94941 0.553223 9.84912Z" fill="#3A3A3A"/>
<path d="M19.5943 9.43478C19.9889 9.43478 20.3829 9.4329 20.7775 9.43525C21.1736 9.43808 21.4481 9.6735 21.4461 10.0031C21.444 10.3317 21.1695 10.5629 20.7704 10.5639C19.9817 10.5657 19.1925 10.5662 18.4039 10.5639C18.0078 10.5624 17.7333 10.3256 17.7354 9.99649C17.7374 9.66785 18.0119 9.4376 18.4111 9.43525C18.8056 9.4329 19.2002 9.43478 19.5943 9.43478Z" fill="#3A3A3A"/>
<path d="M6.4224 5.1261C6.4086 5.41331 6.31251 5.58705 6.10602 5.69441C5.90055 5.80129 5.68946 5.79611 5.48604 5.68311C5.43441 5.65438 5.38688 5.61625 5.34395 5.5767C4.7853 5.06254 4.22716 4.54838 3.67004 4.0328C3.48758 3.86424 3.41347 3.66366 3.49729 3.43107C3.57498 3.21589 3.74416 3.09018 3.9854 3.05157C4.18832 3.01908 4.36516 3.08029 4.50725 3.21024C5.08686 3.74041 5.66646 4.27058 6.23431 4.81158C6.33602 4.90857 6.38202 5.05547 6.4224 5.1261Z" fill="#3A3A3A"/>
<path d="M16.2644 5.7768C15.9342 5.75279 15.742 5.64873 15.6393 5.43309C15.533 5.21038 15.5718 4.9985 15.7512 4.82288C15.9986 4.58086 16.2572 4.34921 16.5118 4.11379C16.8338 3.81622 17.1537 3.51723 17.4793 3.22248C17.6643 3.05533 17.8867 2.99507 18.1351 3.07982C18.364 3.15845 18.5261 3.31901 18.5215 3.54219C18.5184 3.69803 18.4622 3.89202 18.3507 4.00031C17.7901 4.54743 17.2089 5.07666 16.6222 5.59977C16.5133 5.69676 16.3451 5.73819 16.2644 5.7768Z" fill="#3A3A3A"/>
<path d="M10.9973 16.2526C10.6165 16.2526 10.2358 16.254 9.85447 16.2516C9.41287 16.2498 9.16651 16.0299 9.16447 15.6278C9.15885 14.5274 8.79238 13.5617 7.94546 12.765C7.31372 12.1708 6.91352 11.4599 6.78063 10.635C6.58998 9.45314 6.86292 8.37209 7.71086 7.45253C8.69475 6.38513 9.96692 5.94819 11.4716 6.07438C13.3101 6.22881 14.9089 7.61121 15.2094 9.29117C15.443 10.5978 15.0898 11.7485 14.108 12.7095C13.257 13.5424 12.8363 14.5147 12.8353 15.6527C12.8348 16.0205 12.5813 16.2479 12.1806 16.2516C11.786 16.2554 11.3919 16.2526 10.9973 16.2526ZM11.6112 7.73315C11.6071 7.41769 11.3311 7.17662 10.9728 7.17568C9.76099 7.17191 8.63194 7.86405 8.1704 8.89708C8.12133 9.00678 8.08402 9.12167 8.05029 9.23608C7.96391 9.52706 8.129 9.82087 8.42953 9.9188C8.73876 10.02 9.06689 9.87737 9.20387 9.59581C9.31427 9.36886 9.40934 9.12685 9.5683 8.93098C9.91126 8.5091 10.3978 8.32218 10.9662 8.30381C11.3536 8.29204 11.6153 8.05521 11.6112 7.73315Z" fill="white"/>
<path d="M9.77832 17.3897C10.5992 17.3897 11.398 17.3897 12.2112 17.3897C12.2112 17.6157 12.2352 17.8407 12.2051 18.0597C12.1698 18.3186 11.9235 18.5027 11.6342 18.5089C11.2135 18.5178 10.7929 18.5183 10.3722 18.5089C10.0426 18.5018 9.79723 18.2739 9.78036 17.9716C9.76912 17.7847 9.77832 17.5968 9.77832 17.3897Z" fill="white"/>
<path d="M11.6112 7.73315C11.6153 8.05521 11.3536 8.29204 10.9662 8.30381C10.3978 8.32218 9.91126 8.5091 9.5683 8.93098C9.40934 9.12685 9.31427 9.36886 9.20387 9.59581C9.06689 9.87737 8.73876 10.02 8.42953 9.9188C8.129 9.82087 7.96391 9.52706 8.05029 9.23608C8.08402 9.12167 8.12133 9.00678 8.1704 8.89708C8.63194 7.86405 9.76099 7.17191 10.9728 7.17568C11.3311 7.17662 11.6071 7.41769 11.6112 7.73315Z" fill="#3A3A3A"/>
</svg>
