<svg width="40" height="38" viewBox="0 0 40 38" fill="none" xmlns="http://www.w3.org/2000/svg">
<path d="M4 38H6V12H4C2.93913 12 1.92172 12.4214 1.17157 13.1716C0.421427 13.9217 0 14.9391 0 16V34C0 35.0609 0.421427 36.0783 1.17157 36.8284C1.92172 37.5786 2.93913 38 4 38ZM36 12H22L24.244 5.264C24.4442 4.66283 24.4988 4.02269 24.4031 3.39631C24.3075 2.76993 24.0644 2.17523 23.694 1.66119C23.3235 1.14715 22.8362 0.728484 22.2722 0.439672C21.7082 0.150859 21.0836 0.000164226 20.45 0H20L10 10.876V38H32L39.824 20.808L40 20V16C40 14.9391 39.5786 13.9217 38.8284 13.1716C38.0783 12.4214 37.0609 12 36 12Z" fill="#FFCC00"/>
</svg>
