<?xml version="1.0" encoding="utf-8"?>
<!-- Generator: Adobe Illustrator 24.0.1, SVG Export Plug-In . SVG Version: 6.00 Build 0)  -->
<svg version="1.1" id="Layer_1" xmlns="http://www.w3.org/2000/svg" xmlns:xlink="http://www.w3.org/1999/xlink" x="0px" y="0px"
	 viewBox="0 0 40 40" style="enable-background:new 0 0 40 40;" xml:space="preserve">
<style type="text/css">
	.st0{fill:#ffffff;}
</style>
<g>
	<path class="st0" d="M5,12.42h30c0.41,0,0.75-0.34,0.75-0.75s-0.34-0.75-0.75-0.75H5c-0.41,0-0.75,0.34-0.75,0.75
		S4.59,12.42,5,12.42z"/>
	<path class="st0" d="M35,19.25H5c-0.41,0-0.75,0.34-0.75,0.75S4.59,20.75,5,20.75h30c0.41,0,0.75-0.34,0.75-0.75
		S35.41,19.25,35,19.25z"/>
	<path class="st0" d="M35,27.58H5c-0.41,0-0.75,0.34-0.75,0.75S4.59,29.08,5,29.08h30c0.41,0,0.75-0.34,0.75-0.75
		S35.41,27.58,35,27.58z"/>
</g>
</svg>
