<svg width="26" height="24" viewBox="0 0 26 24" fill="none" xmlns="http://www.w3.org/2000/svg">
<path d="M3.4002 4.79999C3.4002 4.58781 3.48448 4.38433 3.63451 4.2343C3.78454 4.08427 3.98802 3.99999 4.2002 3.99999H21.8002C22.0124 3.99999 22.2159 4.08427 22.3659 4.2343C22.5159 4.38433 22.6002 4.58781 22.6002 4.79999V9.59679C22.6002 9.80896 22.5159 10.0124 22.3659 10.1625C22.2159 10.3125 22.0124 10.3968 21.8002 10.3968H4.2002C3.98802 10.3968 3.78454 10.3125 3.63451 10.1625C3.48448 10.0124 3.4002 9.80896 3.4002 9.59679V4.79999ZM5.0002 5.59999V8.79679H21.0002V5.59999H5.0002ZM15.397 12C15.1848 12 14.9813 12.0843 14.8313 12.2343C14.6813 12.3843 14.597 12.5878 14.597 12.8V19.2C14.597 19.4122 14.6813 19.6156 14.8313 19.7657C14.9813 19.9157 15.1848 20 15.397 20H21.797C22.0092 20 22.2127 19.9157 22.3627 19.7657C22.5127 19.6156 22.597 19.4122 22.597 19.2V12.8C22.597 12.5878 22.5127 12.3843 22.3627 12.2343C22.2127 12.0843 22.0092 12 21.797 12H15.397ZM16.197 18.4V13.6H20.997V18.4H16.197ZM3.4002 13.6C3.4002 13.3878 3.48448 13.1843 3.63451 13.0343C3.78454 12.8843 3.98802 12.8 4.2002 12.8H12.2066C12.4188 12.8 12.6223 12.8843 12.7723 13.0343C12.9223 13.1843 13.0066 13.3878 13.0066 13.6C13.0066 13.8122 12.9223 14.0156 12.7723 14.1657C12.6223 14.3157 12.4188 14.4 12.2066 14.4H4.2002C3.98802 14.4 3.78454 14.3157 3.63451 14.1657C3.48448 14.0156 3.4002 13.8122 3.4002 13.6ZM4.2002 17.6C3.98802 17.6 3.78454 17.6843 3.63451 17.8343C3.48448 17.9843 3.4002 18.1878 3.4002 18.4C3.4002 18.6122 3.48448 18.8156 3.63451 18.9657C3.78454 19.1157 3.98802 19.2 4.2002 19.2H12.205C12.4172 19.2 12.6207 19.1157 12.7707 18.9657C12.9207 18.8156 13.005 18.6122 13.005 18.4C13.005 18.1878 12.9207 17.9843 12.7707 17.8343C12.6207 17.6843 12.4172 17.6 12.205 17.6H4.2002ZM0.200195 4.79999C0.200195 3.73912 0.621623 2.72171 1.37177 1.97156C2.12191 1.22142 3.13933 0.799988 4.2002 0.799988H21.8002C22.8611 0.799988 23.8785 1.22142 24.6286 1.97156C25.3788 2.72171 25.8002 3.73912 25.8002 4.79999V19.2C25.8002 20.2609 25.3788 21.2783 24.6286 22.0284C23.8785 22.7786 22.8611 23.2 21.8002 23.2H4.2002C3.13933 23.2 2.12191 22.7786 1.37177 22.0284C0.621623 21.2783 0.200195 20.2609 0.200195 19.2V4.79999ZM4.2002 2.39999C3.56368 2.39999 2.95323 2.65284 2.50314 3.10293C2.05305 3.55302 1.8002 4.16347 1.8002 4.79999V19.2C1.8002 19.8365 2.05305 20.447 2.50314 20.897C2.95323 21.3471 3.56368 21.6 4.2002 21.6H21.8002C22.4367 21.6 23.0472 21.3471 23.4973 20.897C23.9473 20.447 24.2002 19.8365 24.2002 19.2V4.79999C24.2002 4.16347 23.9473 3.55302 23.4973 3.10293C23.0472 2.65284 22.4367 2.39999 21.8002 2.39999H4.2002Z" fill="#3A3A3A"/>
</svg>
