<svg width="28" height="26" viewBox="0 0 28 26" fill="none" xmlns="http://www.w3.org/2000/svg">
<path d="M14 4L15.912 7.703L20 8.297L17 11L18 15L14 12.75L10 15L11 11L8 8.297L12.2 7.703L14 4Z" fill="#C0BCBC"/>
<path d="M15.736 26L14 25L18 18H24C24.2628 18.0004 24.523 17.9489 24.7658 17.8486C25.0087 17.7482 25.2293 17.6009 25.4151 17.4151C25.6009 17.2293 25.7482 17.0087 25.8486 16.7658C25.9489 16.523 26.0004 16.2628 26 16V4C26.0004 3.73725 25.9489 3.477 25.8486 3.23417C25.7482 2.99134 25.6009 2.7707 25.4151 2.58491C25.2293 2.39911 25.0087 2.25181 24.7658 2.15144C24.523 2.05107 24.2628 1.99961 24 2H4C3.73725 1.99961 3.477 2.05107 3.23417 2.15144C2.99134 2.25181 2.7707 2.39911 2.58491 2.58491C2.39911 2.7707 2.25181 2.99134 2.15144 3.23417C2.05107 3.477 1.99961 3.73725 2 4V16C1.99961 16.2628 2.05107 16.523 2.15144 16.7658C2.25181 17.0087 2.39911 17.2293 2.58491 17.4151C2.7707 17.6009 2.99134 17.7482 3.23417 17.8486C3.477 17.9489 3.73725 18.0004 4 18H13V20H4C2.93913 20 1.92172 19.5786 1.17157 18.8284C0.421428 18.0783 1.25074e-07 17.0609 1.25074e-07 16V4C-0.000131255 3.47468 0.103242 2.95447 0.304214 2.46911C0.505187 1.98375 0.79982 1.54274 1.17128 1.17128C1.54274 0.79982 1.98375 0.505187 2.46911 0.304215C2.95447 0.103242 3.47468 -0.000131255 4 1.25074e-07H24C24.5253 -0.000131255 25.0455 0.103242 25.5309 0.304215C26.0163 0.505187 26.4573 0.79982 26.8287 1.17128C27.2002 1.54274 27.4948 1.98375 27.6958 2.46911C27.8968 2.95447 28.0001 3.47468 28 4V16C28 17.0609 27.5786 18.0783 26.8284 18.8284C26.0783 19.5786 25.0609 20 24 20H19.165L15.736 26Z" fill="#C0BCBC"/>
</svg>
