<svg width="20" height="20" viewBox="0 0 20 20" fill="none" xmlns="http://www.w3.org/2000/svg">
<path fill-rule="evenodd" clip-rule="evenodd" d="M7 1.75C6.30964 1.75 5.75 2.30964 5.75 3C5.75 3.69036 6.30964 4.25 7 4.25C7.69036 4.25 8.25 3.69036 8.25 3C8.25 2.30964 7.69036 1.75 7 1.75ZM4.35352 2.25C4.67998 1.09575 5.74122 0.25 7 0.25C8.25878 0.25 9.32002 1.09575 9.64648 2.25H19C19.4142 2.25 19.75 2.58579 19.75 3C19.75 3.41421 19.4142 3.75 19 3.75H9.64648C9.32002 4.90425 8.25878 5.75 7 5.75C5.74122 5.75 4.67998 4.90425 4.35352 3.75H1C0.585786 3.75 0.25 3.41421 0.25 3C0.25 2.58579 0.585786 2.25 1 2.25H4.35352ZM15 8.75C14.3096 8.75 13.75 9.30964 13.75 10C13.75 10.6904 14.3096 11.25 15 11.25C15.6904 11.25 16.25 10.6904 16.25 10C16.25 9.30964 15.6904 8.75 15 8.75ZM12.3535 9.25C12.68 8.09575 13.7412 7.25 15 7.25C16.2588 7.25 17.32 8.09575 17.6465 9.25H19C19.4142 9.25 19.75 9.58579 19.75 10C19.75 10.4142 19.4142 10.75 19 10.75H17.6465C17.32 11.9043 16.2588 12.75 15 12.75C13.7412 12.75 12.68 11.9043 12.3535 10.75H1C0.585786 10.75 0.25 10.4142 0.25 10C0.25 9.58579 0.585786 9.25 1 9.25H12.3535ZM5 15.75C4.30964 15.75 3.75 16.3096 3.75 17C3.75 17.6904 4.30964 18.25 5 18.25C5.69036 18.25 6.25 17.6904 6.25 17C6.25 16.3096 5.69036 15.75 5 15.75ZM2.35352 16.25C2.67998 15.0957 3.74122 14.25 5 14.25C6.25878 14.25 7.32002 15.0957 7.64648 16.25H19C19.4142 16.25 19.75 16.5858 19.75 17C19.75 17.4142 19.4142 17.75 19 17.75H7.64648C7.32002 18.9043 6.25878 19.75 5 19.75C3.74122 19.75 2.67998 18.9043 2.35352 17.75H1C0.585786 17.75 0.25 17.4142 0.25 17C0.25 16.5858 0.585786 16.25 1 16.25H2.35352Z" fill="#3A3A3A"/>
</svg>
