<svg width="25" height="22" viewBox="0 0 25 22" fill="none" xmlns="http://www.w3.org/2000/svg">
<path d="M24.7067 5.30177C24.7067 9.67757 24.7067 14.0534 24.7067 18.4292C24.4005 19.032 24.0202 19.1337 23.438 18.7708C22.6742 18.2953 21.9073 17.825 21.1474 17.3431C20.8039 17.125 20.4403 17.0208 20.0318 17.0227C18.4239 17.0298 16.816 17.0259 15.2082 17.0259C15.1297 17.0259 15.0505 17.0259 14.9585 17.0259C14.8614 17.8199 14.7558 18.5907 14.6741 19.3647C14.539 20.6457 13.6408 21.4718 12.3579 21.4731C11.0312 21.4744 9.70448 21.4635 8.37842 21.4776C7.65202 21.4853 6.97837 21.3296 6.35362 20.9577C5.88201 20.6772 5.366 20.6631 4.8339 20.7055C4.82811 20.7467 4.82232 20.777 4.82039 20.8078C4.79079 21.3663 4.52828 21.6127 3.96466 21.6192C2.96803 21.6307 1.97075 21.632 0.974758 21.6655C0.526305 21.6803 0.195595 21.5471 0 21.1328C0 18.1885 0 15.245 0 12.3007C0.135115 11.9855 0.341005 11.748 0.710962 11.7461C1.84464 11.7403 2.97832 11.7371 4.11136 11.748C4.5077 11.7519 4.77793 12.0369 4.81782 12.4358C4.82425 12.4976 4.82425 12.56 4.83068 12.6797C5.06295 12.6134 5.27142 12.5677 5.46572 12.4886C5.52427 12.4648 5.57639 12.3464 5.57575 12.2711C5.57446 12.0228 5.53393 11.7744 5.53328 11.5261C5.53007 8.06842 5.53007 4.6114 5.53135 1.15374C5.53135 0.615857 5.81638 0.335332 6.34976 0.334689C10.6426 0.334045 14.936 0.331472 19.2288 0.335332C21.6725 0.337906 23.8008 1.94449 24.4828 4.29678C24.5787 4.62556 24.6334 4.96656 24.7067 5.30177ZM6.98673 1.78235C6.98673 4.67381 6.98673 7.53889 6.98673 10.4548C7.05944 10.3486 7.10512 10.2856 7.14694 10.2206C7.59926 9.51736 8.04578 8.81091 8.50324 8.11217C8.86483 7.56013 9.46642 7.34137 10.1008 7.5138C11.129 7.79304 11.8219 8.68737 11.8174 9.75156C11.8136 10.6781 11.625 11.5698 11.2705 12.4262C11.2384 12.5034 11.2107 12.5825 11.1714 12.6855C11.7409 12.6855 12.2717 12.6797 12.8018 12.6868C13.9381 12.7022 14.8768 13.4601 15.1097 14.5758C15.1753 14.8924 15.158 15.2257 15.1799 15.5782C15.2551 15.5782 15.3413 15.5782 15.4276 15.5782C16.9473 15.5782 18.4677 15.5776 19.9874 15.5795C20.1798 15.5795 20.3741 15.584 20.5645 15.6065C21.0689 15.6664 21.5213 15.8652 21.9465 16.1374C22.3693 16.4082 22.7997 16.6682 23.2617 16.9551C23.2617 16.8309 23.2617 16.7531 23.2617 16.6752C23.2617 13.0883 23.2636 9.50064 23.261 5.91365C23.2591 3.54657 21.4897 1.78299 19.1252 1.78299C15.1844 1.78299 11.2441 1.78299 7.30329 1.78299C7.20742 1.78235 7.11155 1.78235 6.98673 1.78235ZM4.8294 19.2347C4.90339 19.2386 4.951 19.2456 4.99797 19.2431C5.80737 19.1967 6.55051 19.3936 7.26018 19.7906C7.51497 19.9334 7.83925 20.0107 8.13328 20.0152C9.56421 20.0377 10.9958 20.0274 12.4274 20.0242C12.87 20.0229 13.1699 19.7526 13.2239 19.3119C13.3899 17.9556 13.5553 16.6 13.7142 15.243C13.7907 14.5893 13.3828 14.1364 12.7259 14.1332C12.1629 14.1306 11.5999 14.1402 11.037 14.1299C10.5338 14.1209 10.1375 13.8977 9.87627 13.4666C9.6144 13.0355 9.61247 12.5838 9.82479 12.1296C10.1735 11.3839 10.364 10.6015 10.3743 9.77794C10.3788 9.44723 10.2417 9.19116 9.95991 9.00972C9.79648 8.9042 9.69676 8.90935 9.57837 9.09593C8.77411 10.3654 7.96214 11.6303 7.14051 12.8882C6.71843 13.5341 6.1027 13.9028 5.34798 14.0411C5.17748 14.0727 5.00376 14.0875 4.8294 14.11C4.8294 15.8208 4.8294 17.5155 4.8294 19.2347ZM3.36629 20.1799C3.36629 17.8327 3.36629 15.5268 3.36629 13.2054C2.72611 13.2054 2.09493 13.2054 1.45924 13.2054C1.45924 15.5403 1.45924 17.8604 1.45924 20.1799C2.09686 20.1799 2.72096 20.1799 3.36629 20.1799Z" fill="#3A3A3A"/>
<path d="M14.5826 4.67769C12.7894 4.67769 10.9956 4.67962 9.20243 4.6764C8.65746 4.67576 8.30745 4.24468 8.44514 3.75698C8.52556 3.47323 8.77328 3.26541 9.07246 3.2326C9.10463 3.22938 9.1368 3.23003 9.16897 3.23003C12.7798 3.23003 16.3912 3.22938 20.002 3.23067C20.4311 3.23067 20.7413 3.51763 20.7599 3.91332C20.7805 4.34891 20.4697 4.67254 20.0116 4.67511C19.0948 4.68026 18.1779 4.67704 17.2611 4.67704C16.368 4.67833 15.475 4.67833 14.5826 4.67769Z" fill="#3A3A3A"/>
<path d="M17.0192 7.57372C16.0303 7.57372 15.0414 7.57629 14.0531 7.57179C13.6465 7.56986 13.3447 7.29898 13.3119 6.92581C13.272 6.47221 13.5931 6.12863 14.0712 6.1267C14.9957 6.12284 15.9203 6.12541 16.8442 6.12541C17.8975 6.12541 18.9501 6.12155 20.0033 6.1267C20.5831 6.12927 20.9408 6.69097 20.6796 7.18253C20.5335 7.4579 20.2935 7.57436 19.9853 7.57372C18.9964 7.57243 18.0075 7.57372 17.0192 7.57372Z" fill="#3A3A3A"/>
<path d="M17.0331 10.4691C16.0442 10.4691 15.0559 10.4723 14.067 10.4678C13.5973 10.4659 13.282 10.1351 13.3104 9.6912C13.3348 9.29872 13.6469 9.0227 14.0805 9.02206C15.4793 9.02013 16.878 9.02142 18.2768 9.02142C18.8398 9.02142 19.4021 9.02013 19.9651 9.02206C20.4386 9.02335 20.7578 9.31417 20.7597 9.74074C20.7623 10.1705 20.4483 10.4665 19.9754 10.4684C18.9948 10.4717 18.0136 10.4697 17.0331 10.4691Z" fill="#3A3A3A"/>
</svg>
