<svg width="20" height="18" viewBox="0 0 20 18" fill="none" xmlns="http://www.w3.org/2000/svg">
<path fill-rule="evenodd" clip-rule="evenodd" d="M12.941 1C12.941 0.447715 12.4933 0 11.941 0H8.05869C7.5064 0 7.05869 0.447716 7.05869 1V17.6471H12.941V1ZM11.441 16.1471V1.5H8.55869V16.1471H11.441ZM14.441 9.67556C14.2423 9.85833 14.1178 10.1205 14.1178 10.4117V17.647H20.0002V10.4117C20.0002 9.85945 19.5525 9.41174 19.0002 9.41174H15.1178C14.8568 9.41174 14.6191 9.51176 14.441 9.67556ZM18.5002 16.147V10.9117H15.6178V16.147H18.5002ZM5.88235 17.6471V6.88239C5.88235 6.59092 5.75765 6.32857 5.55869 6.14579C5.38065 5.98224 5.14316 5.88239 4.88235 5.88239H1C0.447715 5.88239 0 6.33011 0 6.88239V17.6471H5.88235ZM4.38235 16.1471H1.5V7.38239H4.38235V16.1471Z" fill="#3A3A3A"/>
</svg>
