<svg width="15" height="14" viewBox="0 0 15 14" fill="none" xmlns="http://www.w3.org/2000/svg">
<path d="M8.98951 1.63425L9.54925 2.77371C9.82912 3.33345 10.5288 3.85322 11.1485 3.97316L11.9081 4.0931C14.1871 4.47293 14.7268 6.15216 13.0876 7.81139L12.3879 8.51105C11.9281 8.99083 11.6683 9.91041 11.8082 10.5501L11.9081 10.9699C12.5279 13.7287 11.0685 14.7882 8.66965 13.3488L8.14987 13.049C7.53015 12.6891 6.53062 12.6891 5.91091 13.049L5.39113 13.3488C2.97225 14.8081 1.51293 13.7287 2.15263 10.9699L2.25256 10.5501C2.3925 9.91041 2.13266 8.99083 1.67287 8.51105L0.973184 7.81139C-0.66606 6.15216 -0.126316 4.47293 2.15263 4.0931L2.91229 3.97316C3.51202 3.87321 4.23166 3.33345 4.51153 2.77371L5.07127 1.63425C6.15077 -0.544749 7.91001 -0.544749 8.98951 1.63425Z" fill="#E7E7E7"/>
</svg>
