<svg width="15" height="14" viewBox="0 0 15 14" fill="none" xmlns="http://www.w3.org/2000/svg">
<path d="M8.96607 1.63425L9.52581 2.77371C9.80568 3.33345 10.5053 3.85322 11.125 3.97316L11.8847 4.0931C14.1637 4.47293 14.7034 6.15216 13.0642 7.81139L12.3645 8.51105C11.9047 8.99083 11.6448 9.91041 11.7848 10.5501L11.8847 10.9699C12.5044 13.7287 11.0451 14.7882 8.64621 13.3488L8.12643 13.049C7.50672 12.6891 6.50719 12.6891 5.88747 13.049L5.36769 13.3488C2.94881 14.8081 1.48949 13.7287 2.1292 10.9699L2.22913 10.5501C2.36906 9.91041 2.10922 8.99083 1.64944 8.51105L0.949747 7.81139C-0.689497 6.15216 -0.149753 4.47293 2.1292 4.0931L2.88886 3.97316C3.48858 3.87321 4.20822 3.33345 4.48809 2.77371L5.04783 1.63425C6.12734 -0.544749 7.88657 -0.544749 8.96607 1.63425Z" fill="#FFCC00"/>
</svg>
