<svg width="97" height="91" viewBox="0 0 97 91" fill="none" xmlns="http://www.w3.org/2000/svg">
<path fill-rule="evenodd" clip-rule="evenodd" d="M26.7114 8.13587C32.7707 2.91082 40.499 0.0250898 48.5 0C64.8081 0 78.3457 12.125 79.8189 27.7602C89.4704 29.1243 97 37.2056 97 47.1238C97 58.0121 87.9184 66.6875 76.9149 66.6875H60.625C59.8211 66.6875 59.05 66.3681 58.4816 65.7997C57.9131 65.2312 57.5938 64.4602 57.5938 63.6562C57.5938 62.8523 57.9131 62.0813 58.4816 61.5128C59.05 60.9444 59.8211 60.625 60.625 60.625H76.921C84.7477 60.625 90.9375 54.4897 90.9375 47.1238C90.9375 39.7518 84.7538 33.6166 76.9149 33.6166H73.8837V30.5853C73.8898 17.1266 62.6135 6.0625 48.5 6.0625C41.9517 6.08866 35.6283 8.45375 30.6702 12.7312C26.0809 16.684 23.6801 21.4491 23.6801 25.1897V27.9057L20.9823 28.2027C12.513 29.1303 6.0625 36.084 6.0625 44.3654C6.0625 53.2591 13.5194 60.625 22.9223 60.625H36.375C37.1789 60.625 37.9499 60.9444 38.5184 61.5128C39.0869 62.0813 39.4062 62.8523 39.4062 63.6562C39.4062 64.4602 39.0869 65.2312 38.5184 65.7997C37.9499 66.3681 37.1789 66.6875 36.375 66.6875H22.9223C10.3547 66.6875 0 56.7814 0 44.3654C0 33.6772 7.67513 24.8259 17.8359 22.5828C18.7028 17.3509 22.0675 12.1371 26.7114 8.13587Z" fill="#C0BCBC"/>
<path fill-rule="evenodd" clip-rule="evenodd" d="M46.3539 25.1351C46.6355 24.8528 46.97 24.6289 47.3382 24.4761C47.7065 24.3232 48.1013 24.2446 48.5 24.2446C48.8987 24.2446 49.2935 24.3232 49.6618 24.4761C50.03 24.6289 50.3645 24.8528 50.6461 25.1351L68.8336 43.3226C69.4028 43.8918 69.7226 44.6638 69.7226 45.4688C69.7226 46.2737 69.4028 47.0457 68.8336 47.6149C68.2644 48.1841 67.4925 48.5038 66.6875 48.5038C65.8825 48.5038 65.1106 48.1841 64.5414 47.6149L51.5312 34.5987V87.9062C51.5312 88.7102 51.2119 89.4812 50.6434 90.0497C50.0749 90.6181 49.3039 90.9375 48.5 90.9375C47.6961 90.9375 46.9251 90.6181 46.3566 90.0497C45.7881 89.4812 45.4688 88.7102 45.4688 87.9062V34.5987L32.4586 47.6149C31.8894 48.1841 31.1175 48.5038 30.3125 48.5038C29.5075 48.5038 28.7356 48.1841 28.1664 47.6149C27.5972 47.0457 27.2774 46.2737 27.2774 45.4688C27.2774 44.6638 27.5972 43.8918 28.1664 43.3226L46.3539 25.1351Z" fill="#C0BCBC"/>
</svg>
