<svg width="31" height="31" viewBox="0 0 31 31" fill="none" xmlns="http://www.w3.org/2000/svg">
<path d="M23.7908 15.8905C23.7773 13.5809 24.8237 11.8403 26.9369 10.5568C25.755 8.8635 23.9669 7.93221 21.6099 7.75272C19.3782 7.57662 16.9365 9.05314 16.0425 9.05314C15.0976 9.05314 12.937 7.81368 11.237 7.81368C7.72856 7.86786 4 10.6109 4 16.1919C4 17.8412 4.3014 19.5446 4.9042 21.2988C5.71019 23.6084 8.61583 29.2673 11.6468 29.1758C13.2317 29.1386 14.3526 28.0515 16.415 28.0515C18.4164 28.0515 19.4527 29.1758 21.2205 29.1758C24.2785 29.1318 26.9064 23.9877 27.6718 21.6713C23.5707 19.7376 23.7908 16.0091 23.7908 15.8905V15.8905ZM20.2316 5.56164C21.9486 3.52296 21.7928 1.66714 21.742 1C20.2248 1.08805 18.4706 2.03289 17.4716 3.19447C16.371 4.4407 15.7241 5.98157 15.863 7.71886C17.5021 7.84416 18.9989 7.00091 20.2316 5.56164V5.56164Z" fill="white"/>
</svg>
