<svg width="1920" height="960" viewBox="0 0 1920 960" fill="none" xmlns="http://www.w3.org/2000/svg">
<rect width="1920" height="960" fill="url(#paint0_linear_301_69)"/>
<path opacity="0.15" d="M308.429 251.815C295.099 269.075 280.109 284.925 266.439 301.885C249.929 322.375 238.309 345.805 225.419 368.505C210.459 394.855 195.199 421.025 173.309 442.525C148.279 467.105 118.069 480.155 83.2593 482.775C59.8493 484.535 36.7693 482.635 14.1693 475.955C-13.0107 467.915 -37.0907 454.215 -58.6907 436.065C-65.7907 430.095 -73.2007 424.395 -78.9207 416.945C-89.1607 407.355 -97.7407 396.345 -105.841 384.985C-131.941 348.435 -150.731 308.545 -160.531 264.565C-166.951 235.805 -164.841 208.075 -151.001 181.725C-140.641 161.995 -123.501 152.675 -101.921 150.425C-81.9507 148.345 -62.4307 151.935 -42.9607 155.505C-15.4807 160.545 11.8393 166.485 39.7393 168.925C56.0693 169.685 72.2693 168.735 88.4593 166.275C93.8593 165.455 98.9993 163.785 103.869 161.945C115.279 157.645 127.029 154.015 138.649 150.985C149.679 148.105 160.509 144.295 171.739 141.825C186.769 138.505 201.829 135.255 216.999 133.185C238.799 130.215 260.749 129.445 282.259 136.245C305.089 143.465 318.419 159.105 324.709 181.855C332.009 208.295 324.559 230.935 308.439 251.815H308.429Z" fill="url(#paint1_linear_301_69)"/>
<path opacity="0.15" d="M1714.09 9.81521C1727.42 27.0752 1742.41 42.9252 1756.08 59.8852C1772.59 80.3752 1784.21 103.805 1797.1 126.505C1812.06 152.855 1827.32 179.025 1849.21 200.525C1874.24 225.105 1904.45 238.155 1939.26 240.775C1962.67 242.535 1985.75 240.635 2008.35 233.955C2035.53 225.915 2059.61 212.215 2081.21 194.065C2088.31 188.095 2095.72 182.395 2101.44 174.945C2111.68 165.355 2120.26 154.345 2128.36 142.985C2154.46 106.435 2173.25 66.5452 2183.05 22.5652C2189.47 -6.1948 2187.36 -33.9248 2173.52 -60.2748C2163.16 -80.0048 2146.02 -89.3248 2124.44 -91.5748C2104.47 -93.6548 2084.95 -90.0648 2065.48 -86.4948C2038 -81.4548 2010.68 -75.5148 1982.78 -73.0748C1966.45 -72.3148 1950.25 -73.2648 1934.06 -75.7248C1928.66 -76.5448 1923.52 -78.2148 1918.65 -80.0548C1907.24 -84.3548 1895.49 -87.9848 1883.87 -91.0148C1872.84 -93.8948 1862.01 -97.7048 1850.78 -100.175C1835.75 -103.495 1820.69 -106.745 1805.52 -108.815C1783.72 -111.785 1761.77 -112.555 1740.26 -105.755C1717.43 -98.5348 1704.1 -82.8948 1697.81 -60.1448C1690.51 -33.7048 1697.96 -11.0648 1714.08 9.81521H1714.09Z" fill="url(#paint2_linear_301_69)"/>
<path opacity="0.05" d="M1673.31 712.798L1623.1 766.13L1594.86 796.12C1587.51 803.754 1579.67 810.446 1571.8 816.237C1551.07 831.528 1530.2 840.216 1518.1 840.216C1504.77 840.216 1491.41 827.163 1493.07 815.711C1498.07 799.389 1516.44 740.572 1528.12 709.529L1646.61 392.63C1703.34 239.106 1663.29 147.623 1539.82 147.623C1463.06 147.623 1401.31 175.397 1249.47 279.933C1267.83 198.257 1251.13 146 1181.05 146C1117.38 146 1059.19 178.315 980.618 263.019C962.42 282.654 943.123 305.075 922.392 330.567L941.868 346.692L944.087 348.534L995.163 294.457L1025.85 261.966C1050.88 235.837 1082.59 221.139 1097.59 221.139C1110.94 221.139 1125.96 234.192 1124.28 245.644C1119.28 261.966 1099.24 320.783 1087.57 351.825L884 899.011L1004.6 860.487L1042.52 848.377C1103.28 682.479 1165.58 518.03 1227.93 352.264C1230.67 345.024 1233.36 337.829 1236.09 330.589C1342.89 257.096 1386.27 237.483 1441.34 237.483C1523.1 237.483 1544.79 288.116 1504.77 395.921L1392.95 698.121C1346.22 822.27 1334.55 917 1433 917C1483.45 917 1528.82 898.265 1582.42 851.755C1615.71 822.885 1652.15 783.352 1695 730.788L1673.31 712.82V712.798Z" fill="white"/>
<defs>
<linearGradient id="paint0_linear_301_69" x1="960" y1="0" x2="960" y2="960" gradientUnits="userSpaceOnUse">
<stop stop-color="#BE2D87"/>
<stop offset="1" stop-color="#F74989"/>
</linearGradient>
<linearGradient id="paint1_linear_301_69" x1="328" y1="131" x2="-147.5" y2="425" gradientUnits="userSpaceOnUse">
<stop stop-color="white"/>
<stop offset="1" stop-color="white" stop-opacity="0"/>
</linearGradient>
<linearGradient id="paint2_linear_301_69" x1="1694.52" y1="-111" x2="2170.02" y2="183" gradientUnits="userSpaceOnUse">
<stop stop-color="white"/>
<stop offset="1" stop-color="white" stop-opacity="0"/>
</linearGradient>
</defs>
</svg>
