<svg width="28" height="22" viewBox="0 0 28 22" fill="none" xmlns="http://www.w3.org/2000/svg">
<path d="M4.68323 14.0652C4.47719 14.0657 4.27598 14.0028 4.10699 13.8849C3.88326 13.7308 3.72954 13.4946 3.67928 13.2276C3.62902 12.9607 3.6863 12.6847 3.83869 12.4598C4.14219 12.0199 5.19788 11.1402 5.75209 11.1402C5.82055 11.137 5.88825 11.1555 5.9456 11.193C6.38545 11.4965 5.88404 13.102 5.53216 13.6166C5.43861 13.7556 5.31215 13.8692 5.16404 13.9475C5.01593 14.0258 4.85075 14.0662 4.68323 14.0652Z" fill="#DDDDDD"/>
<path d="M3.316 14.0081C3.221 14.1544 3.09048 14.2743 2.93666 14.3566C2.78285 14.4389 2.61073 14.4809 2.4363 14.4787C2.23992 14.4778 2.0478 14.4214 1.88208 14.316C1.35866 13.9773 0.263431 12.7017 0.56253 12.2487C0.641703 12.1255 0.835242 12.0596 1.11675 12.0596C1.77509 12.0971 2.41743 12.2772 2.99932 12.5874C3.2288 12.7346 3.39081 12.9665 3.45013 13.2326C3.50944 13.4986 3.46124 13.7774 3.316 14.0081Z" fill="#DDDDDD"/>
<path d="M4.37114 10.2209C4.21872 10.3092 4.04586 10.3562 3.8697 10.3573C3.7 10.3576 3.53315 10.3136 3.38577 10.2295C3.23838 10.1454 3.11557 10.0241 3.02957 9.87784C2.90675 9.65319 2.87666 9.3894 2.9457 9.14284C3.01474 8.89629 3.1774 8.6865 3.39903 8.55829C3.94857 8.29105 4.54778 8.14125 5.15843 8.11844C5.47073 8.11844 5.6731 8.18882 5.74787 8.31638C6.00299 8.73863 4.89456 9.91742 4.37114 10.2209Z" fill="#DDDDDD"/>
<path d="M0.504175 7.64756C1.08038 7.64756 2.10963 8.26335 2.43073 8.58004C2.61311 8.76449 2.7154 9.01342 2.7154 9.27281C2.7154 9.5322 2.61311 9.78114 2.43073 9.96558C2.24955 10.1457 2.00444 10.2469 1.74893 10.2471C1.61758 10.2469 1.48764 10.2203 1.36675 10.1689C1.24586 10.1176 1.13648 10.0424 1.04518 9.94797C0.750967 9.61089 0.511963 9.22936 0.337029 8.81755C0.103908 8.28533 0.05991 7.88948 0.213858 7.73553C0.253557 7.70163 0.299847 7.67631 0.349808 7.66117C0.399769 7.64603 0.452335 7.6414 0.504175 7.64756Z" fill="#DDDDDD"/>
<path d="M4.59175 6.59632C4.40211 6.60141 4.21554 6.54741 4.05794 6.44182C3.90033 6.33622 3.77947 6.18426 3.71205 6.00693C3.66836 5.89476 3.64812 5.77479 3.65266 5.65449C3.6572 5.5342 3.68639 5.41612 3.73841 5.30756C3.78855 5.19654 3.86027 5.09659 3.94937 5.01353C4.03847 4.93047 4.1432 4.86597 4.25746 4.82373C4.65416 4.7056 5.06637 4.64777 5.48026 4.65218C6.04327 4.65218 6.4083 4.76655 6.48308 4.96008C6.65022 5.39993 5.42305 6.3368 4.90403 6.53473C4.804 6.5722 4.69852 6.59301 4.59175 6.59632Z" fill="#DDDDDD"/>
<path d="M1.9549 5.66395C1.59422 5.2241 0.978418 3.82538 1.3347 3.52188C1.39792 3.47461 1.47582 3.45123 1.55462 3.45589C2.07805 3.45589 3.05889 4.14207 3.3492 4.48515C3.50771 4.67208 3.58666 4.91366 3.56912 5.15811C3.56191 5.27836 3.53012 5.39584 3.47564 5.50328C3.42117 5.61072 3.34518 5.70584 3.25244 5.78272C3.09029 5.92357 2.88223 6.00023 2.66746 5.99824C2.5315 5.99784 2.39725 5.96772 2.27416 5.90997C2.15107 5.85223 2.04212 5.76825 1.9549 5.66395Z" fill="#DDDDDD"/>
<path d="M5.22827 3.57467C5.00309 3.57514 4.78441 3.49915 4.60806 3.35914C4.50435 3.27512 4.41823 3.17149 4.35458 3.05417C4.29093 2.93684 4.25104 2.80812 4.23715 2.67537C4.22326 2.54261 4.23562 2.40841 4.27361 2.28045C4.3116 2.1525 4.37445 2.03329 4.45853 1.92963C4.77522 1.52936 5.84404 0.73762 6.41584 0.73762C6.49516 0.73466 6.57348 0.756164 6.64017 0.799205C7.05363 1.12909 6.42905 2.69055 6.03758 3.17879C5.94152 3.30182 5.81875 3.40141 5.67853 3.46999C5.53832 3.53857 5.38435 3.57437 5.22827 3.57467Z" fill="#DDDDDD"/>
<path d="M22.6117 3.57467C22.4556 3.57437 22.3017 3.53857 22.1614 3.46999C22.0212 3.40141 21.8985 3.30182 21.8024 3.17879C21.4109 2.69055 20.7863 1.12909 21.1998 0.799205C21.2665 0.756164 21.3448 0.73466 21.4241 0.73762C21.9959 0.73762 23.0648 1.52936 23.3815 1.92963C23.4655 2.03329 23.5284 2.1525 23.5664 2.28045C23.6044 2.40841 23.6167 2.54261 23.6028 2.67537C23.5889 2.80812 23.5491 2.93684 23.4854 3.05417C23.4218 3.17149 23.3356 3.27512 23.2319 3.35914C23.0556 3.49915 22.8369 3.57514 22.6117 3.57467Z" fill="#DDDDDD"/>
<path d="M25.1719 5.99391C24.9571 5.99589 24.7491 5.91924 24.5869 5.77839C24.4942 5.70151 24.4182 5.60641 24.3637 5.49897C24.3092 5.39153 24.2774 5.27405 24.2702 5.15381C24.2527 4.90935 24.3316 4.66774 24.4902 4.48082C24.7805 4.13774 25.7613 3.45156 26.2847 3.45156C26.3622 3.44637 26.4389 3.46987 26.5002 3.51755C26.8609 3.82104 26.2451 5.23736 25.8844 5.65962C25.7972 5.76392 25.6883 5.84789 25.5652 5.90564C25.4421 5.96338 25.3078 5.99351 25.1719 5.99391Z" fill="#DDDDDD"/>
<path d="M24.0799 5.30756C24.1319 5.41612 24.1611 5.5342 24.1656 5.65449C24.1701 5.77479 24.15 5.89476 24.1063 6.00693C24.0389 6.18426 23.9179 6.33622 23.7603 6.44182C23.6027 6.54741 23.4162 6.60141 23.2266 6.59632C23.1124 6.59549 22.9993 6.57464 22.8923 6.53473C22.3733 6.3368 21.1329 5.39993 21.3132 4.96008C21.388 4.76655 21.753 4.65218 22.3161 4.65218C22.7299 4.64777 23.1422 4.7056 23.5389 4.82373C23.6571 4.86344 23.7661 4.92681 23.8591 5.00999C23.9521 5.09317 24.0272 5.19441 24.0799 5.30756Z" fill="#DDDDDD"/>
<path d="M23.9701 10.3573C23.7939 10.3563 23.6211 10.3093 23.4686 10.2209C22.9452 9.91743 21.8368 8.73863 22.0919 8.29878C22.1667 8.17123 22.369 8.10085 22.6813 8.10085C23.292 8.12365 23.8912 8.27346 24.4407 8.5407C24.6624 8.66891 24.825 8.87872 24.8941 9.12528C24.9631 9.37183 24.933 9.63559 24.8102 9.86025C24.7264 10.0098 24.6046 10.1346 24.4571 10.2219C24.3095 10.3092 24.1415 10.3559 23.9701 10.3573Z" fill="#DDDDDD"/>
<path d="M26.0792 10.2473C25.9533 10.2474 25.8286 10.2226 25.7124 10.1743C25.5961 10.1259 25.4906 10.0551 25.4018 9.96585C25.2194 9.78141 25.1171 9.53247 25.1171 9.27308C25.1171 9.01369 25.2194 8.76475 25.4018 8.58031C25.7229 8.26362 26.7522 7.64783 27.3284 7.64783C27.3788 7.64289 27.4297 7.64813 27.4781 7.66324C27.5264 7.67835 27.5712 7.70304 27.6099 7.7358C27.7638 7.88975 27.7198 8.2856 27.4867 8.81782C27.3118 9.22963 27.0728 9.61116 26.7785 9.94824C26.6878 10.0421 26.5791 10.117 26.459 10.1684C26.3389 10.2197 26.2098 10.2466 26.0792 10.2473Z" fill="#DDDDDD"/>
<path d="M25.3901 14.4787C25.1674 14.4803 24.9502 14.4092 24.7715 14.2763C24.5928 14.1434 24.4623 13.9558 24.3996 13.7421C24.337 13.5284 24.3457 13.3 24.4244 13.0917C24.5032 12.8833 24.6476 12.7063 24.8359 12.5874C25.4178 12.2772 26.0601 12.0971 26.7185 12.0596C27 12.0596 27.1935 12.1255 27.2727 12.2487C27.563 12.6885 26.4677 13.9773 25.9531 14.316C25.7855 14.4244 25.5897 14.481 25.3901 14.4787Z" fill="#DDDDDD"/>
<path d="M22.2767 13.6166C21.9248 13.102 21.397 11.4965 21.8632 11.193C21.9206 11.1555 21.9883 11.137 22.0567 11.1402C22.6109 11.1402 23.6666 12.0199 23.9701 12.4598C24.1225 12.6847 24.1798 12.9607 24.1295 13.2276C24.0793 13.4946 23.9255 13.7308 23.7018 13.8849C23.5908 13.9615 23.4657 14.0154 23.3338 14.0434C23.2019 14.0713 23.0658 14.0729 22.9333 14.0479C22.8007 14.023 22.6745 13.972 22.5618 13.898C22.4491 13.8239 22.3522 13.7283 22.2767 13.6166Z" fill="#DDDDDD"/>
<path d="M24.1376 18.3451C23.6982 18.5623 23.2279 18.7106 22.7433 18.7849C22.4569 18.8059 22.1739 18.7123 21.9566 18.5246C21.7392 18.337 21.6053 18.0706 21.5843 17.7842C21.5633 17.4979 21.6569 17.2149 21.8446 16.9975C22.0322 16.7802 22.2986 16.6462 22.5849 16.6252H22.6949C23.469 16.6252 24.9777 17.0079 25.0173 17.5357C25.0349 17.7688 24.7138 18.068 24.1376 18.3451Z" fill="#DDDDDD"/>
<path d="M21.3671 17.1441C21.2135 17.2238 21.0432 17.2661 20.8701 17.2673C20.6712 17.2682 20.4759 17.214 20.3059 17.1107C20.1359 17.0075 19.9977 16.8592 19.9068 16.6823C19.7111 16.2339 19.5879 15.7574 19.5417 15.2704C19.4758 14.6326 19.5417 14.2059 19.7792 14.0915C19.8271 14.068 19.8799 14.056 19.9332 14.0564C20.527 14.0564 21.5826 15.2132 21.8289 15.6838C21.9621 15.9362 21.9906 16.2309 21.9083 16.5041C21.826 16.7774 21.6395 17.0072 21.3891 17.1441H21.3671Z" fill="#DDDDDD"/>
<path d="M17.761 19.2992C17.51 19.2992 17.2652 19.2201 17.0616 19.0733C16.8579 18.9265 16.7056 18.7193 16.6262 18.4811C16.3975 17.7905 16.3447 15.842 16.9385 15.6396C16.9734 15.633 17.0092 15.633 17.0441 15.6396C17.6863 15.6396 18.6979 17.1483 18.8959 17.7421C18.9949 18.0431 18.971 18.3711 18.8292 18.6545C18.6875 18.9379 18.4395 19.1539 18.1393 19.2552H18.1129C17.9985 19.2873 17.8799 19.3021 17.761 19.2992Z" fill="#DDDDDD"/>
<path d="M19.1445 19.0662C19.374 19.0681 19.5982 19.1352 19.791 19.2598C20.2227 19.5813 20.6012 19.9687 20.9127 20.4078C21.3217 20.9796 21.4757 21.4415 21.3305 21.6702C21.2475 21.755 21.1458 21.819 21.0335 21.8572C20.9212 21.8954 20.8014 21.9067 20.6839 21.8901C19.9139 21.8493 19.1626 21.6374 18.4847 21.2699C18.2689 21.1295 18.1041 20.9233 18.0149 20.6818C17.9256 20.4404 17.9166 20.1765 17.9893 19.9296C18.0619 19.6826 18.2122 19.4656 18.4179 19.3109C18.6237 19.1562 18.8738 19.0719 19.1313 19.0706L19.1445 19.0662Z" fill="#DDDDDD"/>
<path d="M7.15532 21.89C7.03785 21.9066 6.9181 21.8954 6.80578 21.8572C6.69346 21.819 6.59174 21.7549 6.50875 21.6701C6.3636 21.4414 6.50873 20.9796 6.92659 20.4077C7.23801 19.9687 7.61652 19.5813 8.04823 19.2597C8.18008 19.1659 8.32957 19.0998 8.48771 19.0654C8.64585 19.031 8.80934 19.029 8.96826 19.0596C9.12718 19.0902 9.27824 19.1527 9.4123 19.2434C9.54635 19.3341 9.66059 19.451 9.74815 19.5871C9.83571 19.7232 9.89474 19.8757 9.92168 20.0353C9.94862 20.1949 9.9429 20.3582 9.90488 20.5155C9.86685 20.6728 9.79733 20.8208 9.70047 20.9505C9.60361 21.0801 9.48143 21.1888 9.34137 21.2698C8.66744 21.6355 7.92087 21.8473 7.15532 21.89Z" fill="#DDDDDD"/>
<path d="M5.09516 18.7758C4.61059 18.7015 4.14035 18.5531 3.70087 18.3359C3.12466 18.0588 2.82117 17.7597 2.82117 17.5134C2.86075 16.9856 4.36946 16.6029 5.14359 16.6029H5.25356C5.53995 16.6239 5.80627 16.7578 5.99393 16.9751C6.18159 17.1925 6.27517 17.4755 6.25418 17.7619C6.23318 18.0483 6.09928 18.3146 5.88192 18.5023C5.66457 18.6899 5.38155 18.7836 5.09516 18.7626V18.7758Z" fill="#DDDDDD"/>
<path d="M8.9449 17.7246C9.14283 17.1308 10.1545 15.6221 10.7967 15.6221C10.8316 15.6158 10.8674 15.6158 10.9023 15.6221C11.4961 15.82 11.4433 17.773 11.2145 18.4635C11.1158 18.76 10.9049 19.006 10.6271 19.149C10.3493 19.2921 10.0265 19.3207 9.72785 19.2289H9.70148L9.62229 19.1981C9.34564 19.0816 9.12268 18.8657 8.9973 18.593C8.87192 18.3202 8.8532 18.0104 8.9449 17.7246Z" fill="#DDDDDD"/>
<path d="M6.97037 17.2673C6.79735 17.2656 6.62713 17.2234 6.47334 17.1441C6.22293 17.0072 6.03643 16.7774 5.95413 16.5041C5.87183 16.2309 5.90032 15.9362 6.03349 15.6838C6.2798 15.2132 7.35307 14.0564 7.92927 14.0564C7.98263 14.056 8.03533 14.068 8.08321 14.0915C8.29874 14.2059 8.38672 14.6326 8.32075 15.2704C8.2746 15.7574 8.15134 16.2339 7.95564 16.6823C7.86304 16.8626 7.72153 17.0131 7.54725 17.1166C7.37297 17.2201 7.173 17.2723 6.97037 17.2673Z" fill="#DDDDDD"/>
<path d="M25.0613 8.97628C25.1154 8.80111 25.2104 8.64127 25.3384 8.51002C25.8977 8.00382 26.591 7.66944 27.3353 7.54677C27.3989 7.54217 27.4628 7.55029 27.5233 7.57069C27.5837 7.59108 27.6394 7.62331 27.6872 7.66551C27.9291 7.90303 27.7664 8.44845 27.586 8.85751C27.4045 9.27918 27.1598 9.67075 26.8603 10.0187C26.7578 10.1221 26.6359 10.2041 26.5015 10.26C26.3671 10.3158 26.2229 10.3445 26.0774 10.3442C25.7978 10.3456 25.5291 10.2365 25.3296 10.0407C25.2061 9.9186 25.1153 9.76733 25.0657 9.60086C25.0657 9.51729 25.0657 9.43812 25.0657 9.35455C25.0657 9.27098 25.0657 9.09944 25.0613 8.97628ZM25.4088 8.58041C25.2264 8.76485 25.1241 9.01379 25.1241 9.27318C25.1241 9.53257 25.2264 9.7815 25.4088 9.96595C25.4975 10.0552 25.6031 10.126 25.7193 10.1744C25.8356 10.2227 25.9603 10.2475 26.0862 10.2474C26.2183 10.2478 26.3491 10.2216 26.4708 10.1702C26.5925 10.1188 26.7025 10.0433 26.7943 9.94834C27.0885 9.61125 27.3275 9.22972 27.5025 8.81792C27.7356 8.2857 27.7796 7.88985 27.6256 7.7359C27.587 7.70313 27.5422 7.67845 27.4938 7.66333C27.4455 7.64822 27.3946 7.64299 27.3441 7.64792C26.7591 7.64792 25.7299 8.26371 25.4088 8.58041Z" fill="#848484"/>
<path d="M25.062 8.97612C25.062 9.09928 25.062 9.22683 25.062 9.35439C25.062 9.48194 25.062 9.51713 25.062 9.6007C25.0496 9.56465 25.0394 9.52794 25.0311 9.49074C25.0443 9.39884 25.0443 9.30553 25.0311 9.21363C25.0322 9.13353 25.0425 9.05384 25.062 8.97612Z" fill="#848484"/>
<path d="M25.0344 9.48243C25.0256 9.39008 25.0256 9.29712 25.0344 9.20477C25.0476 9.29685 25.0476 9.39035 25.0344 9.48243Z" fill="#848484"/>
<path d="M24.9612 8.99371C24.9905 9.06124 25.0113 9.13216 25.0229 9.20483C25.0141 9.29699 25.0141 9.38978 25.0229 9.48194C25.0153 9.58802 24.99 9.69209 24.9479 9.78984C24.9479 9.64469 24.9479 9.49514 24.9479 9.34999C24.9479 9.20484 24.97 9.11247 24.9612 8.99371Z" fill="#848484"/>
<path d="M24.27 13.4054C24.2756 13.1675 24.361 12.9383 24.5125 12.7545C24.442 12.9788 24.3582 13.1943 24.27 13.4054Z" fill="#848484"/>
<path d="M24.4402 14.0606C24.3166 13.8699 24.2551 13.6455 24.2643 13.4184C24.3522 13.2073 24.4358 12.9786 24.5061 12.7675C24.5806 12.6676 24.6731 12.5826 24.7788 12.5167C25.3744 12.1909 26.0361 12.0044 26.7142 11.9713C27.0397 11.9713 27.2553 12.0505 27.352 12.2044C27.7083 12.7586 26.4723 14.109 25.9928 14.4037C25.8112 14.5186 25.6008 14.5797 25.3858 14.5796C25.1973 14.5796 25.0118 14.532 24.8466 14.4413C24.6813 14.3506 24.5415 14.2196 24.4402 14.0606ZM24.836 12.5871C24.6477 12.706 24.5033 12.8831 24.4246 13.0914C24.3459 13.2998 24.3371 13.5281 24.3998 13.7418C24.4624 13.9556 24.5929 14.1431 24.7717 14.276C24.9504 14.4089 25.1675 14.48 25.3902 14.4785C25.5853 14.4781 25.7762 14.4216 25.9401 14.3157C26.4679 13.977 27.5631 12.7015 27.2596 12.2484C27.1804 12.1253 26.9869 12.0593 26.7054 12.0593C26.0512 12.1 25.4136 12.2816 24.836 12.5915V12.5871Z" fill="#848484"/>
<path d="M24.2696 5.15824C24.2768 5.27848 24.3086 5.39596 24.363 5.5034C24.4175 5.61084 24.4935 5.70597 24.5862 5.78284C24.7484 5.92369 24.9564 6.00035 25.1712 5.99837C25.3072 5.99796 25.4414 5.96784 25.5645 5.9101C25.6876 5.85235 25.7966 5.76837 25.8838 5.66408C26.2445 5.22422 26.8603 3.8255 26.4996 3.522C26.4383 3.47432 26.3616 3.45083 26.2841 3.45601C25.7606 3.45601 24.7798 4.14219 24.4895 4.48528C24.331 4.6722 24.252 4.91378 24.2696 5.15824ZM24.4631 5.80923C24.3751 5.55412 24.274 5.3034 24.1684 5.06148C24.1726 4.82515 24.2598 4.59782 24.4147 4.41929C24.7226 4.05421 25.7342 3.35486 26.2841 3.35486C26.3852 3.35091 26.4846 3.38199 26.5656 3.44283C27.0054 3.8299 26.2973 5.3342 25.963 5.73006C25.8656 5.84526 25.7444 5.93796 25.6077 6.00175C25.471 6.06554 25.3221 6.09889 25.1712 6.09952C24.933 6.09983 24.7023 6.01569 24.5202 5.86201L24.4631 5.80923Z" fill="#848484"/>
<path d="M24.9604 8.98927C24.9232 7.81104 24.6853 6.64778 24.2567 5.54963C24.2608 5.52784 24.2608 5.50547 24.2567 5.48367C24.3069 5.60606 24.3818 5.71684 24.4766 5.80916C24.8386 6.8275 25.0404 7.89586 25.0748 8.97609C25.0531 9.05061 25.0398 9.12732 25.0352 9.2048C25.0236 9.13212 25.0029 9.0612 24.9736 8.99368L24.9604 8.98927Z" fill="#848484"/>
<path d="M24.1946 5.32954C24.2173 5.37698 24.2336 5.42724 24.243 5.47896C24.2223 5.43076 24.2061 5.38073 24.1946 5.32954Z" fill="#848484"/>
<path d="M24.1958 5.32542C24.1827 5.27344 24.1739 5.22049 24.1694 5.16708C24.1651 5.13202 24.1651 5.09658 24.1694 5.06152C24.2752 5.30344 24.3766 5.55416 24.4648 5.80928C24.3698 5.71696 24.2947 5.60618 24.2443 5.48379C24.2349 5.43202 24.2186 5.38171 24.1958 5.33423V5.32542Z" fill="#848484"/>
<path d="M24.0852 5.11429C24.1197 5.16107 24.1493 5.21134 24.1734 5.26424C24.1759 5.28327 24.1759 5.30252 24.1734 5.32155C24.1849 5.37292 24.2012 5.42313 24.2219 5.4715C24.2261 5.49335 24.2261 5.51581 24.2219 5.53766C24.2043 5.40536 24.1469 5.25982 24.0852 5.11429Z" fill="#848484"/>
<path d="M23.9925 13.7749C24.0938 13.5704 24.1836 13.3604 24.2615 13.1459C24.2427 13.3791 24.1482 13.5999 23.9925 13.7749Z" fill="#848484"/>
<path d="M24.072 5.11431C23.8233 4.56017 23.529 4.0276 23.1923 3.52205C23.2231 3.50708 23.2526 3.48942 23.2803 3.46927C23.6179 3.98195 23.9122 4.5219 24.16 5.08352C24.1558 5.11858 24.1558 5.15401 24.16 5.18908C24.1645 5.24248 24.1733 5.29546 24.1864 5.34744C24.1889 5.32846 24.1889 5.30924 24.1864 5.29026C24.1623 5.23749 24.1329 5.18736 24.0984 5.1407L24.072 5.11431Z" fill="#848484"/>
<path d="M23.2578 3.40758L23.2842 3.44714C23.2566 3.46727 23.2271 3.48492 23.1963 3.49987L23.17 3.46031L23.2578 3.40758Z" fill="#848484"/>
<path d="M21.8684 16.8232C22.7512 15.945 23.4693 14.9156 23.9885 13.7838C24.1439 13.6089 24.238 13.3881 24.2568 13.1549C24.6743 12.0872 24.9107 10.9574 24.9562 9.81198C24.9981 9.71423 25.0234 9.61016 25.031 9.50407C25.0392 9.54127 25.0494 9.57798 25.0617 9.61404C25.0407 10.6876 24.8538 11.7514 24.5075 12.7678C24.3564 12.9516 24.2712 13.1808 24.2656 13.4188C23.7775 14.5928 23.085 15.671 22.2203 16.6033C22.0908 16.6549 21.9715 16.7294 21.8684 16.8232Z" fill="#848484"/>
<path d="M22.0054 8.24581C22.0978 8.08307 22.3266 7.9995 22.6828 7.9995C23.311 8.01757 23.9284 8.16742 24.495 8.43935C24.7056 8.56167 24.8695 8.75042 24.9612 8.97598C24.9612 9.09474 24.9612 9.21348 24.9612 9.33663C24.9612 9.45979 24.9612 9.63573 24.9612 9.77649C24.8793 9.97083 24.7416 10.1365 24.5654 10.2524C24.3892 10.3683 24.1825 10.4292 23.9716 10.4275C23.7781 10.429 23.5879 10.3772 23.4218 10.2779C22.9467 10.0316 21.6888 8.79123 22.0054 8.24581ZM22.6828 8.10065C22.3705 8.10065 22.1682 8.17104 22.0934 8.29859C21.8383 8.73844 22.9467 9.91724 23.4701 10.2207C23.6225 10.3091 23.7954 10.3561 23.9716 10.3571C24.1413 10.3575 24.3081 10.3134 24.4555 10.2293C24.6029 10.1452 24.7257 10.024 24.8117 9.87767C24.9345 9.65301 24.9646 9.38923 24.8956 9.14267C24.8265 8.89611 24.6639 8.68633 24.4422 8.55812C23.894 8.28478 23.2948 8.12896 22.6828 8.10065Z" fill="#848484"/>
<path d="M22.0752 11.1402C22.0067 11.1369 21.939 11.1554 21.8816 11.1929C21.4418 11.4964 21.9433 13.1019 22.2951 13.6165C22.3707 13.7282 22.4675 13.8239 22.5802 13.8979C22.6929 13.9719 22.8192 14.0229 22.9517 14.0479C23.0843 14.0728 23.2204 14.0713 23.3523 14.0433C23.4842 14.0153 23.6093 13.9614 23.7202 13.8848C23.944 13.7308 24.0977 13.4945 24.148 13.2275C24.1982 12.9606 24.1409 12.6846 23.9886 12.4597C23.6851 12.0155 22.6294 11.1402 22.0752 11.1402ZM23.144 14.1663C22.9603 14.1662 22.7793 14.1213 22.6168 14.0354C22.4543 13.9496 22.3152 13.8254 22.2115 13.6737C21.8904 13.2075 21.279 11.4744 21.8245 11.1094C21.899 11.0611 21.9864 11.0366 22.0752 11.039C22.6778 11.039 23.7598 11.9495 24.0721 12.4025C24.2216 12.6199 24.2887 12.8835 24.2613 13.1459C24.1835 13.3604 24.094 13.5703 23.993 13.7749C23.9311 13.8455 23.8601 13.9076 23.7818 13.9596C23.5996 14.0906 23.3816 14.1628 23.1572 14.1663H23.144Z" fill="#848484"/>
<path d="M21.859 16.8318C21.8379 16.847 21.8188 16.8647 21.8019 16.8845L21.859 16.8318Z" fill="#848484"/>
<path d="M21.6841 17.0435C21.7159 16.9889 21.7544 16.9386 21.7987 16.8937C21.8156 16.8738 21.8349 16.856 21.856 16.8408C21.8062 16.9143 21.7486 16.9823 21.6841 17.0435Z" fill="#848484"/>
<path d="M21.8687 16.8228C21.9718 16.729 22.0911 16.6545 22.2206 16.6029C22.0139 16.8272 21.7808 17.0428 21.5696 17.2495C21.5998 17.1765 21.6382 17.1071 21.684 17.0427C21.7483 16.9817 21.8058 16.9138 21.8556 16.8404L21.8687 16.8228Z" fill="#848484"/>
<path d="M21.5676 17.2498C21.7919 17.0431 22.0074 16.8099 22.2186 16.6032C22.3329 16.5534 22.4548 16.5236 22.5792 16.5152H22.6936C23.3754 16.5152 25.0688 16.8671 25.1172 17.5225C25.1436 17.8964 24.6201 18.2263 24.1803 18.4418C23.7298 18.6625 23.2474 18.811 22.7508 18.8816H22.6628C22.3637 18.8813 22.0759 18.7676 21.8572 18.5636C21.6385 18.3596 21.5051 18.0803 21.484 17.782C21.4709 17.6005 21.4995 17.4185 21.5676 17.2498ZM22.5836 16.6164C22.2972 16.6374 22.0309 16.7713 21.8433 16.9887C21.6556 17.206 21.562 17.489 21.583 17.7754C21.604 18.0618 21.7379 18.3281 21.9553 18.5158C22.1726 18.7034 22.4556 18.7971 22.742 18.7761C23.2266 18.7018 23.6968 18.5535 24.1363 18.3362C24.7125 18.0591 25.016 17.76 25.016 17.5137C24.9764 16.9859 23.4677 16.6032 22.6936 16.6032L22.5836 16.6164Z" fill="#848484"/>
<path d="M21.4764 17.1987C21.587 17.1014 21.6976 16.9997 21.7993 16.8935C21.7548 16.9386 21.7162 16.9891 21.6843 17.0439C21.6208 17.1028 21.5511 17.1547 21.4764 17.1987Z" fill="#848484"/>
<path d="M22.3398 4.67436C21.7768 4.67436 21.4117 4.78873 21.3369 4.98227C21.1698 5.42212 22.397 6.35901 22.916 6.55694C23.0229 6.59685 23.1361 6.61767 23.2503 6.6185C23.4399 6.62359 23.6265 6.56959 23.7841 6.464C23.9417 6.3584 24.0625 6.20644 24.13 6.02911C24.1737 5.91694 24.1939 5.79697 24.1894 5.67667C24.1848 5.55638 24.1556 5.4383 24.1036 5.32974C24.0535 5.21873 23.9817 5.11878 23.8926 5.03572C23.8035 4.95266 23.6988 4.88815 23.5846 4.84591C23.1808 4.72558 22.761 4.66772 22.3398 4.67436ZM21.2402 4.94707C21.3589 4.63917 21.9043 4.57321 22.3398 4.57321C22.7659 4.56834 23.1902 4.62916 23.5978 4.75353C23.7876 4.82538 23.9526 4.95065 24.0728 5.11422V5.14061C24.1344 5.28136 24.1916 5.42651 24.2443 5.58046C24.2708 5.74789 24.2526 5.91934 24.1916 6.07749C24.1159 6.26904 23.9844 6.43348 23.8143 6.54953C23.6441 6.66558 23.4431 6.72791 23.2371 6.72846C23.1105 6.72939 22.985 6.7055 22.8676 6.6581C22.397 6.43377 21.0334 5.4793 21.2402 4.92508V4.94707Z" fill="#848484"/>
<path d="M21.4241 0.636514C22.0355 0.636514 23.1263 1.44583 23.4605 1.86369C23.6467 2.09486 23.7337 2.39041 23.7023 2.68556C23.671 2.98072 23.524 3.25142 23.2935 3.43836L23.267 3.39877L23.1791 3.45155L23.2055 3.49114C23.0327 3.60764 22.8288 3.669 22.6205 3.66709C22.4502 3.66447 22.2827 3.62355 22.1305 3.54741C21.9782 3.47127 21.845 3.36185 21.7408 3.22724C21.3889 2.78739 20.6455 1.10714 21.1557 0.702475C21.2358 0.652234 21.3299 0.629115 21.4241 0.636514ZM21.8024 3.17884C21.8984 3.30187 22.0212 3.40146 22.1614 3.47004C22.3016 3.53863 22.4556 3.57442 22.6117 3.57472C22.8368 3.57519 23.0555 3.4992 23.2319 3.35919C23.3356 3.27517 23.4217 3.17154 23.4854 3.05422C23.549 2.93689 23.5889 2.80817 23.6028 2.67542C23.6167 2.54266 23.6043 2.40846 23.5663 2.28051C23.5283 2.15255 23.4655 2.03335 23.3814 1.92968C23.0647 1.52941 21.9959 0.737671 21.4241 0.737671C21.3448 0.734711 21.2664 0.756215 21.1998 0.799256C20.7863 1.12914 21.3977 2.6906 21.8024 3.17884Z" fill="#848484"/>
<path d="M21.8979 16.5107C21.9443 16.3737 21.9628 16.2288 21.9522 16.0845C21.9416 15.9402 21.9022 15.7994 21.8363 15.6706C21.59 15.2 20.5167 14.0432 19.9405 14.0432C19.8871 14.0428 19.8344 14.0548 19.7866 14.0784C19.571 14.1927 19.4831 14.6194 19.5491 15.2572C19.5952 15.7442 19.7184 16.2208 19.9141 16.6691C20.0051 16.846 20.1432 16.9943 20.3132 17.0976C20.4832 17.2008 20.6785 17.255 20.8774 17.2541C21.1069 17.2529 21.3301 17.179 21.515 17.0431C21.6999 16.9072 21.837 16.7162 21.9067 16.4976L21.8979 16.5107ZM21.8979 15.631C21.9704 15.7693 22.0148 15.9206 22.0283 16.0762C22.0419 16.2317 22.0245 16.3884 21.977 16.5371C21.9466 16.6367 21.9022 16.7315 21.8451 16.8187L21.7835 16.8802C21.6823 16.9858 21.5724 17.087 21.4624 17.1837L21.4096 17.2145C21.2411 17.3023 21.0542 17.3491 20.8642 17.3509C20.6474 17.3511 20.4346 17.2917 20.2492 17.1793C20.0638 17.0668 19.9129 16.9055 19.813 16.7131C19.6101 16.2526 19.4824 15.7625 19.4347 15.2616C19.3863 14.7734 19.3907 14.1575 19.7294 13.9816C19.7906 13.9506 19.8587 13.9354 19.9273 13.9376C20.5739 13.9552 21.656 15.134 21.9155 15.6354L21.8979 15.631Z" fill="#848484"/>
<path d="M19.0051 18.9783C18.772 19.0885 18.5345 19.1944 18.2969 19.287C18.3974 19.2445 18.4897 19.1848 18.5696 19.1106C18.7051 19.0392 18.8529 18.9943 19.0051 18.9783Z" fill="#848484"/>
<path d="M18.3187 19.2733C18.4014 19.2024 18.4933 19.1431 18.592 19.097C18.5118 19.1712 18.4194 19.2308 18.3187 19.2733Z" fill="#848484"/>
<path d="M18.2668 19.2952C18.2523 19.2987 18.2371 19.2987 18.2227 19.2952H18.2668Z" fill="#848484"/>
<path d="M18.5825 19.0973C18.484 19.1435 18.3923 19.2028 18.3098 19.2737H18.2658H18.2218L18.169 19.2958C18.037 19.3393 17.8989 19.3616 17.7599 19.3619H17.6984C17.8391 19.3178 17.9755 19.2693 18.1119 19.212H18.1382C18.3186 19.1458 18.4945 19.0753 18.6705 18.9959C18.6484 19.0239 18.6216 19.0477 18.5913 19.0664L18.5825 19.0973Z" fill="#848484"/>
<path d="M19.1444 19.0663C18.887 19.0675 18.6369 19.1518 18.4311 19.3065C18.2254 19.4612 18.075 19.6782 18.0024 19.9252C17.9298 20.1722 17.9388 20.436 18.028 20.6774C18.1173 20.9189 18.2821 21.1251 18.4979 21.2655C19.1758 21.633 19.9271 21.8449 20.6971 21.8857C20.8146 21.9023 20.9343 21.8911 21.0466 21.8529C21.1589 21.8147 21.2607 21.7506 21.3437 21.6658C21.4888 21.4371 21.3437 20.9752 20.9258 20.4034C20.6144 19.9643 20.2359 19.577 19.8042 19.2554C19.6071 19.13 19.378 19.0643 19.1444 19.0663ZM19.4259 21.7713C19.0805 21.6662 18.7496 21.5184 18.4407 21.3315C18.1525 21.145 17.9499 20.8519 17.8773 20.5164C17.8048 20.1808 17.8682 19.8302 18.0536 19.5413C18.1192 19.4407 18.1976 19.349 18.2867 19.2686C18.5243 19.1762 18.7618 19.0707 18.9949 18.9607H19.1356C19.3831 18.9612 19.6254 19.0313 19.835 19.163C20.2785 19.4917 20.6662 19.8897 20.983 20.3418C21.2997 20.7817 21.6296 21.3711 21.4229 21.7142C21.3333 21.8163 21.2195 21.8944 21.0919 21.9412C20.9644 21.9881 20.8271 22.0023 20.6927 21.9825C20.2626 21.9725 19.836 21.9015 19.4259 21.7713Z" fill="#848484"/>
<path d="M18.1684 19.3345C16.9648 19.7939 15.687 20.028 14.3988 20.0251V19.9239C15.5196 19.9253 16.6333 19.7471 17.6977 19.3961H17.7593C17.898 19.3972 18.0361 19.3764 18.1684 19.3345Z" fill="#848484"/>
<path d="M18.1129 19.2466C17.9765 19.3038 17.8401 19.3522 17.6994 19.3962C17.4383 19.3849 17.1868 19.2949 16.978 19.1378C16.7691 18.9808 16.6127 18.7641 16.5294 18.5165C16.3227 17.9007 16.1863 15.7894 16.9077 15.5475C16.9518 15.5334 16.9977 15.526 17.044 15.5255C17.739 15.5255 18.8034 17.0694 18.9926 17.6983C19.0637 17.9267 19.0714 18.1702 19.0148 18.4026C18.9583 18.635 18.8396 18.8477 18.6715 19.0179C18.4956 19.0971 18.3196 19.1674 18.1392 19.2334C18.4395 19.1321 18.6875 18.9162 18.8292 18.6327C18.9709 18.3493 18.9949 18.0213 18.8958 17.7203C18.6979 17.1265 17.6862 15.6179 17.044 15.6179C17.0091 15.6112 16.9733 15.6112 16.9385 15.6179C16.3447 15.8158 16.3975 17.7687 16.6262 18.4593C16.725 18.7558 16.9358 19.0018 17.2136 19.1448C17.4915 19.2878 17.8142 19.3165 18.1129 19.2246V19.2466Z" fill="#848484"/>
<path d="M9.67035 19.3345C9.80238 19.3779 9.94046 19.4002 10.0794 19.4005H10.141C11.2054 19.7515 12.3191 19.9297 13.4399 19.9283V20.0295C12.1514 20.031 10.8736 19.7954 9.67035 19.3345Z" fill="#848484"/>
<path d="M9.52147 19.2733C9.42083 19.2308 9.32836 19.1712 9.24823 19.097C9.34687 19.1431 9.43879 19.2024 9.52147 19.2733Z" fill="#848484"/>
<path d="M9.5214 19.2735C9.43888 19.2026 9.34714 19.1433 9.24869 19.0971C9.21838 19.0784 9.19156 19.0546 9.16949 19.0266C9.31904 19.0927 9.46859 19.1545 9.60935 19.2118L9.68854 19.2427H9.71491C9.85126 19.3 9.98764 19.3485 10.1284 19.3926H10.0668C9.92783 19.3923 9.78981 19.37 9.65778 19.3265C9.62476 19.3152 9.59241 19.3019 9.56097 19.2868L9.5214 19.2735Z" fill="#848484"/>
<path d="M9.25759 19.0975C9.33757 19.1717 9.42985 19.2314 9.5303 19.2739C9.29278 19.1813 9.05526 19.0754 8.82214 18.9652C8.96569 18.9783 9.10571 19.0171 9.23558 19.0798L9.25759 19.0975Z" fill="#848484"/>
<path d="M9.62319 19.1895C9.46924 19.1323 9.3197 19.0708 9.18334 19.0048C9.01524 18.8346 8.89659 18.6219 8.84003 18.3895C8.78347 18.157 8.79115 17.9136 8.86226 17.6852C9.07339 17.0562 10.1159 15.5124 10.8108 15.5124C10.8571 15.5129 10.903 15.5203 10.9471 15.5343C11.6685 15.7763 11.5321 17.8876 11.3254 18.5033C11.2421 18.751 11.0857 18.9676 10.8769 19.1247C10.668 19.2817 10.4165 19.3718 10.1554 19.383C10.0146 19.3391 9.87831 19.2907 9.74196 19.2335C10.0406 19.3253 10.3634 19.2967 10.6412 19.1537C10.919 19.0106 11.1299 18.7646 11.2287 18.4681C11.4574 17.7776 11.5102 15.8291 10.9164 15.6267C10.8815 15.6204 10.8457 15.6204 10.8108 15.6267C10.1686 15.6267 9.15695 17.1354 8.95901 17.7292C8.87019 18.0117 8.88888 18.317 9.01147 18.5865C9.13406 18.8561 9.35191 19.0708 9.62319 19.1895Z" fill="#848484"/>
<path d="M7.15501 21.9914C7.02058 22.0112 6.88334 21.997 6.7558 21.9501C6.62826 21.9033 6.51447 21.8252 6.42484 21.7231C6.20052 21.38 6.53041 20.7862 6.86469 20.3508C7.18138 19.9 7.56739 19.5022 8.00835 19.172C8.21915 19.0395 8.46312 18.9693 8.7121 18.9696H8.85283C9.08595 19.0796 9.32346 19.1852 9.56098 19.2775C9.65015 19.358 9.72852 19.4497 9.79412 19.5502C9.97953 19.8391 10.0429 20.1897 9.97034 20.5253C9.89779 20.8608 9.69525 21.1539 9.40705 21.3404C8.7153 21.725 7.94528 21.9476 7.15501 21.9914ZM6.50844 21.6703C6.59142 21.7551 6.69315 21.8192 6.80547 21.8574C6.91779 21.8956 7.03754 21.9069 7.15501 21.8903C7.92507 21.8495 8.67636 21.6376 9.35427 21.27C9.49433 21.189 9.61651 21.0803 9.71336 20.9507C9.81022 20.821 9.87974 20.6731 9.91777 20.5157C9.9558 20.3584 9.96152 20.1951 9.93458 20.0355C9.90764 19.8759 9.8486 19.7234 9.76104 19.5873C9.67348 19.4512 9.55925 19.3343 9.42519 19.2436C9.29114 19.153 9.14007 19.0904 8.98116 19.0598C8.82224 19.0292 8.65875 19.0312 8.5006 19.0656C8.34246 19.1 8.19298 19.1661 8.06113 19.2599C7.62942 19.5815 7.25091 19.9689 6.93949 20.408C6.51283 20.9798 6.36329 21.4416 6.50844 21.6703Z" fill="#848484"/>
<path d="M8.83456 18.9783C7.89982 18.5306 7.03585 17.9482 6.27025 17.2497C6.24009 17.1766 6.20171 17.1073 6.15588 17.0429C6.21907 17.1015 6.28837 17.1531 6.3626 17.1968C7.19497 17.9507 8.1423 18.5669 9.16885 19.0222C9.19092 19.0502 9.21774 19.074 9.24805 19.0926C9.11818 19.0301 8.97811 18.9914 8.83456 18.9783Z" fill="#848484"/>
<path d="M6.04193 16.8935C6.14366 16.9997 6.25423 17.1014 6.3648 17.1987C6.29016 17.1547 6.22047 17.1028 6.15693 17.0439C6.12509 16.9891 6.08645 16.9386 6.04193 16.8935Z" fill="#848484"/>
<path d="M6.04173 16.8937C6.08609 16.9386 6.12459 16.9889 6.15632 17.0435C6.0919 16.9823 6.03426 16.9143 5.98444 16.8408C6.00558 16.856 6.02482 16.8738 6.04173 16.8937Z" fill="#848484"/>
<path d="M6.00287 16.8318L6.06429 16.8933C6.04745 16.8735 6.0283 16.8558 6.00726 16.8406L6.00287 16.8318Z" fill="#848484"/>
<path d="M5.84398 16.5502C5.79552 16.4016 5.77754 16.2448 5.79115 16.0891C5.80475 15.9334 5.84963 15.782 5.92313 15.6441C6.18264 15.1427 7.24268 13.9639 7.90686 13.9639C7.97548 13.9617 8.04358 13.9768 8.10482 14.0078C8.43911 14.1838 8.44787 14.7996 8.39949 15.2878C8.35102 15.7882 8.22489 16.2779 8.02563 16.7393C7.92455 16.9318 7.77281 17.0929 7.58674 17.2054C7.40068 17.3178 7.18736 17.3772 6.96997 17.3771C6.77996 17.3753 6.59308 17.3286 6.42456 17.2408L6.36298 17.2056C6.25301 17.1088 6.14306 17.0076 6.04189 16.9021L5.98031 16.8405C5.92231 16.7501 5.87649 16.6525 5.84398 16.5502ZM6.01113 15.6705C5.87796 15.9229 5.84947 16.2175 5.93177 16.4908C6.01407 16.764 6.20057 16.9939 6.45098 17.1308C6.60477 17.2101 6.77499 17.2523 6.94801 17.254C7.14693 17.2548 7.3422 17.2007 7.51222 17.0974C7.68223 16.9942 7.82033 16.8459 7.91126 16.669C8.10696 16.2206 8.23022 15.744 8.27637 15.257C8.34235 14.6193 8.27636 14.1926 8.03884 14.0782C7.99095 14.0547 7.93825 14.0426 7.8849 14.043C7.32189 14.0562 6.25744 15.2306 6.00232 15.6705H6.01113Z" fill="#848484"/>
<path d="M6.0033 16.8404C6.05303 16.9138 6.11055 16.9817 6.17485 17.0427C6.22068 17.1071 6.25905 17.1765 6.28922 17.2495C6.06489 17.0428 5.84937 16.8096 5.63824 16.6029C5.76706 16.6513 5.88509 16.7245 5.98569 16.8184L6.0033 16.8404Z" fill="#848484"/>
<path d="M4.68316 3.46031L4.65677 3.49987C4.62511 3.48657 4.59554 3.46881 4.56891 3.44714L4.5953 3.40758L4.68316 3.46031Z" fill="#848484"/>
<path d="M4.58163 3.40745L4.55522 3.44705C4.32468 3.2601 4.17768 2.9894 4.14635 2.69425C4.11502 2.39909 4.20191 2.10355 4.38807 1.87237C4.72236 1.43252 5.81319 0.645198 6.42458 0.645198C6.52671 0.638957 6.62782 0.668511 6.7105 0.728771C7.22073 1.13343 6.4774 2.80926 6.12552 3.25351C6.02149 3.38836 5.8883 3.49795 5.73597 3.57411C5.58364 3.65028 5.41611 3.69105 5.24581 3.69336C5.03738 3.69611 4.83311 3.63468 4.66078 3.51741L4.68719 3.47784L4.58163 3.40745ZM4.45846 1.92956C4.37438 2.03322 4.31153 2.15243 4.27355 2.28038C4.23556 2.40834 4.2232 2.54254 4.23709 2.6753C4.25098 2.80805 4.29086 2.93677 4.35451 3.0541C4.41816 3.17142 4.50428 3.27505 4.608 3.35907C4.78435 3.49908 5.00303 3.57507 5.2282 3.5746C5.38429 3.5743 5.53826 3.5385 5.67847 3.46992C5.81868 3.40134 5.94146 3.30175 6.03751 3.17872C6.42898 2.69048 7.05357 1.12902 6.64011 0.799135C6.57342 0.756094 6.4951 0.73459 6.41578 0.73755C5.84397 0.73755 4.77516 1.52929 4.45846 1.92956Z" fill="#848484"/>
<path d="M3.67103 5.06147C3.91886 4.49985 4.21312 3.9599 4.55074 3.44722C4.57739 3.46892 4.60705 3.48669 4.63874 3.5C4.30203 4.00555 4.00779 4.53812 3.75904 5.09226C3.72017 5.14779 3.68632 5.20665 3.65788 5.26818C3.65603 5.28867 3.65603 5.30928 3.65788 5.32977C3.67129 5.27637 3.68009 5.22193 3.68424 5.16703C3.68413 5.13143 3.67969 5.09599 3.67103 5.06147Z" fill="#848484"/>
<path d="M3.85207 12.4595C3.69968 12.6844 3.64239 12.9604 3.69266 13.2273C3.74292 13.4943 3.89664 13.7305 4.12037 13.8846C4.28936 14.0025 4.49057 14.0654 4.6966 14.0649C4.86333 14.0669 5.02798 14.0278 5.17603 13.9511C5.32407 13.8744 5.45094 13.7624 5.54549 13.6251C5.89737 13.1105 6.42522 11.505 5.95897 11.2015C5.90163 11.164 5.83387 11.1455 5.76541 11.1487C5.2112 11.1399 4.15557 12.0152 3.85207 12.4595ZM3.85207 13.779C3.75105 13.5745 3.66148 13.3645 3.58377 13.1501C3.55634 12.8877 3.62342 12.6241 3.77293 12.4067C4.08522 11.9669 5.16722 11.0432 5.76981 11.0432C5.85857 11.0408 5.94601 11.0653 6.02056 11.1135C6.56597 11.4874 5.95458 13.2116 5.63349 13.6779C5.52981 13.8296 5.3907 13.9537 5.22821 14.0396C5.06573 14.1254 4.88477 14.1704 4.70101 14.1705C4.47453 14.1713 4.2533 14.1022 4.06759 13.9726C3.98934 13.9206 3.91835 13.8585 3.85647 13.7878L3.85207 13.779Z" fill="#848484"/>
<path d="M4.59012 6.6976C4.38415 6.69705 4.18308 6.63472 4.01292 6.51867C3.84276 6.40262 3.71132 6.23818 3.63562 6.04663C3.5746 5.88848 3.5564 5.71703 3.58284 5.5496C3.64002 5.39565 3.70162 5.2417 3.7676 5.10974C3.8878 4.94618 4.05277 4.82091 4.24262 4.74906C4.65019 4.62469 5.07449 4.56387 5.50058 4.56874C5.94044 4.56874 6.48145 4.6347 6.59581 4.9426C6.80694 5.49681 5.44341 6.46448 4.95958 6.64482C4.84101 6.68622 4.71553 6.70415 4.59012 6.6976ZM3.75879 5.30768C3.70677 5.41625 3.67758 5.53432 3.67304 5.65462C3.6685 5.77492 3.68869 5.89488 3.73237 6.00706C3.7998 6.18438 3.92071 6.33635 4.07832 6.44194C4.23592 6.54754 4.42243 6.60153 4.61208 6.59644C4.72625 6.59562 4.8394 6.57477 4.94637 6.53486C5.46539 6.33693 6.70576 5.40006 6.52542 4.96021C6.45064 4.76668 6.08561 4.65231 5.5226 4.65231C5.10871 4.6479 4.6965 4.70573 4.2998 4.82386C4.1815 4.86357 4.07253 4.92694 3.97952 5.01012C3.88651 5.0933 3.81141 5.19454 3.75879 5.30768Z" fill="#848484"/>
<path d="M3.64562 5.32954C3.63416 5.38073 3.61799 5.43076 3.59729 5.47896C3.60671 5.42724 3.62296 5.37698 3.64562 5.32954Z" fill="#848484"/>
<path d="M3.58002 13.1459C3.65794 13.3604 3.74774 13.5704 3.84902 13.7749C3.69327 13.5999 3.59885 13.3791 3.58002 13.1459Z" fill="#848484"/>
<path d="M3.76948 5.11429C3.70333 5.26384 3.64157 5.41779 3.58424 5.55414C3.58007 5.53234 3.58007 5.50995 3.58424 5.48815C3.60502 5.4399 3.62125 5.38986 3.63275 5.33862C3.6309 5.31813 3.6309 5.29752 3.63275 5.27703C3.67316 5.21867 3.71895 5.16419 3.76948 5.11429Z" fill="#848484"/>
<path d="M3.57125 13.4054C3.48305 13.1943 3.3993 12.9656 3.32874 12.7545C3.48028 12.9383 3.56565 13.1675 3.57125 13.4054Z" fill="#848484"/>
<path d="M3.67221 5.06152C3.67646 5.09658 3.67646 5.13202 3.67221 5.16708C3.66805 5.22198 3.65922 5.27643 3.64578 5.32983C3.62303 5.37731 3.60673 5.42761 3.59727 5.47939C3.54686 5.60178 3.47181 5.71255 3.37677 5.80487C3.46497 5.55416 3.56637 5.30344 3.67221 5.06152Z" fill="#848484"/>
<path d="M4.41924 10.3044C4.25314 10.4037 4.06294 10.4555 3.86943 10.454C3.65853 10.4557 3.45184 10.3948 3.27564 10.2789C3.09944 10.163 2.96167 9.99735 2.87976 9.80301C2.87976 9.65785 2.87976 9.5083 2.87976 9.36315C2.87976 9.218 2.87976 9.12126 2.87976 9.0025C2.97148 8.77694 3.13544 8.58819 3.34598 8.46587C3.91256 8.19394 4.52996 8.04409 5.15816 8.02602C5.51444 8.02602 5.74318 8.10959 5.83555 8.27233C6.15224 8.79136 4.89428 10.0317 4.41924 10.3044ZM5.15816 8.10519C4.5475 8.128 3.9483 8.2778 3.39876 8.54504C3.17713 8.67325 3.01446 8.88303 2.94543 9.12959C2.87639 9.37615 2.90647 9.63993 3.0293 9.86459C3.1153 10.0109 3.23811 10.1321 3.38549 10.2162C3.53288 10.3003 3.69973 10.3444 3.86943 10.344C4.04559 10.343 4.21844 10.296 4.37086 10.2077C4.89429 9.90419 6.00271 8.72539 5.7476 8.28554C5.67282 8.19317 5.47045 8.10078 5.15816 8.10078V8.10519Z" fill="#848484"/>
<path d="M5.61951 16.6031C4.75031 15.6685 4.05604 14.5854 3.56978 13.4053C3.56419 13.1674 3.47905 12.9382 3.3279 12.7544C2.98164 11.738 2.79469 10.6742 2.77368 9.60064C2.78598 9.56459 2.79624 9.52787 2.80445 9.49068C2.81204 9.59676 2.83734 9.70083 2.87924 9.79858C2.92474 10.944 3.16109 12.0738 3.57859 13.1414C3.59737 13.3747 3.69154 13.5954 3.84689 13.7704C4.36462 14.9006 5.08126 15.9287 5.9626 16.8054C5.86218 16.7167 5.74572 16.648 5.61951 16.6031Z" fill="#848484"/>
<path d="M2.80438 9.51264C2.81316 9.42048 2.81316 9.3277 2.80438 9.23553C2.81603 9.16286 2.83678 9.09194 2.86613 9.02441C2.86613 9.14317 2.86613 9.26194 2.86613 9.3851C2.86613 9.50825 2.86613 9.68419 2.86613 9.82495C2.82817 9.72503 2.80729 9.61945 2.80438 9.51264Z" fill="#848484"/>
<path d="M3.58305 5.55404C3.15445 6.65219 2.91645 7.81544 2.87929 8.99368C2.85002 9.0612 2.82932 9.13212 2.81771 9.2048C2.81311 9.12732 2.79984 9.05061 2.77814 8.97609C2.81251 7.89586 3.01431 6.8275 3.37633 5.80916C3.47112 5.71684 3.54597 5.60606 3.59625 5.48367C3.58708 5.50598 3.58257 5.52992 3.58305 5.55404Z" fill="#848484"/>
<path d="M5.14628 16.6119C4.37215 16.6119 2.86344 16.9946 2.82386 17.5224C2.82386 17.7688 3.12735 18.0679 3.70356 18.345C4.14304 18.5622 4.61328 18.7105 5.09785 18.7848C5.38424 18.8058 5.66726 18.7122 5.88461 18.5245C6.10197 18.3368 6.23587 18.0705 6.25687 17.7841C6.27786 17.4977 6.18428 17.2148 5.99662 16.9974C5.80896 16.78 5.54264 16.6461 5.25625 16.6251L5.14628 16.6119ZM5.0891 18.8772C4.59233 18.8071 4.10982 18.6586 3.65958 18.4373C3.21973 18.2218 2.69631 17.8919 2.7227 17.518C2.77108 16.8627 4.48211 16.5108 5.14628 16.5108H5.26065C5.38503 16.5192 5.50702 16.5489 5.6213 16.5987C5.82803 16.8231 6.06115 17.0386 6.27227 17.2453C6.34479 17.4251 6.37221 17.6199 6.35212 17.8127C6.33202 18.0055 6.26502 18.1904 6.157 18.3514C6.04897 18.5124 5.90321 18.6444 5.73239 18.7361C5.56158 18.8277 5.3709 18.8762 5.17705 18.8772H5.0891Z" fill="#848484"/>
<path d="M2.80592 9.48243C2.79272 9.39035 2.79272 9.29685 2.80592 9.20477C2.81469 9.29712 2.81469 9.39008 2.80592 9.48243Z" fill="#848484"/>
<path d="M2.81911 9.20469C2.8059 9.29659 2.8059 9.3899 2.81911 9.4818C2.81088 9.51899 2.80054 9.55571 2.78821 9.59176C2.78821 9.50819 2.78821 9.42902 2.78821 9.34544C2.78821 9.26187 2.78821 9.09034 2.78821 8.96718C2.80765 9.0449 2.81804 9.12459 2.81911 9.20469Z" fill="#848484"/>
<path d="M1.87705 5.73006C1.54276 5.3342 0.821407 3.8299 1.27445 3.44283C1.35537 3.38199 1.4548 3.35091 1.55597 3.35486C2.11458 3.35486 3.11744 4.05421 3.42533 4.41929C3.58024 4.59782 3.66741 4.82515 3.67162 5.06148C3.56606 5.3034 3.46493 5.55412 3.37696 5.80923L3.31977 5.86201C3.1377 6.01569 2.90706 6.09983 2.6688 6.09952C2.51796 6.09889 2.36902 6.06554 2.23233 6.00175C2.09564 5.93796 1.97443 5.84526 1.87705 5.73006ZM1.33604 3.53081C0.97976 3.83431 1.59557 5.25062 1.95624 5.67288C2.04346 5.77718 2.15241 5.86113 2.2755 5.91887C2.39859 5.97662 2.53284 6.00677 2.6688 6.00717C2.88357 6.00915 3.09163 5.93247 3.25378 5.79162C3.34652 5.71474 3.42251 5.61964 3.47698 5.51221C3.53146 5.40477 3.56325 5.28729 3.57046 5.16704C3.588 4.92259 3.50905 4.68101 3.35054 4.49408C3.06024 4.151 2.07939 3.46482 1.55597 3.46482C1.47823 3.45761 1.40042 3.47785 1.33604 3.522V3.53081Z" fill="#848484"/>
<path d="M3.00328 12.5915C2.42139 12.2813 1.77905 12.1012 1.1207 12.0637C0.8392 12.0637 0.645661 12.1296 0.566488 12.2528C0.276186 12.6926 1.37142 13.9814 1.88604 14.3201C2.05176 14.4255 2.24388 14.4819 2.44026 14.4828C2.66298 14.4844 2.88013 14.4133 3.05885 14.2804C3.23757 14.1475 3.3681 13.9599 3.43073 13.7462C3.49336 13.5325 3.48464 13.3041 3.40592 13.0958C3.3272 12.8875 3.18279 12.7104 2.99448 12.5915H3.00328ZM1.1207 11.9625C1.79878 11.9955 2.46052 12.182 3.05606 12.5079C3.16181 12.5737 3.2543 12.6588 3.32877 12.7586C3.39914 12.983 3.48268 13.1985 3.57065 13.4096C3.58357 13.6406 3.52355 13.8699 3.3991 14.065C3.29741 14.2246 3.15695 14.356 2.99082 14.4467C2.8247 14.5375 2.63836 14.5847 2.44906 14.584C2.23415 14.584 2.02366 14.523 1.84207 14.4081C1.36703 14.1002 0.126609 12.7498 0.482888 12.2088C0.559816 12.1171 0.658526 12.0461 0.76993 12.0023C0.881334 11.9585 1.00192 11.9433 1.1207 11.9581V11.9625Z" fill="#848484"/>
<path d="M0.504841 7.54678C1.11184 7.54678 2.1631 8.17134 2.50178 8.51003C2.62979 8.64129 2.72478 8.80112 2.77889 8.9763C2.77889 9.09945 2.77889 9.227 2.77889 9.35456C2.77889 9.48212 2.77889 9.51731 2.77889 9.60088C2.72928 9.76734 2.63847 9.91861 2.51494 10.0407C2.31437 10.2376 2.04384 10.3468 1.76281 10.3442C1.61796 10.3441 1.47458 10.3153 1.34094 10.2595C1.20731 10.2036 1.08606 10.1218 0.984264 10.0187C0.684798 9.67076 0.440063 9.2792 0.258498 8.85753C0.0781593 8.44847 -0.0845771 7.90304 0.157341 7.66552C0.204615 7.62386 0.259655 7.59194 0.319279 7.57156C0.378902 7.55118 0.441958 7.54277 0.504841 7.54678ZM2.43139 8.58042C2.1103 8.26373 1.08105 7.64794 0.504841 7.64794C0.454419 7.643 0.403502 7.64824 0.355145 7.66335C0.306788 7.67846 0.26197 7.70315 0.22333 7.73591C0.0693816 7.88986 0.11338 8.28571 0.346501 8.81793C0.521435 9.22974 0.760439 9.61127 1.05465 9.94835C1.14596 10.0428 1.25528 10.1179 1.37617 10.1693C1.49706 10.2207 1.62705 10.2473 1.75841 10.2474C2.01392 10.2473 2.25902 10.1461 2.4402 9.96596C2.62142 9.78036 2.72212 9.53076 2.72047 9.27136C2.71883 9.01197 2.61495 8.7637 2.43139 8.58042Z" fill="#848484"/>
</svg>
