<svg width="262" height="40" viewBox="0 0 262 40" fill="none" xmlns="http://www.w3.org/2000/svg">
<path d="M38.9289 27.9356L36.4528 30.5641L35.0601 32.0422C34.6975 32.4185 34.3106 32.7483 33.9226 33.0337C32.9002 33.7874 31.8711 34.2156 31.2742 34.2156C30.6165 34.2156 29.9577 33.5722 30.0395 33.0078C30.286 32.2033 31.1924 29.3045 31.7683 27.7745L37.6124 12.1556C40.4101 4.58889 38.4348 0.0800137 32.3453 0.0800137C28.5594 0.0800137 25.5141 1.4489 18.0252 6.60113C18.9305 2.57557 18.107 0 14.6506 0C11.5102 0 8.64066 1.5927 4.76524 5.76747C3.86768 6.7352 2.91596 7.84026 1.8935 9.09669L2.85406 9.89142L2.96349 9.98224L5.48263 7.31692L6.99588 5.71557C8.23057 4.42778 9.79467 3.70333 10.5342 3.70333C11.193 3.70333 11.9336 4.34669 11.8507 4.91111C11.6042 5.71557 10.616 8.61444 10.0401 10.1444L0 37.1134L5.94799 35.2147L7.81827 34.6178C10.8149 26.4413 13.8878 18.3361 16.963 10.1661C17.0978 9.80924 17.2305 9.45459 17.3653 9.09777C22.6324 5.47553 24.7724 4.50888 27.4883 4.50888C31.5207 4.50888 32.5907 7.00444 30.6165 12.3178L25.1018 27.2122C22.7971 33.3311 22.2212 38 27.0771 38C29.5653 38 31.8026 37.0766 34.4466 34.7843C36.0881 33.3614 37.8854 31.4129 39.9989 28.8222L38.9289 27.9367V27.9356Z" fill="white"/>
<path d="M79.7113 9.6V32H76.0312V16.032L69.2153 27.296H68.7673L61.9513 16V32H58.2713V9.6H62.2393L68.9913 20.8L75.7753 9.6H79.7113ZM94.7375 16H98.4175L92.2735 32.512C90.7375 36.6507 88.1348 38.6133 84.4655 38.4V35.168C85.5535 35.232 86.4282 34.9973 87.0895 34.464C87.7508 33.952 88.2948 33.1413 88.7215 32.032L88.8815 31.712L82.0975 16H85.8735L90.6415 27.616L94.7375 16ZM122.243 9.6H125.923V32H123.043L112.483 16.8V32H108.803V9.6H111.683L122.243 24.8V9.6ZM133.436 12.96C133.01 13.3867 132.498 13.6 131.9 13.6C131.303 13.6 130.78 13.3867 130.332 12.96C129.906 12.512 129.692 11.9893 129.692 11.392C129.692 10.7947 129.906 10.2827 130.332 9.856C130.759 9.408 131.282 9.184 131.9 9.184C132.519 9.184 133.042 9.408 133.468 9.856C133.895 10.2827 134.108 10.7947 134.108 11.392C134.108 11.9893 133.884 12.512 133.436 12.96ZM130.172 32V16H133.628V32H130.172ZM151.785 32H147.657L141.097 24.608V32H137.641V9.6H141.097V23.072L147.305 16H151.529L144.489 23.84L151.785 32ZM165.501 16H168.957V32H165.501V29.696C164.199 31.5093 162.333 32.416 159.901 32.416C157.703 32.416 155.826 31.6053 154.269 29.984C152.711 28.3413 151.933 26.3467 151.933 24C151.933 21.632 152.711 19.6373 154.269 18.016C155.826 16.3947 157.703 15.584 159.901 15.584C162.333 15.584 164.199 16.48 165.501 18.272V16ZM156.829 27.68C157.789 28.64 158.994 29.12 160.445 29.12C161.895 29.12 163.101 28.64 164.061 27.68C165.021 26.6987 165.501 25.472 165.501 24C165.501 22.528 165.021 21.312 164.061 20.352C163.101 19.3707 161.895 18.88 160.445 18.88C158.994 18.88 157.789 19.3707 156.829 20.352C155.869 21.312 155.389 22.528 155.389 24C155.389 25.472 155.869 26.6987 156.829 27.68ZM181.401 15.584C183.235 15.584 184.718 16.1707 185.849 17.344C186.979 18.5173 187.545 20.128 187.545 22.176V32H184.089V22.528C184.089 21.3333 183.769 20.416 183.129 19.776C182.489 19.136 181.614 18.816 180.505 18.816C179.289 18.816 178.307 19.2 177.561 19.968C176.814 20.7147 176.441 21.8667 176.441 23.424V32H172.985V9.6H176.441V18.048C177.486 16.4053 179.139 15.584 181.401 15.584ZM212.93 9.6H216.61V32H213.73L203.17 16.8V32H199.49V9.6H202.37L212.93 24.8V9.6ZM228.412 32.416C226.065 32.416 224.07 31.6053 222.428 29.984C220.785 28.3627 219.964 26.368 219.964 24C219.964 21.632 220.785 19.6373 222.428 18.016C224.07 16.3947 226.065 15.584 228.412 15.584C230.78 15.584 232.774 16.3947 234.396 18.016C236.038 19.6373 236.86 21.632 236.86 24C236.86 26.368 236.038 28.3627 234.396 29.984C232.774 31.6053 230.78 32.416 228.412 32.416ZM224.86 27.616C225.82 28.576 227.004 29.056 228.412 29.056C229.82 29.056 231.004 28.576 231.964 27.616C232.924 26.656 233.404 25.4507 233.404 24C233.404 22.5493 232.924 21.344 231.964 20.384C231.004 19.424 229.82 18.944 228.412 18.944C227.004 18.944 225.82 19.424 224.86 20.384C223.9 21.344 223.42 22.5493 223.42 24C223.42 25.4507 223.9 26.656 224.86 27.616ZM257.792 16H261.44L256.416 32H253.024L249.696 21.216L246.336 32H242.944L237.92 16H241.568L244.672 27.04L248.032 16H251.328L254.656 27.04L257.792 16Z" fill="white"/>
</svg>
