<svg width="60" height="58" viewBox="0 0 60 58" fill="none" xmlns="http://www.w3.org/2000/svg">
<path d="M58.395 41.9046L54.6808 45.8475L52.5916 48.0647C52.0478 48.6291 51.4674 49.1238 50.8854 49.552C49.3517 50.6825 47.808 51.3248 46.9126 51.3248C45.926 51.3248 44.9378 50.3598 45.0605 49.5131C45.4303 48.3064 46.7899 43.9579 47.6538 41.6629L56.4202 18.2339C60.6168 6.88353 57.6538 0.120024 48.5193 0.120024C42.8403 0.120024 38.2723 2.17341 27.0386 9.90197C28.3966 3.86347 27.1613 0 21.9765 0C17.2658 0 12.9614 2.38912 7.14807 8.65145C5.80169 10.1031 4.37407 11.7607 2.84032 13.6454L4.28121 14.8376L4.44537 14.9738L8.22418 10.9757L10.4941 8.5736C12.3462 6.64186 14.6924 5.55516 15.8017 5.55516C16.7899 5.55516 17.9008 6.52022 17.7765 7.36687C17.4067 8.5736 15.9244 12.922 15.0605 15.2171L0 55.6716L8.92224 52.8235L11.7277 51.9282C16.2229 39.663 20.8324 27.5049 25.4452 15.2495C25.6475 14.7143 25.8465 14.1823 26.0487 13.647C33.9496 8.21353 37.1597 6.76351 41.2336 6.76351C47.2824 6.76351 48.8874 10.507 45.9261 18.4772L37.6538 40.8195C34.1967 49.9981 33.3328 57.0016 40.6168 57.0016C44.3492 57.0016 47.7052 55.6165 51.6714 52.178C54.1336 50.0435 56.8297 47.1207 60 43.2346L58.395 41.9062V41.9046Z" fill="url(#paint0_linear_514_196)"/>
<defs>
<linearGradient id="paint0_linear_514_196" x1="30" y1="0" x2="30" y2="57.0016" gradientUnits="userSpaceOnUse">
<stop stop-color="#BE2D87"/>
<stop offset="1" stop-color="#F74989"/>
</linearGradient>
</defs>
</svg>