<svg width="30" height="30" viewBox="0 0 30 30" fill="none" xmlns="http://www.w3.org/2000/svg">
<path d="M20.2416 19.3215L16.4126 15.4808L3.61737 28.3878C3.77156 28.3412 3.93519 28.2706 4.10994 28.1744C4.24083 28.1026 4.55922 27.9281 5.0272 27.6718L5.05506 27.6565C7.68856 26.2138 14.9193 22.2525 20.2416 19.3215Z" fill="white"/>
<path d="M20.9689 18.9209C21.4615 18.6496 21.9335 18.3892 22.3795 18.1432C22.6956 17.9689 22.9985 17.8018 23.2864 17.6431L23.288 17.6422C25.0764 16.6565 26.2819 15.9921 26.4265 15.9201C27.0945 15.5637 27.7848 14.6208 26.4265 13.8885C26.0058 13.6676 23.8168 12.4636 20.9658 10.8878L16.9743 14.9142L20.9689 18.9209Z" fill="white"/>
<path d="M20.2254 10.5014C17.8601 9.2075 4.96399 2.15362 4.10972 1.69796C3.94742 1.60121 3.77454 1.53611 3.60065 1.5L16.4109 14.3491L20.2254 10.5014Z" fill="white"/>
<path d="M2.62138 1.64781L15.8492 14.9157L2.57198 28.309C2.19655 28.0552 2 27.5245 2 26.8543V3.07876C2 2.33763 2.26054 1.88161 2.62138 1.64781Z" fill="white"/>
</svg>
